M48
;GenerationSoftware,Autodesk,EAGLE,9.6.2*%
;CreationDate,2020-11-24T21:13:44Z*%
FMAT,2
ICI,OFF
METRIC,TZ,000.000
T4C0.305
T3C0.813
T2C1.016
T1C3.302
%
G90
M71
T1
X67056Y61468
X29210Y29210
X29210Y2540
X2540Y2540
X2540Y29210
X61468Y29210
X61468Y2540
X34798Y2540
X34798Y29210
X93726Y29210
X93726Y2540
X67056Y2540
X67056Y29210
X125984Y29210
X125984Y2540
X99314Y2540
X99314Y29210
X29210Y61468
X29210Y34798
X2540Y34798
X2540Y61468
X61468Y61468
X61468Y34798
X34798Y34798
X34798Y61468
X93726Y61468
X93726Y34798
X67056Y34798
X34798Y125984
X125984Y61468
X125984Y34798
X99314Y34798
X99314Y61468
X29210Y93726
X29210Y67056
X2540Y67056
X2540Y93726
X61468Y93726
X61468Y67056
X34798Y67056
X34798Y93726
X93726Y93726
X93726Y67056
X67056Y67056
X67056Y93726
X125984Y93726
X125984Y67056
X99314Y67056
X99314Y93726
X29210Y125984
X29210Y99314
X2540Y99314
X2540Y125984
X61468Y125984
X61468Y99314
X34798Y99314
X99314Y125984
X93726Y125984
X93726Y99314
X67056Y99314
X67056Y125984
X125984Y125984
X125984Y99314
X99314Y99314
T2
X119634Y98044
X17780Y98044
X20320Y98044
X22860Y98044
X42418Y98044
X10160Y1270
X12700Y1270
X15240Y1270
X17780Y1270
X20320Y1270
X22860Y1270
X44958Y98044
X47498Y98044
X50038Y98044
X52578Y98044
X42418Y1270
X44958Y1270
X47498Y1270
X50038Y1270
X52578Y1270
X55118Y1270
X55118Y98044
X74676Y98044
X77216Y98044
X79756Y98044
X74676Y1270
X77216Y1270
X79756Y1270
X82296Y1270
X84836Y1270
X87376Y1270
X82296Y98044
X84836Y98044
X87376Y98044
X106934Y98044
X106934Y1270
X109474Y1270
X112014Y1270
X114554Y1270
X117094Y1270
X119634Y1270
X109474Y98044
X112014Y98044
X114554Y98044
X117094Y98044
X10160Y33528
X12700Y33528
X15240Y33528
X17780Y33528
X20320Y33528
X22860Y33528
X42418Y33528
X44958Y33528
X47498Y33528
X50038Y33528
X52578Y33528
X55118Y33528
X74676Y33528
X77216Y33528
X79756Y33528
X82296Y33528
X84836Y33528
X87376Y33528
X106934Y33528
X109474Y33528
X112014Y33528
X114554Y33528
X117094Y33528
X119634Y33528
X10160Y65786
X12700Y65786
X15240Y65786
X17780Y65786
X20320Y65786
X22860Y65786
X42418Y65786
X44958Y65786
X47498Y65786
X50038Y65786
X52578Y65786
X55118Y65786
X74676Y65786
X77216Y65786
X79756Y65786
X82296Y65786
X84836Y65786
X87376Y65786
X106934Y65786
X109474Y65786
X112014Y65786
X114554Y65786
X117094Y65786
X119634Y65786
X10160Y98044
X12700Y98044
X15240Y98044
T3
X11430Y12700
X11430Y15240
X21590Y12700
X21590Y15240
X43688Y12700
X43688Y15240
X53848Y12700
X53848Y15240
X75946Y12700
X75946Y15240
X86106Y12700
X86106Y15240
X108204Y12700
X108204Y15240
X118364Y12700
X118364Y15240
X11430Y44958
X11430Y47498
X21590Y44958
X21590Y47498
X86106Y47498
X43688Y77216
X43688Y79756
X53848Y77216
X11430Y109474
X11430Y112014
X21590Y109474
X21590Y112014
X53848Y79756
X43688Y44958
X43688Y47498
X53848Y44958
X75946Y44958
X75946Y47498
X43688Y109474
X43688Y112014
X53848Y109474
X53848Y112014
X11430Y77216
X75946Y77216
X75946Y79756
X86106Y77216
X86106Y79756
X11430Y79756
X75946Y109474
X75946Y112014
X86106Y109474
X86106Y112014
X21590Y77216
X21590Y79756
X86106Y44958
X108204Y44958
X108204Y47498
X108204Y77216
X108204Y109474
X108204Y112014
X118364Y109474
X118364Y112014
X108204Y79756
X118364Y77216
X118364Y79756
X118364Y44958
X118364Y47498
X53848Y47498
T4
X46482Y53213
X46228Y59817
X52197Y52959
X44831Y50546
X41656Y52451
X55880Y52197
X51689Y47879
X37084Y56515
X52578Y52070
X51308Y59817
X93091Y48260
X84836Y56896
X83820Y54102
X83058Y50038
X85090Y42580
X81763Y41930
X78118Y49155
X89447Y53721
X83185Y52578
X75946Y58928
X80010Y45339
X70866Y43688
X91186Y39878
X92456Y53848
X79121Y48387
X77216Y41148
X82296Y46609
X68326Y50292
X81026Y57658
X92583Y47244
X73025Y57658
X77597Y43942
X76581Y56134
X85090Y39751
X80137Y42037
X82728Y48006
X84179Y40564
X92075Y57658
X92075Y55372
X78740Y53213
X78486Y59817
X84455Y52959
X77089Y50546
X73914Y52451
X88138Y52197
X83947Y47879
X69342Y56515
X84836Y52070
X83566Y59817
X125349Y48260
X117094Y56896
X116078Y54102
X115316Y50038
X117348Y42580
X114021Y41930
X110376Y49155
X121705Y53721
X115443Y52578
X108204Y58928
X112268Y45339
X103124Y43688
X123444Y39878
X124714Y53848
X111379Y48387
X109474Y41148
X114554Y46609
X100584Y50292
X113284Y57658
X124841Y47244
X105283Y57658
X109855Y43942
X108839Y56134
X117348Y39751
X112395Y42037
X114986Y48006
X116437Y40564
X124333Y57658
X124333Y55372
X110998Y53213
X110744Y59817
X116713Y52959
X109347Y50546
X106172Y52451
X120396Y52197
X116205Y47879
X101600Y56515
X117094Y52070
X115824Y59817
X28575Y80518
X20320Y89154
X19304Y86360
X18542Y82296
X20574Y74838
X17247Y74188
X13602Y81413
X24931Y85979
X18669Y84836
X11430Y91186
X15494Y77597
X6350Y75946
X26670Y72136
X27940Y86106
X14605Y80645
X12700Y73406
X17780Y78867
X3810Y82550
X16510Y89916
X28067Y79502
X8509Y89916
X13081Y76200
X12065Y88392
X20574Y72009
X15621Y74295
X18212Y80264
X19663Y72822
X27559Y89916
X27559Y87630
X14224Y85471
X13970Y92075
X19939Y85217
X12573Y82804
X9398Y84709
X23622Y84455
X19431Y80137
X4826Y88773
X20320Y84328
X19050Y92075
X60833Y80518
X52578Y89154
X51562Y86360
X50800Y82296
X52832Y74838
X49505Y74188
X45860Y81413
X57189Y85979
X50927Y84836
X43688Y91186
X47752Y77597
X38608Y75946
X58928Y72136
X60198Y86106
X46863Y80645
X44958Y73406
X50038Y78867
X36068Y82550
X48768Y89916
X60325Y79502
X40767Y89916
X45339Y76200
X44323Y88392
X52832Y72009
X47879Y74295
X50470Y80264
X51921Y72822
X59817Y89916
X59817Y87630
X46482Y85471
X46228Y92075
X52197Y85217
X44831Y82804
X41656Y84709
X55880Y84455
X51689Y80137
X37084Y88773
X52578Y84328
X51308Y92075
X93091Y80518
X84836Y89154
X83820Y86360
X83058Y82296
X85090Y74838
X81763Y74188
X78118Y81413
X89447Y85979
X83185Y84836
X75946Y91186
X80010Y77597
X70866Y75946
X91186Y72136
X92456Y86106
X79121Y80645
X77216Y73406
X82296Y78867
X68326Y82550
X81026Y89916
X92583Y79502
X73025Y89916
X77597Y76200
X76581Y88392
X85090Y72009
X80137Y74295
X82728Y80264
X84179Y72822
X92075Y89916
X92075Y87630
X78740Y85471
X78486Y92075
X84455Y85217
X77089Y82804
X73914Y84709
X92075Y23114
X83947Y80137
X69342Y88773
X84836Y84328
X83566Y92075
X125349Y80518
X117094Y89154
X116078Y86360
X115316Y82296
X117348Y74838
X114021Y74188
X110376Y81413
X121705Y85979
X115443Y84836
X108204Y91186
X112268Y77597
X103124Y75946
X123444Y72136
X124714Y86106
X111379Y80645
X109474Y73406
X114554Y78867
X100584Y82550
X113284Y89916
X124841Y79502
X105283Y89916
X109855Y76200
X108839Y88392
X117348Y72009
X112395Y74295
X114986Y80264
X116437Y72822
X124333Y89916
X124333Y87630
X110998Y85471
X110744Y92075
X116713Y85217
X109347Y82804
X106172Y84709
X120396Y84455
X116205Y80137
X101600Y88773
X117094Y84328
X115824Y92075
X28575Y112776
X20320Y121412
X19304Y118618
X18542Y114554
X20574Y107096
X17247Y106446
X13602Y113671
X24931Y118237
X18669Y117094
X11430Y123444
X15494Y109855
X6350Y108204
X26670Y104394
X27940Y118364
X14605Y112903
X12700Y105664
X17780Y111125
X3810Y114808
X16510Y122174
X28067Y111760
X8509Y122174
X13081Y108458
X12065Y120650
X20574Y104267
X15621Y106553
X18212Y112522
X19663Y105080
X27559Y122174
X27559Y119888
X14224Y117729
X13970Y124333
X19939Y117475
X12573Y115062
X9398Y116967
X23622Y116713
X19431Y112395
X4826Y121031
X20320Y116586
X19050Y124333
X60833Y112776
X52578Y121412
X51562Y118618
X50800Y114554
X52832Y107096
X49505Y106446
X45860Y113671
X57189Y118237
X50927Y117094
X43688Y123444
X47752Y109855
X38608Y108204
X58928Y104394
X60198Y118364
X46863Y112903
X44958Y105664
X50038Y111125
X36068Y114808
X48768Y122174
X60325Y111760
X40767Y122174
X45339Y108458
X44323Y120650
X52832Y104267
X47879Y106553
X50470Y112522
X51921Y105080
X59817Y122174
X59817Y119888
X46482Y117729
X46228Y124333
X52197Y117475
X44831Y115062
X41656Y116967
X55880Y116713
X51689Y112395
X37084Y121031
X52578Y116586
X51308Y124333
X93091Y112776
X84836Y121412
X83820Y118618
X83058Y114554
X85090Y107096
X81763Y106446
X78118Y113671
X89447Y118237
X83185Y117094
X75946Y123444
X80010Y109855
X70866Y108204
X91186Y104394
X92456Y118364
X79121Y112903
X77216Y105664
X82296Y111125
X68326Y114808
X81026Y122174
X92583Y111760
X73025Y122174
X77597Y108458
X76581Y120650
X85090Y104267
X80137Y106553
X82728Y112522
X84179Y105080
X92075Y122174
X92075Y119888
X78740Y117729
X78486Y124333
X84455Y117475
X77089Y115062
X73914Y116967
X88138Y116713
X83947Y112395
X69342Y121031
X84836Y116586
X83566Y124333
X125349Y112776
X117094Y121412
X116078Y118618
X115316Y114554
X117348Y107096
X114021Y106446
X110376Y113671
X121705Y118237
X115443Y117094
X108204Y123444
X112268Y109855
X103124Y108204
X123444Y104394
X124714Y118364
X111379Y112903
X109474Y105664
X114554Y111125
X100584Y114808
X113284Y122174
X124841Y111760
X105283Y122174
X109855Y108458
X108839Y120650
X117348Y104267
X112395Y106553
X114986Y112522
X116437Y105080
X124333Y122174
X124333Y119888
X110998Y117729
X110744Y124333
X116713Y117475
X109347Y115062
X106172Y116967
X120396Y116713
X116205Y112395
X101600Y121031
X117094Y116586
X115824Y124333
X28575Y16002
X20320Y24638
X19304Y21844
X18542Y17780
X20574Y10322
X17247Y9672
X13602Y16897
X24931Y21463
X18669Y20320
X11430Y26670
X15494Y13081
X6350Y11430
X26670Y7620
X27940Y21590
X14605Y16129
X12700Y8890
X17780Y14351
X3810Y18034
X16510Y25400
X28067Y14986
X8509Y25400
X13081Y11684
X12065Y23876
X20574Y7493
X15621Y9779
X18212Y15748
X19663Y8306
X27559Y25400
X27559Y23114
X14224Y20955
X13970Y27559
X19939Y20701
X12573Y18288
X9398Y20193
X23622Y19939
X19431Y15621
X4826Y24257
X20320Y19812
X19050Y27559
X60833Y16002
X52578Y24638
X51562Y21844
X50800Y17780
X52832Y10322
X49505Y9672
X45860Y16897
X57189Y21463
X50927Y20320
X43688Y26670
X47752Y13081
X38608Y11430
X58928Y7620
X60198Y21590
X46863Y16129
X44958Y8890
X50038Y14351
X36068Y18034
X48768Y25400
X60325Y14986
X40767Y25400
X45339Y11684
X44323Y23876
X52832Y7493
X47879Y9779
X50470Y15748
X51921Y8306
X59817Y25400
X59817Y23114
X46482Y20955
X46228Y27559
X52197Y20701
X44831Y18288
X41656Y20193
X55880Y19939
X51689Y15621
X37084Y24257
X52578Y19812
X51308Y27559
X93091Y16002
X84836Y24638
X83820Y21844
X83058Y17780
X85090Y10322
X81763Y9672
X78118Y16897
X89447Y21463
X83185Y20320
X75946Y26670
X80010Y13081
X70866Y11430
X91186Y7620
X92456Y21590
X79121Y16129
X77216Y8890
X82296Y14351
X68326Y18034
X81026Y25400
X92583Y14986
X73025Y25400
X77597Y11684
X76581Y23876
X85090Y7493
X80137Y9779
X82728Y15748
X84179Y8306
X92075Y25400
X78740Y20955
X78486Y27559
X84455Y20701
X77089Y18288
X73914Y20193
X88138Y19939
X83947Y15621
X69342Y24257
X84836Y19812
X83566Y27559
X125349Y16002
X88138Y84455
X117094Y24638
X116078Y21844
X115316Y17780
X117348Y10322
X114021Y9672
X110376Y16897
X121705Y21463
X115443Y20320
X108204Y26670
X112268Y13081
X103124Y11430
X123444Y7620
X124714Y21590
X111379Y16129
X109474Y8890
X114554Y14351
X100584Y18034
X113284Y25400
X124841Y14986
X105283Y25400
X109855Y11684
X108839Y23876
X117348Y7493
X112395Y9779
X114986Y15748
X116437Y8306
X124333Y25400
X124333Y23114
X110998Y20955
X110744Y27559
X116713Y20701
X109347Y18288
X106172Y20193
X120396Y19939
X116205Y15621
X101600Y24257
X117094Y19812
X115824Y27559
X28575Y48260
X20320Y56896
X19304Y54102
X18542Y50038
X20574Y42580
X17247Y41930
X13602Y49155
X24931Y53721
X18669Y52578
X11430Y58928
X15494Y45339
X6350Y43688
X26670Y39878
X27940Y53848
X14605Y48387
X12700Y41148
X17780Y46609
X3810Y50292
X16510Y57658
X28067Y47244
X8509Y57658
X13081Y43942
X12065Y56134
X20574Y39751
X15621Y42037
X18212Y48006
X19663Y40564
X27559Y57658
X27559Y55372
X14224Y53213
X13970Y59817
X19939Y52959
X12573Y50546
X9398Y52451
X23622Y52197
X19431Y47879
X4826Y56515
X20320Y52070
X19050Y59817
X60833Y48260
X52578Y56896
X51562Y54102
X50800Y50038
X52832Y42580
X49505Y41930
X45860Y49155
X57189Y53721
X50927Y52578
X43688Y58928
X47752Y45339
X38608Y43688
X58928Y39878
X60198Y53848
X46863Y48387
X44958Y41148
X50038Y46609
X36068Y50292
X48768Y57658
X60325Y47244
X40767Y57658
X45339Y43942
X44323Y56134
X52832Y39751
X47879Y42037
X50470Y48006
X51921Y40564
X59817Y57658
X59817Y55372
M30