G04 EAGLE Gerber RS-274X export*
G75*
%MOMM*%
%FSLAX34Y34*%
%LPD*%
%INSoldermask Bottom*%
%IPPOS*%
%AMOC8*
5,1,8,0,0,1.08239X$1,22.5*%
G01*
%ADD10R,0.863600X1.473200*%
%ADD11C,1.203200*%
%ADD12C,3.505200*%
%ADD13R,1.473200X0.863600*%
%ADD14C,1.422400*%
%ADD15C,2.082800*%
%ADD16C,1.270000*%
%ADD17C,1.703200*%

G36*
X862395Y1168412D02*
X862395Y1168412D01*
X862461Y1168414D01*
X862504Y1168432D01*
X862551Y1168440D01*
X862608Y1168474D01*
X862668Y1168499D01*
X862703Y1168530D01*
X862744Y1168555D01*
X862786Y1168606D01*
X862834Y1168650D01*
X862856Y1168692D01*
X862885Y1168729D01*
X862906Y1168791D01*
X862937Y1168850D01*
X862945Y1168904D01*
X862957Y1168941D01*
X862956Y1168981D01*
X862964Y1169035D01*
X862964Y1172845D01*
X862953Y1172910D01*
X862951Y1172976D01*
X862933Y1173019D01*
X862925Y1173066D01*
X862891Y1173123D01*
X862866Y1173183D01*
X862835Y1173218D01*
X862810Y1173259D01*
X862759Y1173301D01*
X862715Y1173349D01*
X862673Y1173371D01*
X862636Y1173400D01*
X862574Y1173421D01*
X862515Y1173452D01*
X862461Y1173460D01*
X862424Y1173472D01*
X862384Y1173471D01*
X862330Y1173479D01*
X859790Y1173479D01*
X859725Y1173468D01*
X859659Y1173466D01*
X859616Y1173448D01*
X859569Y1173440D01*
X859512Y1173406D01*
X859452Y1173381D01*
X859417Y1173350D01*
X859376Y1173325D01*
X859335Y1173274D01*
X859286Y1173230D01*
X859264Y1173188D01*
X859235Y1173151D01*
X859214Y1173089D01*
X859183Y1173030D01*
X859175Y1172976D01*
X859163Y1172939D01*
X859163Y1172935D01*
X859163Y1172934D01*
X859164Y1172899D01*
X859156Y1172845D01*
X859156Y1169035D01*
X859167Y1168970D01*
X859169Y1168904D01*
X859187Y1168861D01*
X859195Y1168814D01*
X859229Y1168757D01*
X859254Y1168697D01*
X859285Y1168662D01*
X859310Y1168621D01*
X859361Y1168580D01*
X859405Y1168531D01*
X859447Y1168509D01*
X859484Y1168480D01*
X859546Y1168459D01*
X859605Y1168428D01*
X859659Y1168420D01*
X859696Y1168408D01*
X859736Y1168409D01*
X859790Y1168401D01*
X862330Y1168401D01*
X862395Y1168412D01*
G37*
G36*
X1210375Y175272D02*
X1210375Y175272D01*
X1210441Y175274D01*
X1210484Y175292D01*
X1210531Y175300D01*
X1210588Y175334D01*
X1210648Y175359D01*
X1210683Y175390D01*
X1210724Y175415D01*
X1210766Y175466D01*
X1210814Y175510D01*
X1210836Y175552D01*
X1210865Y175589D01*
X1210886Y175651D01*
X1210917Y175710D01*
X1210925Y175764D01*
X1210937Y175801D01*
X1210936Y175841D01*
X1210944Y175895D01*
X1210944Y179705D01*
X1210933Y179770D01*
X1210931Y179836D01*
X1210913Y179879D01*
X1210905Y179926D01*
X1210871Y179983D01*
X1210846Y180043D01*
X1210815Y180078D01*
X1210790Y180119D01*
X1210739Y180161D01*
X1210695Y180209D01*
X1210653Y180231D01*
X1210616Y180260D01*
X1210554Y180281D01*
X1210495Y180312D01*
X1210441Y180320D01*
X1210404Y180332D01*
X1210364Y180331D01*
X1210310Y180339D01*
X1207770Y180339D01*
X1207705Y180328D01*
X1207639Y180326D01*
X1207596Y180308D01*
X1207549Y180300D01*
X1207492Y180266D01*
X1207432Y180241D01*
X1207397Y180210D01*
X1207356Y180185D01*
X1207315Y180134D01*
X1207266Y180090D01*
X1207244Y180048D01*
X1207215Y180011D01*
X1207194Y179949D01*
X1207163Y179890D01*
X1207155Y179836D01*
X1207143Y179799D01*
X1207143Y179795D01*
X1207143Y179794D01*
X1207144Y179759D01*
X1207136Y179705D01*
X1207136Y175895D01*
X1207147Y175830D01*
X1207149Y175764D01*
X1207167Y175721D01*
X1207175Y175674D01*
X1207209Y175617D01*
X1207234Y175557D01*
X1207265Y175522D01*
X1207290Y175481D01*
X1207341Y175440D01*
X1207385Y175391D01*
X1207427Y175369D01*
X1207464Y175340D01*
X1207526Y175319D01*
X1207585Y175288D01*
X1207639Y175280D01*
X1207676Y175268D01*
X1207716Y175269D01*
X1207770Y175261D01*
X1210310Y175261D01*
X1210375Y175272D01*
G37*
G36*
X565215Y175272D02*
X565215Y175272D01*
X565281Y175274D01*
X565324Y175292D01*
X565371Y175300D01*
X565428Y175334D01*
X565488Y175359D01*
X565523Y175390D01*
X565564Y175415D01*
X565606Y175466D01*
X565654Y175510D01*
X565676Y175552D01*
X565705Y175589D01*
X565726Y175651D01*
X565757Y175710D01*
X565765Y175764D01*
X565777Y175801D01*
X565776Y175841D01*
X565784Y175895D01*
X565784Y179705D01*
X565773Y179770D01*
X565771Y179836D01*
X565753Y179879D01*
X565745Y179926D01*
X565711Y179983D01*
X565686Y180043D01*
X565655Y180078D01*
X565630Y180119D01*
X565579Y180161D01*
X565535Y180209D01*
X565493Y180231D01*
X565456Y180260D01*
X565394Y180281D01*
X565335Y180312D01*
X565281Y180320D01*
X565244Y180332D01*
X565204Y180331D01*
X565150Y180339D01*
X562610Y180339D01*
X562545Y180328D01*
X562479Y180326D01*
X562436Y180308D01*
X562389Y180300D01*
X562332Y180266D01*
X562272Y180241D01*
X562237Y180210D01*
X562196Y180185D01*
X562155Y180134D01*
X562106Y180090D01*
X562084Y180048D01*
X562055Y180011D01*
X562034Y179949D01*
X562003Y179890D01*
X561995Y179836D01*
X561983Y179799D01*
X561983Y179795D01*
X561983Y179794D01*
X561984Y179759D01*
X561976Y179705D01*
X561976Y175895D01*
X561987Y175830D01*
X561989Y175764D01*
X562007Y175721D01*
X562015Y175674D01*
X562049Y175617D01*
X562074Y175557D01*
X562105Y175522D01*
X562130Y175481D01*
X562181Y175440D01*
X562225Y175391D01*
X562267Y175369D01*
X562304Y175340D01*
X562366Y175319D01*
X562425Y175288D01*
X562479Y175280D01*
X562516Y175268D01*
X562556Y175269D01*
X562610Y175261D01*
X565150Y175261D01*
X565215Y175272D01*
G37*
G36*
X1057975Y175272D02*
X1057975Y175272D01*
X1058041Y175274D01*
X1058084Y175292D01*
X1058131Y175300D01*
X1058188Y175334D01*
X1058248Y175359D01*
X1058283Y175390D01*
X1058324Y175415D01*
X1058366Y175466D01*
X1058414Y175510D01*
X1058436Y175552D01*
X1058465Y175589D01*
X1058486Y175651D01*
X1058517Y175710D01*
X1058525Y175764D01*
X1058537Y175801D01*
X1058536Y175841D01*
X1058544Y175895D01*
X1058544Y179705D01*
X1058533Y179770D01*
X1058531Y179836D01*
X1058513Y179879D01*
X1058505Y179926D01*
X1058471Y179983D01*
X1058446Y180043D01*
X1058415Y180078D01*
X1058390Y180119D01*
X1058339Y180161D01*
X1058295Y180209D01*
X1058253Y180231D01*
X1058216Y180260D01*
X1058154Y180281D01*
X1058095Y180312D01*
X1058041Y180320D01*
X1058004Y180332D01*
X1057964Y180331D01*
X1057910Y180339D01*
X1055370Y180339D01*
X1055305Y180328D01*
X1055239Y180326D01*
X1055196Y180308D01*
X1055149Y180300D01*
X1055092Y180266D01*
X1055032Y180241D01*
X1054997Y180210D01*
X1054956Y180185D01*
X1054915Y180134D01*
X1054866Y180090D01*
X1054844Y180048D01*
X1054815Y180011D01*
X1054794Y179949D01*
X1054763Y179890D01*
X1054755Y179836D01*
X1054743Y179799D01*
X1054743Y179795D01*
X1054743Y179794D01*
X1054744Y179759D01*
X1054736Y179705D01*
X1054736Y175895D01*
X1054747Y175830D01*
X1054749Y175764D01*
X1054767Y175721D01*
X1054775Y175674D01*
X1054809Y175617D01*
X1054834Y175557D01*
X1054865Y175522D01*
X1054890Y175481D01*
X1054941Y175440D01*
X1054985Y175391D01*
X1055027Y175369D01*
X1055064Y175340D01*
X1055126Y175319D01*
X1055185Y175288D01*
X1055239Y175280D01*
X1055276Y175268D01*
X1055316Y175269D01*
X1055370Y175261D01*
X1057910Y175261D01*
X1057975Y175272D01*
G37*
G36*
X1261175Y1211592D02*
X1261175Y1211592D01*
X1261241Y1211594D01*
X1261284Y1211612D01*
X1261331Y1211620D01*
X1261388Y1211654D01*
X1261448Y1211679D01*
X1261483Y1211710D01*
X1261524Y1211735D01*
X1261566Y1211786D01*
X1261614Y1211830D01*
X1261636Y1211872D01*
X1261665Y1211909D01*
X1261686Y1211971D01*
X1261717Y1212030D01*
X1261725Y1212084D01*
X1261737Y1212121D01*
X1261736Y1212161D01*
X1261744Y1212215D01*
X1261744Y1216025D01*
X1261733Y1216090D01*
X1261731Y1216156D01*
X1261713Y1216199D01*
X1261705Y1216246D01*
X1261671Y1216303D01*
X1261646Y1216363D01*
X1261615Y1216398D01*
X1261590Y1216439D01*
X1261539Y1216481D01*
X1261495Y1216529D01*
X1261453Y1216551D01*
X1261416Y1216580D01*
X1261354Y1216601D01*
X1261295Y1216632D01*
X1261241Y1216640D01*
X1261204Y1216652D01*
X1261164Y1216651D01*
X1261110Y1216659D01*
X1258570Y1216659D01*
X1258505Y1216648D01*
X1258439Y1216646D01*
X1258396Y1216628D01*
X1258349Y1216620D01*
X1258292Y1216586D01*
X1258232Y1216561D01*
X1258197Y1216530D01*
X1258156Y1216505D01*
X1258115Y1216454D01*
X1258066Y1216410D01*
X1258044Y1216368D01*
X1258015Y1216331D01*
X1257994Y1216269D01*
X1257963Y1216210D01*
X1257955Y1216156D01*
X1257943Y1216119D01*
X1257943Y1216115D01*
X1257943Y1216114D01*
X1257944Y1216079D01*
X1257936Y1216025D01*
X1257936Y1212215D01*
X1257947Y1212150D01*
X1257949Y1212084D01*
X1257967Y1212041D01*
X1257975Y1211994D01*
X1258009Y1211937D01*
X1258034Y1211877D01*
X1258065Y1211842D01*
X1258090Y1211801D01*
X1258141Y1211760D01*
X1258185Y1211711D01*
X1258227Y1211689D01*
X1258264Y1211660D01*
X1258326Y1211639D01*
X1258385Y1211608D01*
X1258439Y1211600D01*
X1258476Y1211588D01*
X1258516Y1211589D01*
X1258570Y1211581D01*
X1261110Y1211581D01*
X1261175Y1211592D01*
G37*
G36*
X938595Y1211592D02*
X938595Y1211592D01*
X938661Y1211594D01*
X938704Y1211612D01*
X938751Y1211620D01*
X938808Y1211654D01*
X938868Y1211679D01*
X938903Y1211710D01*
X938944Y1211735D01*
X938986Y1211786D01*
X939034Y1211830D01*
X939056Y1211872D01*
X939085Y1211909D01*
X939106Y1211971D01*
X939137Y1212030D01*
X939145Y1212084D01*
X939157Y1212121D01*
X939156Y1212161D01*
X939164Y1212215D01*
X939164Y1216025D01*
X939153Y1216090D01*
X939151Y1216156D01*
X939133Y1216199D01*
X939125Y1216246D01*
X939091Y1216303D01*
X939066Y1216363D01*
X939035Y1216398D01*
X939010Y1216439D01*
X938959Y1216481D01*
X938915Y1216529D01*
X938873Y1216551D01*
X938836Y1216580D01*
X938774Y1216601D01*
X938715Y1216632D01*
X938661Y1216640D01*
X938624Y1216652D01*
X938584Y1216651D01*
X938530Y1216659D01*
X935990Y1216659D01*
X935925Y1216648D01*
X935859Y1216646D01*
X935816Y1216628D01*
X935769Y1216620D01*
X935712Y1216586D01*
X935652Y1216561D01*
X935617Y1216530D01*
X935576Y1216505D01*
X935535Y1216454D01*
X935486Y1216410D01*
X935464Y1216368D01*
X935435Y1216331D01*
X935414Y1216269D01*
X935383Y1216210D01*
X935375Y1216156D01*
X935363Y1216119D01*
X935363Y1216115D01*
X935363Y1216114D01*
X935364Y1216079D01*
X935356Y1216025D01*
X935356Y1212215D01*
X935367Y1212150D01*
X935369Y1212084D01*
X935387Y1212041D01*
X935395Y1211994D01*
X935429Y1211937D01*
X935454Y1211877D01*
X935485Y1211842D01*
X935510Y1211801D01*
X935561Y1211760D01*
X935605Y1211711D01*
X935647Y1211689D01*
X935684Y1211660D01*
X935746Y1211639D01*
X935805Y1211608D01*
X935859Y1211600D01*
X935896Y1211588D01*
X935936Y1211589D01*
X935990Y1211581D01*
X938530Y1211581D01*
X938595Y1211592D01*
G37*
G36*
X293435Y1211592D02*
X293435Y1211592D01*
X293501Y1211594D01*
X293544Y1211612D01*
X293591Y1211620D01*
X293648Y1211654D01*
X293708Y1211679D01*
X293743Y1211710D01*
X293784Y1211735D01*
X293826Y1211786D01*
X293874Y1211830D01*
X293896Y1211872D01*
X293925Y1211909D01*
X293946Y1211971D01*
X293977Y1212030D01*
X293985Y1212084D01*
X293997Y1212121D01*
X293996Y1212161D01*
X294004Y1212215D01*
X294004Y1216025D01*
X293993Y1216090D01*
X293991Y1216156D01*
X293973Y1216199D01*
X293965Y1216246D01*
X293931Y1216303D01*
X293906Y1216363D01*
X293875Y1216398D01*
X293850Y1216439D01*
X293799Y1216481D01*
X293755Y1216529D01*
X293713Y1216551D01*
X293676Y1216580D01*
X293614Y1216601D01*
X293555Y1216632D01*
X293501Y1216640D01*
X293464Y1216652D01*
X293424Y1216651D01*
X293370Y1216659D01*
X290830Y1216659D01*
X290765Y1216648D01*
X290699Y1216646D01*
X290656Y1216628D01*
X290609Y1216620D01*
X290552Y1216586D01*
X290492Y1216561D01*
X290457Y1216530D01*
X290416Y1216505D01*
X290375Y1216454D01*
X290326Y1216410D01*
X290304Y1216368D01*
X290275Y1216331D01*
X290254Y1216269D01*
X290223Y1216210D01*
X290215Y1216156D01*
X290203Y1216119D01*
X290203Y1216115D01*
X290203Y1216114D01*
X290204Y1216079D01*
X290196Y1216025D01*
X290196Y1212215D01*
X290207Y1212150D01*
X290209Y1212084D01*
X290227Y1212041D01*
X290235Y1211994D01*
X290269Y1211937D01*
X290294Y1211877D01*
X290325Y1211842D01*
X290350Y1211801D01*
X290401Y1211760D01*
X290445Y1211711D01*
X290487Y1211689D01*
X290524Y1211660D01*
X290586Y1211639D01*
X290645Y1211608D01*
X290699Y1211600D01*
X290736Y1211588D01*
X290776Y1211589D01*
X290830Y1211581D01*
X293370Y1211581D01*
X293435Y1211592D01*
G37*
G36*
X616015Y1211592D02*
X616015Y1211592D01*
X616081Y1211594D01*
X616124Y1211612D01*
X616171Y1211620D01*
X616228Y1211654D01*
X616288Y1211679D01*
X616323Y1211710D01*
X616364Y1211735D01*
X616406Y1211786D01*
X616454Y1211830D01*
X616476Y1211872D01*
X616505Y1211909D01*
X616526Y1211971D01*
X616557Y1212030D01*
X616565Y1212084D01*
X616577Y1212121D01*
X616576Y1212161D01*
X616584Y1212215D01*
X616584Y1216025D01*
X616573Y1216090D01*
X616571Y1216156D01*
X616553Y1216199D01*
X616545Y1216246D01*
X616511Y1216303D01*
X616486Y1216363D01*
X616455Y1216398D01*
X616430Y1216439D01*
X616379Y1216481D01*
X616335Y1216529D01*
X616293Y1216551D01*
X616256Y1216580D01*
X616194Y1216601D01*
X616135Y1216632D01*
X616081Y1216640D01*
X616044Y1216652D01*
X616004Y1216651D01*
X615950Y1216659D01*
X613410Y1216659D01*
X613345Y1216648D01*
X613279Y1216646D01*
X613236Y1216628D01*
X613189Y1216620D01*
X613132Y1216586D01*
X613072Y1216561D01*
X613037Y1216530D01*
X612996Y1216505D01*
X612955Y1216454D01*
X612906Y1216410D01*
X612884Y1216368D01*
X612855Y1216331D01*
X612834Y1216269D01*
X612803Y1216210D01*
X612795Y1216156D01*
X612783Y1216119D01*
X612783Y1216115D01*
X612783Y1216114D01*
X612784Y1216079D01*
X612776Y1216025D01*
X612776Y1212215D01*
X612787Y1212150D01*
X612789Y1212084D01*
X612807Y1212041D01*
X612815Y1211994D01*
X612849Y1211937D01*
X612874Y1211877D01*
X612905Y1211842D01*
X612930Y1211801D01*
X612981Y1211760D01*
X613025Y1211711D01*
X613067Y1211689D01*
X613104Y1211660D01*
X613166Y1211639D01*
X613225Y1211608D01*
X613279Y1211600D01*
X613316Y1211588D01*
X613356Y1211589D01*
X613410Y1211581D01*
X615950Y1211581D01*
X616015Y1211592D01*
G37*
G36*
X1261175Y1201432D02*
X1261175Y1201432D01*
X1261241Y1201434D01*
X1261284Y1201452D01*
X1261331Y1201460D01*
X1261388Y1201494D01*
X1261448Y1201519D01*
X1261483Y1201550D01*
X1261524Y1201575D01*
X1261566Y1201626D01*
X1261614Y1201670D01*
X1261636Y1201712D01*
X1261665Y1201749D01*
X1261686Y1201811D01*
X1261717Y1201870D01*
X1261725Y1201924D01*
X1261737Y1201961D01*
X1261736Y1202001D01*
X1261744Y1202055D01*
X1261744Y1205865D01*
X1261733Y1205930D01*
X1261731Y1205996D01*
X1261713Y1206039D01*
X1261705Y1206086D01*
X1261671Y1206143D01*
X1261646Y1206203D01*
X1261615Y1206238D01*
X1261590Y1206279D01*
X1261539Y1206321D01*
X1261495Y1206369D01*
X1261453Y1206391D01*
X1261416Y1206420D01*
X1261354Y1206441D01*
X1261295Y1206472D01*
X1261241Y1206480D01*
X1261204Y1206492D01*
X1261164Y1206491D01*
X1261110Y1206499D01*
X1258570Y1206499D01*
X1258505Y1206488D01*
X1258439Y1206486D01*
X1258396Y1206468D01*
X1258349Y1206460D01*
X1258292Y1206426D01*
X1258232Y1206401D01*
X1258197Y1206370D01*
X1258156Y1206345D01*
X1258115Y1206294D01*
X1258066Y1206250D01*
X1258044Y1206208D01*
X1258015Y1206171D01*
X1257994Y1206109D01*
X1257963Y1206050D01*
X1257955Y1205996D01*
X1257943Y1205959D01*
X1257943Y1205955D01*
X1257943Y1205954D01*
X1257944Y1205919D01*
X1257936Y1205865D01*
X1257936Y1202055D01*
X1257947Y1201990D01*
X1257949Y1201924D01*
X1257967Y1201881D01*
X1257975Y1201834D01*
X1258009Y1201777D01*
X1258034Y1201717D01*
X1258065Y1201682D01*
X1258090Y1201641D01*
X1258141Y1201600D01*
X1258185Y1201551D01*
X1258227Y1201529D01*
X1258264Y1201500D01*
X1258326Y1201479D01*
X1258385Y1201448D01*
X1258439Y1201440D01*
X1258476Y1201428D01*
X1258516Y1201429D01*
X1258570Y1201421D01*
X1261110Y1201421D01*
X1261175Y1201432D01*
G37*
G36*
X938595Y1201432D02*
X938595Y1201432D01*
X938661Y1201434D01*
X938704Y1201452D01*
X938751Y1201460D01*
X938808Y1201494D01*
X938868Y1201519D01*
X938903Y1201550D01*
X938944Y1201575D01*
X938986Y1201626D01*
X939034Y1201670D01*
X939056Y1201712D01*
X939085Y1201749D01*
X939106Y1201811D01*
X939137Y1201870D01*
X939145Y1201924D01*
X939157Y1201961D01*
X939156Y1202001D01*
X939164Y1202055D01*
X939164Y1205865D01*
X939153Y1205930D01*
X939151Y1205996D01*
X939133Y1206039D01*
X939125Y1206086D01*
X939091Y1206143D01*
X939066Y1206203D01*
X939035Y1206238D01*
X939010Y1206279D01*
X938959Y1206321D01*
X938915Y1206369D01*
X938873Y1206391D01*
X938836Y1206420D01*
X938774Y1206441D01*
X938715Y1206472D01*
X938661Y1206480D01*
X938624Y1206492D01*
X938584Y1206491D01*
X938530Y1206499D01*
X935990Y1206499D01*
X935925Y1206488D01*
X935859Y1206486D01*
X935816Y1206468D01*
X935769Y1206460D01*
X935712Y1206426D01*
X935652Y1206401D01*
X935617Y1206370D01*
X935576Y1206345D01*
X935535Y1206294D01*
X935486Y1206250D01*
X935464Y1206208D01*
X935435Y1206171D01*
X935414Y1206109D01*
X935383Y1206050D01*
X935375Y1205996D01*
X935363Y1205959D01*
X935363Y1205955D01*
X935363Y1205954D01*
X935364Y1205919D01*
X935356Y1205865D01*
X935356Y1202055D01*
X935367Y1201990D01*
X935369Y1201924D01*
X935387Y1201881D01*
X935395Y1201834D01*
X935429Y1201777D01*
X935454Y1201717D01*
X935485Y1201682D01*
X935510Y1201641D01*
X935561Y1201600D01*
X935605Y1201551D01*
X935647Y1201529D01*
X935684Y1201500D01*
X935746Y1201479D01*
X935805Y1201448D01*
X935859Y1201440D01*
X935896Y1201428D01*
X935936Y1201429D01*
X935990Y1201421D01*
X938530Y1201421D01*
X938595Y1201432D01*
G37*
G36*
X616015Y1201432D02*
X616015Y1201432D01*
X616081Y1201434D01*
X616124Y1201452D01*
X616171Y1201460D01*
X616228Y1201494D01*
X616288Y1201519D01*
X616323Y1201550D01*
X616364Y1201575D01*
X616406Y1201626D01*
X616454Y1201670D01*
X616476Y1201712D01*
X616505Y1201749D01*
X616526Y1201811D01*
X616557Y1201870D01*
X616565Y1201924D01*
X616577Y1201961D01*
X616576Y1202001D01*
X616584Y1202055D01*
X616584Y1205865D01*
X616573Y1205930D01*
X616571Y1205996D01*
X616553Y1206039D01*
X616545Y1206086D01*
X616511Y1206143D01*
X616486Y1206203D01*
X616455Y1206238D01*
X616430Y1206279D01*
X616379Y1206321D01*
X616335Y1206369D01*
X616293Y1206391D01*
X616256Y1206420D01*
X616194Y1206441D01*
X616135Y1206472D01*
X616081Y1206480D01*
X616044Y1206492D01*
X616004Y1206491D01*
X615950Y1206499D01*
X613410Y1206499D01*
X613345Y1206488D01*
X613279Y1206486D01*
X613236Y1206468D01*
X613189Y1206460D01*
X613132Y1206426D01*
X613072Y1206401D01*
X613037Y1206370D01*
X612996Y1206345D01*
X612955Y1206294D01*
X612906Y1206250D01*
X612884Y1206208D01*
X612855Y1206171D01*
X612834Y1206109D01*
X612803Y1206050D01*
X612795Y1205996D01*
X612783Y1205959D01*
X612783Y1205955D01*
X612783Y1205954D01*
X612784Y1205919D01*
X612776Y1205865D01*
X612776Y1202055D01*
X612787Y1201990D01*
X612789Y1201924D01*
X612807Y1201881D01*
X612815Y1201834D01*
X612849Y1201777D01*
X612874Y1201717D01*
X612905Y1201682D01*
X612930Y1201641D01*
X612981Y1201600D01*
X613025Y1201551D01*
X613067Y1201529D01*
X613104Y1201500D01*
X613166Y1201479D01*
X613225Y1201448D01*
X613279Y1201440D01*
X613316Y1201428D01*
X613356Y1201429D01*
X613410Y1201421D01*
X615950Y1201421D01*
X616015Y1201432D01*
G37*
G36*
X293435Y1201432D02*
X293435Y1201432D01*
X293501Y1201434D01*
X293544Y1201452D01*
X293591Y1201460D01*
X293648Y1201494D01*
X293708Y1201519D01*
X293743Y1201550D01*
X293784Y1201575D01*
X293826Y1201626D01*
X293874Y1201670D01*
X293896Y1201712D01*
X293925Y1201749D01*
X293946Y1201811D01*
X293977Y1201870D01*
X293985Y1201924D01*
X293997Y1201961D01*
X293996Y1202001D01*
X294004Y1202055D01*
X294004Y1205865D01*
X293993Y1205930D01*
X293991Y1205996D01*
X293973Y1206039D01*
X293965Y1206086D01*
X293931Y1206143D01*
X293906Y1206203D01*
X293875Y1206238D01*
X293850Y1206279D01*
X293799Y1206321D01*
X293755Y1206369D01*
X293713Y1206391D01*
X293676Y1206420D01*
X293614Y1206441D01*
X293555Y1206472D01*
X293501Y1206480D01*
X293464Y1206492D01*
X293424Y1206491D01*
X293370Y1206499D01*
X290830Y1206499D01*
X290765Y1206488D01*
X290699Y1206486D01*
X290656Y1206468D01*
X290609Y1206460D01*
X290552Y1206426D01*
X290492Y1206401D01*
X290457Y1206370D01*
X290416Y1206345D01*
X290375Y1206294D01*
X290326Y1206250D01*
X290304Y1206208D01*
X290275Y1206171D01*
X290254Y1206109D01*
X290223Y1206050D01*
X290215Y1205996D01*
X290203Y1205959D01*
X290203Y1205955D01*
X290203Y1205954D01*
X290204Y1205919D01*
X290196Y1205865D01*
X290196Y1202055D01*
X290207Y1201990D01*
X290209Y1201924D01*
X290227Y1201881D01*
X290235Y1201834D01*
X290269Y1201777D01*
X290294Y1201717D01*
X290325Y1201682D01*
X290350Y1201641D01*
X290401Y1201600D01*
X290445Y1201551D01*
X290487Y1201529D01*
X290524Y1201500D01*
X290586Y1201479D01*
X290645Y1201448D01*
X290699Y1201440D01*
X290736Y1201428D01*
X290776Y1201429D01*
X290830Y1201421D01*
X293370Y1201421D01*
X293435Y1201432D01*
G37*
G36*
X1184975Y523252D02*
X1184975Y523252D01*
X1185041Y523254D01*
X1185084Y523272D01*
X1185131Y523280D01*
X1185188Y523314D01*
X1185248Y523339D01*
X1185283Y523370D01*
X1185324Y523395D01*
X1185366Y523446D01*
X1185414Y523490D01*
X1185436Y523532D01*
X1185465Y523569D01*
X1185486Y523631D01*
X1185517Y523690D01*
X1185525Y523744D01*
X1185537Y523781D01*
X1185536Y523821D01*
X1185544Y523875D01*
X1185544Y527685D01*
X1185533Y527750D01*
X1185531Y527816D01*
X1185513Y527859D01*
X1185505Y527906D01*
X1185471Y527963D01*
X1185446Y528023D01*
X1185415Y528058D01*
X1185390Y528099D01*
X1185339Y528141D01*
X1185295Y528189D01*
X1185253Y528211D01*
X1185216Y528240D01*
X1185154Y528261D01*
X1185095Y528292D01*
X1185041Y528300D01*
X1185004Y528312D01*
X1184964Y528311D01*
X1184910Y528319D01*
X1182370Y528319D01*
X1182305Y528308D01*
X1182239Y528306D01*
X1182196Y528288D01*
X1182149Y528280D01*
X1182092Y528246D01*
X1182032Y528221D01*
X1181997Y528190D01*
X1181956Y528165D01*
X1181915Y528114D01*
X1181866Y528070D01*
X1181844Y528028D01*
X1181815Y527991D01*
X1181794Y527929D01*
X1181763Y527870D01*
X1181755Y527816D01*
X1181743Y527779D01*
X1181743Y527775D01*
X1181743Y527774D01*
X1181744Y527739D01*
X1181736Y527685D01*
X1181736Y523875D01*
X1181747Y523810D01*
X1181749Y523744D01*
X1181767Y523701D01*
X1181775Y523654D01*
X1181809Y523597D01*
X1181834Y523537D01*
X1181865Y523502D01*
X1181890Y523461D01*
X1181941Y523420D01*
X1181985Y523371D01*
X1182027Y523349D01*
X1182064Y523320D01*
X1182126Y523299D01*
X1182185Y523268D01*
X1182239Y523260D01*
X1182276Y523248D01*
X1182316Y523249D01*
X1182370Y523241D01*
X1184910Y523241D01*
X1184975Y523252D01*
G37*
G36*
X539815Y1168412D02*
X539815Y1168412D01*
X539881Y1168414D01*
X539924Y1168432D01*
X539971Y1168440D01*
X540028Y1168474D01*
X540088Y1168499D01*
X540123Y1168530D01*
X540164Y1168555D01*
X540206Y1168606D01*
X540254Y1168650D01*
X540276Y1168692D01*
X540305Y1168729D01*
X540326Y1168791D01*
X540357Y1168850D01*
X540365Y1168904D01*
X540377Y1168941D01*
X540376Y1168981D01*
X540384Y1169035D01*
X540384Y1172845D01*
X540373Y1172910D01*
X540371Y1172976D01*
X540353Y1173019D01*
X540345Y1173066D01*
X540311Y1173123D01*
X540286Y1173183D01*
X540255Y1173218D01*
X540230Y1173259D01*
X540179Y1173301D01*
X540135Y1173349D01*
X540093Y1173371D01*
X540056Y1173400D01*
X539994Y1173421D01*
X539935Y1173452D01*
X539881Y1173460D01*
X539844Y1173472D01*
X539804Y1173471D01*
X539750Y1173479D01*
X537210Y1173479D01*
X537145Y1173468D01*
X537079Y1173466D01*
X537036Y1173448D01*
X536989Y1173440D01*
X536932Y1173406D01*
X536872Y1173381D01*
X536837Y1173350D01*
X536796Y1173325D01*
X536755Y1173274D01*
X536706Y1173230D01*
X536684Y1173188D01*
X536655Y1173151D01*
X536634Y1173089D01*
X536603Y1173030D01*
X536595Y1172976D01*
X536583Y1172939D01*
X536583Y1172935D01*
X536583Y1172934D01*
X536584Y1172899D01*
X536576Y1172845D01*
X536576Y1169035D01*
X536587Y1168970D01*
X536589Y1168904D01*
X536607Y1168861D01*
X536615Y1168814D01*
X536649Y1168757D01*
X536674Y1168697D01*
X536705Y1168662D01*
X536730Y1168621D01*
X536781Y1168580D01*
X536825Y1168531D01*
X536867Y1168509D01*
X536904Y1168480D01*
X536966Y1168459D01*
X537025Y1168428D01*
X537079Y1168420D01*
X537116Y1168408D01*
X537156Y1168409D01*
X537210Y1168401D01*
X539750Y1168401D01*
X539815Y1168412D01*
G37*
G36*
X217235Y1168412D02*
X217235Y1168412D01*
X217301Y1168414D01*
X217344Y1168432D01*
X217391Y1168440D01*
X217448Y1168474D01*
X217508Y1168499D01*
X217543Y1168530D01*
X217584Y1168555D01*
X217626Y1168606D01*
X217674Y1168650D01*
X217696Y1168692D01*
X217725Y1168729D01*
X217746Y1168791D01*
X217777Y1168850D01*
X217785Y1168904D01*
X217797Y1168941D01*
X217796Y1168981D01*
X217804Y1169035D01*
X217804Y1172845D01*
X217793Y1172910D01*
X217791Y1172976D01*
X217773Y1173019D01*
X217765Y1173066D01*
X217731Y1173123D01*
X217706Y1173183D01*
X217675Y1173218D01*
X217650Y1173259D01*
X217599Y1173301D01*
X217555Y1173349D01*
X217513Y1173371D01*
X217476Y1173400D01*
X217414Y1173421D01*
X217355Y1173452D01*
X217301Y1173460D01*
X217264Y1173472D01*
X217224Y1173471D01*
X217170Y1173479D01*
X214630Y1173479D01*
X214565Y1173468D01*
X214499Y1173466D01*
X214456Y1173448D01*
X214409Y1173440D01*
X214352Y1173406D01*
X214292Y1173381D01*
X214257Y1173350D01*
X214216Y1173325D01*
X214175Y1173274D01*
X214126Y1173230D01*
X214104Y1173188D01*
X214075Y1173151D01*
X214054Y1173089D01*
X214023Y1173030D01*
X214015Y1172976D01*
X214003Y1172939D01*
X214003Y1172935D01*
X214003Y1172934D01*
X214004Y1172899D01*
X213996Y1172845D01*
X213996Y1169035D01*
X214007Y1168970D01*
X214009Y1168904D01*
X214027Y1168861D01*
X214035Y1168814D01*
X214069Y1168757D01*
X214094Y1168697D01*
X214125Y1168662D01*
X214150Y1168621D01*
X214201Y1168580D01*
X214245Y1168531D01*
X214287Y1168509D01*
X214324Y1168480D01*
X214386Y1168459D01*
X214445Y1168428D01*
X214499Y1168420D01*
X214536Y1168408D01*
X214576Y1168409D01*
X214630Y1168401D01*
X217170Y1168401D01*
X217235Y1168412D01*
G37*
G36*
X1184975Y1168412D02*
X1184975Y1168412D01*
X1185041Y1168414D01*
X1185084Y1168432D01*
X1185131Y1168440D01*
X1185188Y1168474D01*
X1185248Y1168499D01*
X1185283Y1168530D01*
X1185324Y1168555D01*
X1185366Y1168606D01*
X1185414Y1168650D01*
X1185436Y1168692D01*
X1185465Y1168729D01*
X1185486Y1168791D01*
X1185517Y1168850D01*
X1185525Y1168904D01*
X1185537Y1168941D01*
X1185536Y1168981D01*
X1185544Y1169035D01*
X1185544Y1172845D01*
X1185533Y1172910D01*
X1185531Y1172976D01*
X1185513Y1173019D01*
X1185505Y1173066D01*
X1185471Y1173123D01*
X1185446Y1173183D01*
X1185415Y1173218D01*
X1185390Y1173259D01*
X1185339Y1173301D01*
X1185295Y1173349D01*
X1185253Y1173371D01*
X1185216Y1173400D01*
X1185154Y1173421D01*
X1185095Y1173452D01*
X1185041Y1173460D01*
X1185004Y1173472D01*
X1184964Y1173471D01*
X1184910Y1173479D01*
X1182370Y1173479D01*
X1182305Y1173468D01*
X1182239Y1173466D01*
X1182196Y1173448D01*
X1182149Y1173440D01*
X1182092Y1173406D01*
X1182032Y1173381D01*
X1181997Y1173350D01*
X1181956Y1173325D01*
X1181915Y1173274D01*
X1181866Y1173230D01*
X1181844Y1173188D01*
X1181815Y1173151D01*
X1181794Y1173089D01*
X1181763Y1173030D01*
X1181755Y1172976D01*
X1181743Y1172939D01*
X1181743Y1172935D01*
X1181743Y1172934D01*
X1181744Y1172899D01*
X1181736Y1172845D01*
X1181736Y1169035D01*
X1181747Y1168970D01*
X1181749Y1168904D01*
X1181767Y1168861D01*
X1181775Y1168814D01*
X1181809Y1168757D01*
X1181834Y1168697D01*
X1181865Y1168662D01*
X1181890Y1168621D01*
X1181941Y1168580D01*
X1181985Y1168531D01*
X1182027Y1168509D01*
X1182064Y1168480D01*
X1182126Y1168459D01*
X1182185Y1168428D01*
X1182239Y1168420D01*
X1182276Y1168408D01*
X1182316Y1168409D01*
X1182370Y1168401D01*
X1184910Y1168401D01*
X1184975Y1168412D01*
G37*
G36*
X1210375Y1143012D02*
X1210375Y1143012D01*
X1210441Y1143014D01*
X1210484Y1143032D01*
X1210531Y1143040D01*
X1210588Y1143074D01*
X1210648Y1143099D01*
X1210683Y1143130D01*
X1210724Y1143155D01*
X1210766Y1143206D01*
X1210814Y1143250D01*
X1210836Y1143292D01*
X1210865Y1143329D01*
X1210886Y1143391D01*
X1210917Y1143450D01*
X1210925Y1143504D01*
X1210937Y1143541D01*
X1210936Y1143581D01*
X1210944Y1143635D01*
X1210944Y1147445D01*
X1210933Y1147510D01*
X1210931Y1147576D01*
X1210913Y1147619D01*
X1210905Y1147666D01*
X1210871Y1147723D01*
X1210846Y1147783D01*
X1210815Y1147818D01*
X1210790Y1147859D01*
X1210739Y1147901D01*
X1210695Y1147949D01*
X1210653Y1147971D01*
X1210616Y1148000D01*
X1210554Y1148021D01*
X1210495Y1148052D01*
X1210441Y1148060D01*
X1210404Y1148072D01*
X1210364Y1148071D01*
X1210310Y1148079D01*
X1207770Y1148079D01*
X1207705Y1148068D01*
X1207639Y1148066D01*
X1207596Y1148048D01*
X1207549Y1148040D01*
X1207492Y1148006D01*
X1207432Y1147981D01*
X1207397Y1147950D01*
X1207356Y1147925D01*
X1207315Y1147874D01*
X1207266Y1147830D01*
X1207244Y1147788D01*
X1207215Y1147751D01*
X1207194Y1147689D01*
X1207163Y1147630D01*
X1207155Y1147576D01*
X1207143Y1147539D01*
X1207143Y1147535D01*
X1207143Y1147534D01*
X1207144Y1147499D01*
X1207136Y1147445D01*
X1207136Y1143635D01*
X1207147Y1143570D01*
X1207149Y1143504D01*
X1207167Y1143461D01*
X1207175Y1143414D01*
X1207209Y1143357D01*
X1207234Y1143297D01*
X1207265Y1143262D01*
X1207290Y1143221D01*
X1207341Y1143180D01*
X1207385Y1143131D01*
X1207427Y1143109D01*
X1207464Y1143080D01*
X1207526Y1143059D01*
X1207585Y1143028D01*
X1207639Y1143020D01*
X1207676Y1143008D01*
X1207716Y1143009D01*
X1207770Y1143001D01*
X1210310Y1143001D01*
X1210375Y1143012D01*
G37*
G36*
X735395Y1143012D02*
X735395Y1143012D01*
X735461Y1143014D01*
X735504Y1143032D01*
X735551Y1143040D01*
X735608Y1143074D01*
X735668Y1143099D01*
X735703Y1143130D01*
X735744Y1143155D01*
X735786Y1143206D01*
X735834Y1143250D01*
X735856Y1143292D01*
X735885Y1143329D01*
X735906Y1143391D01*
X735937Y1143450D01*
X735945Y1143504D01*
X735957Y1143541D01*
X735956Y1143581D01*
X735964Y1143635D01*
X735964Y1147445D01*
X735953Y1147510D01*
X735951Y1147576D01*
X735933Y1147619D01*
X735925Y1147666D01*
X735891Y1147723D01*
X735866Y1147783D01*
X735835Y1147818D01*
X735810Y1147859D01*
X735759Y1147901D01*
X735715Y1147949D01*
X735673Y1147971D01*
X735636Y1148000D01*
X735574Y1148021D01*
X735515Y1148052D01*
X735461Y1148060D01*
X735424Y1148072D01*
X735384Y1148071D01*
X735330Y1148079D01*
X732790Y1148079D01*
X732725Y1148068D01*
X732659Y1148066D01*
X732616Y1148048D01*
X732569Y1148040D01*
X732512Y1148006D01*
X732452Y1147981D01*
X732417Y1147950D01*
X732376Y1147925D01*
X732335Y1147874D01*
X732286Y1147830D01*
X732264Y1147788D01*
X732235Y1147751D01*
X732214Y1147689D01*
X732183Y1147630D01*
X732175Y1147576D01*
X732163Y1147539D01*
X732163Y1147535D01*
X732163Y1147534D01*
X732164Y1147499D01*
X732156Y1147445D01*
X732156Y1143635D01*
X732167Y1143570D01*
X732169Y1143504D01*
X732187Y1143461D01*
X732195Y1143414D01*
X732229Y1143357D01*
X732254Y1143297D01*
X732285Y1143262D01*
X732310Y1143221D01*
X732361Y1143180D01*
X732405Y1143131D01*
X732447Y1143109D01*
X732484Y1143080D01*
X732546Y1143059D01*
X732605Y1143028D01*
X732659Y1143020D01*
X732696Y1143008D01*
X732736Y1143009D01*
X732790Y1143001D01*
X735330Y1143001D01*
X735395Y1143012D01*
G37*
G36*
X565215Y1143012D02*
X565215Y1143012D01*
X565281Y1143014D01*
X565324Y1143032D01*
X565371Y1143040D01*
X565428Y1143074D01*
X565488Y1143099D01*
X565523Y1143130D01*
X565564Y1143155D01*
X565606Y1143206D01*
X565654Y1143250D01*
X565676Y1143292D01*
X565705Y1143329D01*
X565726Y1143391D01*
X565757Y1143450D01*
X565765Y1143504D01*
X565777Y1143541D01*
X565776Y1143581D01*
X565784Y1143635D01*
X565784Y1147445D01*
X565773Y1147510D01*
X565771Y1147576D01*
X565753Y1147619D01*
X565745Y1147666D01*
X565711Y1147723D01*
X565686Y1147783D01*
X565655Y1147818D01*
X565630Y1147859D01*
X565579Y1147901D01*
X565535Y1147949D01*
X565493Y1147971D01*
X565456Y1148000D01*
X565394Y1148021D01*
X565335Y1148052D01*
X565281Y1148060D01*
X565244Y1148072D01*
X565204Y1148071D01*
X565150Y1148079D01*
X562610Y1148079D01*
X562545Y1148068D01*
X562479Y1148066D01*
X562436Y1148048D01*
X562389Y1148040D01*
X562332Y1148006D01*
X562272Y1147981D01*
X562237Y1147950D01*
X562196Y1147925D01*
X562155Y1147874D01*
X562106Y1147830D01*
X562084Y1147788D01*
X562055Y1147751D01*
X562034Y1147689D01*
X562003Y1147630D01*
X561995Y1147576D01*
X561983Y1147539D01*
X561983Y1147535D01*
X561983Y1147534D01*
X561984Y1147499D01*
X561976Y1147445D01*
X561976Y1143635D01*
X561987Y1143570D01*
X561989Y1143504D01*
X562007Y1143461D01*
X562015Y1143414D01*
X562049Y1143357D01*
X562074Y1143297D01*
X562105Y1143262D01*
X562130Y1143221D01*
X562181Y1143180D01*
X562225Y1143131D01*
X562267Y1143109D01*
X562304Y1143080D01*
X562366Y1143059D01*
X562425Y1143028D01*
X562479Y1143020D01*
X562516Y1143008D01*
X562556Y1143009D01*
X562610Y1143001D01*
X565150Y1143001D01*
X565215Y1143012D01*
G37*
G36*
X1057975Y1143012D02*
X1057975Y1143012D01*
X1058041Y1143014D01*
X1058084Y1143032D01*
X1058131Y1143040D01*
X1058188Y1143074D01*
X1058248Y1143099D01*
X1058283Y1143130D01*
X1058324Y1143155D01*
X1058366Y1143206D01*
X1058414Y1143250D01*
X1058436Y1143292D01*
X1058465Y1143329D01*
X1058486Y1143391D01*
X1058517Y1143450D01*
X1058525Y1143504D01*
X1058537Y1143541D01*
X1058536Y1143581D01*
X1058544Y1143635D01*
X1058544Y1147445D01*
X1058533Y1147510D01*
X1058531Y1147576D01*
X1058513Y1147619D01*
X1058505Y1147666D01*
X1058471Y1147723D01*
X1058446Y1147783D01*
X1058415Y1147818D01*
X1058390Y1147859D01*
X1058339Y1147901D01*
X1058295Y1147949D01*
X1058253Y1147971D01*
X1058216Y1148000D01*
X1058154Y1148021D01*
X1058095Y1148052D01*
X1058041Y1148060D01*
X1058004Y1148072D01*
X1057964Y1148071D01*
X1057910Y1148079D01*
X1055370Y1148079D01*
X1055305Y1148068D01*
X1055239Y1148066D01*
X1055196Y1148048D01*
X1055149Y1148040D01*
X1055092Y1148006D01*
X1055032Y1147981D01*
X1054997Y1147950D01*
X1054956Y1147925D01*
X1054915Y1147874D01*
X1054866Y1147830D01*
X1054844Y1147788D01*
X1054815Y1147751D01*
X1054794Y1147689D01*
X1054763Y1147630D01*
X1054755Y1147576D01*
X1054743Y1147539D01*
X1054743Y1147535D01*
X1054743Y1147534D01*
X1054744Y1147499D01*
X1054736Y1147445D01*
X1054736Y1143635D01*
X1054747Y1143570D01*
X1054749Y1143504D01*
X1054767Y1143461D01*
X1054775Y1143414D01*
X1054809Y1143357D01*
X1054834Y1143297D01*
X1054865Y1143262D01*
X1054890Y1143221D01*
X1054941Y1143180D01*
X1054985Y1143131D01*
X1055027Y1143109D01*
X1055064Y1143080D01*
X1055126Y1143059D01*
X1055185Y1143028D01*
X1055239Y1143020D01*
X1055276Y1143008D01*
X1055316Y1143009D01*
X1055370Y1143001D01*
X1057910Y1143001D01*
X1057975Y1143012D01*
G37*
G36*
X412815Y1143012D02*
X412815Y1143012D01*
X412881Y1143014D01*
X412924Y1143032D01*
X412971Y1143040D01*
X413028Y1143074D01*
X413088Y1143099D01*
X413123Y1143130D01*
X413164Y1143155D01*
X413206Y1143206D01*
X413254Y1143250D01*
X413276Y1143292D01*
X413305Y1143329D01*
X413326Y1143391D01*
X413357Y1143450D01*
X413365Y1143504D01*
X413377Y1143541D01*
X413376Y1143581D01*
X413384Y1143635D01*
X413384Y1147445D01*
X413373Y1147510D01*
X413371Y1147576D01*
X413353Y1147619D01*
X413345Y1147666D01*
X413311Y1147723D01*
X413286Y1147783D01*
X413255Y1147818D01*
X413230Y1147859D01*
X413179Y1147901D01*
X413135Y1147949D01*
X413093Y1147971D01*
X413056Y1148000D01*
X412994Y1148021D01*
X412935Y1148052D01*
X412881Y1148060D01*
X412844Y1148072D01*
X412804Y1148071D01*
X412750Y1148079D01*
X410210Y1148079D01*
X410145Y1148068D01*
X410079Y1148066D01*
X410036Y1148048D01*
X409989Y1148040D01*
X409932Y1148006D01*
X409872Y1147981D01*
X409837Y1147950D01*
X409796Y1147925D01*
X409755Y1147874D01*
X409706Y1147830D01*
X409684Y1147788D01*
X409655Y1147751D01*
X409634Y1147689D01*
X409603Y1147630D01*
X409595Y1147576D01*
X409583Y1147539D01*
X409583Y1147535D01*
X409583Y1147534D01*
X409584Y1147499D01*
X409576Y1147445D01*
X409576Y1143635D01*
X409587Y1143570D01*
X409589Y1143504D01*
X409607Y1143461D01*
X409615Y1143414D01*
X409649Y1143357D01*
X409674Y1143297D01*
X409705Y1143262D01*
X409730Y1143221D01*
X409781Y1143180D01*
X409825Y1143131D01*
X409867Y1143109D01*
X409904Y1143080D01*
X409966Y1143059D01*
X410025Y1143028D01*
X410079Y1143020D01*
X410116Y1143008D01*
X410156Y1143009D01*
X410210Y1143001D01*
X412750Y1143001D01*
X412815Y1143012D01*
G37*
G36*
X242635Y1143012D02*
X242635Y1143012D01*
X242701Y1143014D01*
X242744Y1143032D01*
X242791Y1143040D01*
X242848Y1143074D01*
X242908Y1143099D01*
X242943Y1143130D01*
X242984Y1143155D01*
X243026Y1143206D01*
X243074Y1143250D01*
X243096Y1143292D01*
X243125Y1143329D01*
X243146Y1143391D01*
X243177Y1143450D01*
X243185Y1143504D01*
X243197Y1143541D01*
X243196Y1143581D01*
X243204Y1143635D01*
X243204Y1147445D01*
X243193Y1147510D01*
X243191Y1147576D01*
X243173Y1147619D01*
X243165Y1147666D01*
X243131Y1147723D01*
X243106Y1147783D01*
X243075Y1147818D01*
X243050Y1147859D01*
X242999Y1147901D01*
X242955Y1147949D01*
X242913Y1147971D01*
X242876Y1148000D01*
X242814Y1148021D01*
X242755Y1148052D01*
X242701Y1148060D01*
X242664Y1148072D01*
X242624Y1148071D01*
X242570Y1148079D01*
X240030Y1148079D01*
X239965Y1148068D01*
X239899Y1148066D01*
X239856Y1148048D01*
X239809Y1148040D01*
X239752Y1148006D01*
X239692Y1147981D01*
X239657Y1147950D01*
X239616Y1147925D01*
X239575Y1147874D01*
X239526Y1147830D01*
X239504Y1147788D01*
X239475Y1147751D01*
X239454Y1147689D01*
X239423Y1147630D01*
X239415Y1147576D01*
X239403Y1147539D01*
X239403Y1147535D01*
X239403Y1147534D01*
X239404Y1147499D01*
X239396Y1147445D01*
X239396Y1143635D01*
X239407Y1143570D01*
X239409Y1143504D01*
X239427Y1143461D01*
X239435Y1143414D01*
X239469Y1143357D01*
X239494Y1143297D01*
X239525Y1143262D01*
X239550Y1143221D01*
X239601Y1143180D01*
X239645Y1143131D01*
X239687Y1143109D01*
X239724Y1143080D01*
X239786Y1143059D01*
X239845Y1143028D01*
X239899Y1143020D01*
X239936Y1143008D01*
X239976Y1143009D01*
X240030Y1143001D01*
X242570Y1143001D01*
X242635Y1143012D01*
G37*
G36*
X90235Y1143012D02*
X90235Y1143012D01*
X90301Y1143014D01*
X90344Y1143032D01*
X90391Y1143040D01*
X90448Y1143074D01*
X90508Y1143099D01*
X90543Y1143130D01*
X90584Y1143155D01*
X90626Y1143206D01*
X90674Y1143250D01*
X90696Y1143292D01*
X90725Y1143329D01*
X90746Y1143391D01*
X90777Y1143450D01*
X90785Y1143504D01*
X90797Y1143541D01*
X90796Y1143581D01*
X90804Y1143635D01*
X90804Y1147445D01*
X90793Y1147510D01*
X90791Y1147576D01*
X90773Y1147619D01*
X90765Y1147666D01*
X90731Y1147723D01*
X90706Y1147783D01*
X90675Y1147818D01*
X90650Y1147859D01*
X90599Y1147901D01*
X90555Y1147949D01*
X90513Y1147971D01*
X90476Y1148000D01*
X90414Y1148021D01*
X90355Y1148052D01*
X90301Y1148060D01*
X90264Y1148072D01*
X90224Y1148071D01*
X90170Y1148079D01*
X87630Y1148079D01*
X87565Y1148068D01*
X87499Y1148066D01*
X87456Y1148048D01*
X87409Y1148040D01*
X87352Y1148006D01*
X87292Y1147981D01*
X87257Y1147950D01*
X87216Y1147925D01*
X87175Y1147874D01*
X87126Y1147830D01*
X87104Y1147788D01*
X87075Y1147751D01*
X87054Y1147689D01*
X87023Y1147630D01*
X87015Y1147576D01*
X87003Y1147539D01*
X87003Y1147535D01*
X87003Y1147534D01*
X87004Y1147499D01*
X86996Y1147445D01*
X86996Y1143635D01*
X87007Y1143570D01*
X87009Y1143504D01*
X87027Y1143461D01*
X87035Y1143414D01*
X87069Y1143357D01*
X87094Y1143297D01*
X87125Y1143262D01*
X87150Y1143221D01*
X87201Y1143180D01*
X87245Y1143131D01*
X87287Y1143109D01*
X87324Y1143080D01*
X87386Y1143059D01*
X87445Y1143028D01*
X87499Y1143020D01*
X87536Y1143008D01*
X87576Y1143009D01*
X87630Y1143001D01*
X90170Y1143001D01*
X90235Y1143012D01*
G37*
G36*
X887795Y1143012D02*
X887795Y1143012D01*
X887861Y1143014D01*
X887904Y1143032D01*
X887951Y1143040D01*
X888008Y1143074D01*
X888068Y1143099D01*
X888103Y1143130D01*
X888144Y1143155D01*
X888186Y1143206D01*
X888234Y1143250D01*
X888256Y1143292D01*
X888285Y1143329D01*
X888306Y1143391D01*
X888337Y1143450D01*
X888345Y1143504D01*
X888357Y1143541D01*
X888356Y1143581D01*
X888364Y1143635D01*
X888364Y1147445D01*
X888353Y1147510D01*
X888351Y1147576D01*
X888333Y1147619D01*
X888325Y1147666D01*
X888291Y1147723D01*
X888266Y1147783D01*
X888235Y1147818D01*
X888210Y1147859D01*
X888159Y1147901D01*
X888115Y1147949D01*
X888073Y1147971D01*
X888036Y1148000D01*
X887974Y1148021D01*
X887915Y1148052D01*
X887861Y1148060D01*
X887824Y1148072D01*
X887784Y1148071D01*
X887730Y1148079D01*
X885190Y1148079D01*
X885125Y1148068D01*
X885059Y1148066D01*
X885016Y1148048D01*
X884969Y1148040D01*
X884912Y1148006D01*
X884852Y1147981D01*
X884817Y1147950D01*
X884776Y1147925D01*
X884735Y1147874D01*
X884686Y1147830D01*
X884664Y1147788D01*
X884635Y1147751D01*
X884614Y1147689D01*
X884583Y1147630D01*
X884575Y1147576D01*
X884563Y1147539D01*
X884563Y1147535D01*
X884563Y1147534D01*
X884564Y1147499D01*
X884556Y1147445D01*
X884556Y1143635D01*
X884567Y1143570D01*
X884569Y1143504D01*
X884587Y1143461D01*
X884595Y1143414D01*
X884629Y1143357D01*
X884654Y1143297D01*
X884685Y1143262D01*
X884710Y1143221D01*
X884761Y1143180D01*
X884805Y1143131D01*
X884847Y1143109D01*
X884884Y1143080D01*
X884946Y1143059D01*
X885005Y1143028D01*
X885059Y1143020D01*
X885096Y1143008D01*
X885136Y1143009D01*
X885190Y1143001D01*
X887730Y1143001D01*
X887795Y1143012D01*
G37*
G36*
X412815Y175272D02*
X412815Y175272D01*
X412881Y175274D01*
X412924Y175292D01*
X412971Y175300D01*
X413028Y175334D01*
X413088Y175359D01*
X413123Y175390D01*
X413164Y175415D01*
X413206Y175466D01*
X413254Y175510D01*
X413276Y175552D01*
X413305Y175589D01*
X413326Y175651D01*
X413357Y175710D01*
X413365Y175764D01*
X413377Y175801D01*
X413376Y175841D01*
X413384Y175895D01*
X413384Y179705D01*
X413373Y179770D01*
X413371Y179836D01*
X413353Y179879D01*
X413345Y179926D01*
X413311Y179983D01*
X413286Y180043D01*
X413255Y180078D01*
X413230Y180119D01*
X413179Y180161D01*
X413135Y180209D01*
X413093Y180231D01*
X413056Y180260D01*
X412994Y180281D01*
X412935Y180312D01*
X412881Y180320D01*
X412844Y180332D01*
X412804Y180331D01*
X412750Y180339D01*
X410210Y180339D01*
X410145Y180328D01*
X410079Y180326D01*
X410036Y180308D01*
X409989Y180300D01*
X409932Y180266D01*
X409872Y180241D01*
X409837Y180210D01*
X409796Y180185D01*
X409755Y180134D01*
X409706Y180090D01*
X409684Y180048D01*
X409655Y180011D01*
X409634Y179949D01*
X409603Y179890D01*
X409595Y179836D01*
X409583Y179799D01*
X409583Y179795D01*
X409583Y179794D01*
X409584Y179759D01*
X409576Y179705D01*
X409576Y175895D01*
X409587Y175830D01*
X409589Y175764D01*
X409607Y175721D01*
X409615Y175674D01*
X409649Y175617D01*
X409674Y175557D01*
X409705Y175522D01*
X409730Y175481D01*
X409781Y175440D01*
X409825Y175391D01*
X409867Y175369D01*
X409904Y175340D01*
X409966Y175319D01*
X410025Y175288D01*
X410079Y175280D01*
X410116Y175268D01*
X410156Y175269D01*
X410210Y175261D01*
X412750Y175261D01*
X412815Y175272D01*
G37*
G36*
X90235Y175272D02*
X90235Y175272D01*
X90301Y175274D01*
X90344Y175292D01*
X90391Y175300D01*
X90448Y175334D01*
X90508Y175359D01*
X90543Y175390D01*
X90584Y175415D01*
X90626Y175466D01*
X90674Y175510D01*
X90696Y175552D01*
X90725Y175589D01*
X90746Y175651D01*
X90777Y175710D01*
X90785Y175764D01*
X90797Y175801D01*
X90796Y175841D01*
X90804Y175895D01*
X90804Y179705D01*
X90793Y179770D01*
X90791Y179836D01*
X90773Y179879D01*
X90765Y179926D01*
X90731Y179983D01*
X90706Y180043D01*
X90675Y180078D01*
X90650Y180119D01*
X90599Y180161D01*
X90555Y180209D01*
X90513Y180231D01*
X90476Y180260D01*
X90414Y180281D01*
X90355Y180312D01*
X90301Y180320D01*
X90264Y180332D01*
X90224Y180331D01*
X90170Y180339D01*
X87630Y180339D01*
X87565Y180328D01*
X87499Y180326D01*
X87456Y180308D01*
X87409Y180300D01*
X87352Y180266D01*
X87292Y180241D01*
X87257Y180210D01*
X87216Y180185D01*
X87175Y180134D01*
X87126Y180090D01*
X87104Y180048D01*
X87075Y180011D01*
X87054Y179949D01*
X87023Y179890D01*
X87015Y179836D01*
X87003Y179799D01*
X87003Y179795D01*
X87003Y179794D01*
X87004Y179759D01*
X86996Y179705D01*
X86996Y175895D01*
X87007Y175830D01*
X87009Y175764D01*
X87027Y175721D01*
X87035Y175674D01*
X87069Y175617D01*
X87094Y175557D01*
X87125Y175522D01*
X87150Y175481D01*
X87201Y175440D01*
X87245Y175391D01*
X87287Y175369D01*
X87324Y175340D01*
X87386Y175319D01*
X87445Y175288D01*
X87499Y175280D01*
X87536Y175268D01*
X87576Y175269D01*
X87630Y175261D01*
X90170Y175261D01*
X90235Y175272D01*
G37*
G36*
X242635Y175272D02*
X242635Y175272D01*
X242701Y175274D01*
X242744Y175292D01*
X242791Y175300D01*
X242848Y175334D01*
X242908Y175359D01*
X242943Y175390D01*
X242984Y175415D01*
X243026Y175466D01*
X243074Y175510D01*
X243096Y175552D01*
X243125Y175589D01*
X243146Y175651D01*
X243177Y175710D01*
X243185Y175764D01*
X243197Y175801D01*
X243196Y175841D01*
X243204Y175895D01*
X243204Y179705D01*
X243193Y179770D01*
X243191Y179836D01*
X243173Y179879D01*
X243165Y179926D01*
X243131Y179983D01*
X243106Y180043D01*
X243075Y180078D01*
X243050Y180119D01*
X242999Y180161D01*
X242955Y180209D01*
X242913Y180231D01*
X242876Y180260D01*
X242814Y180281D01*
X242755Y180312D01*
X242701Y180320D01*
X242664Y180332D01*
X242624Y180331D01*
X242570Y180339D01*
X240030Y180339D01*
X239965Y180328D01*
X239899Y180326D01*
X239856Y180308D01*
X239809Y180300D01*
X239752Y180266D01*
X239692Y180241D01*
X239657Y180210D01*
X239616Y180185D01*
X239575Y180134D01*
X239526Y180090D01*
X239504Y180048D01*
X239475Y180011D01*
X239454Y179949D01*
X239423Y179890D01*
X239415Y179836D01*
X239403Y179799D01*
X239403Y179795D01*
X239403Y179794D01*
X239404Y179759D01*
X239396Y179705D01*
X239396Y175895D01*
X239407Y175830D01*
X239409Y175764D01*
X239427Y175721D01*
X239435Y175674D01*
X239469Y175617D01*
X239494Y175557D01*
X239525Y175522D01*
X239550Y175481D01*
X239601Y175440D01*
X239645Y175391D01*
X239687Y175369D01*
X239724Y175340D01*
X239786Y175319D01*
X239845Y175288D01*
X239899Y175280D01*
X239936Y175268D01*
X239976Y175269D01*
X240030Y175261D01*
X242570Y175261D01*
X242635Y175272D01*
G37*
G36*
X735395Y175272D02*
X735395Y175272D01*
X735461Y175274D01*
X735504Y175292D01*
X735551Y175300D01*
X735608Y175334D01*
X735668Y175359D01*
X735703Y175390D01*
X735744Y175415D01*
X735786Y175466D01*
X735834Y175510D01*
X735856Y175552D01*
X735885Y175589D01*
X735906Y175651D01*
X735937Y175710D01*
X735945Y175764D01*
X735957Y175801D01*
X735956Y175841D01*
X735964Y175895D01*
X735964Y179705D01*
X735953Y179770D01*
X735951Y179836D01*
X735933Y179879D01*
X735925Y179926D01*
X735891Y179983D01*
X735866Y180043D01*
X735835Y180078D01*
X735810Y180119D01*
X735759Y180161D01*
X735715Y180209D01*
X735673Y180231D01*
X735636Y180260D01*
X735574Y180281D01*
X735515Y180312D01*
X735461Y180320D01*
X735424Y180332D01*
X735384Y180331D01*
X735330Y180339D01*
X732790Y180339D01*
X732725Y180328D01*
X732659Y180326D01*
X732616Y180308D01*
X732569Y180300D01*
X732512Y180266D01*
X732452Y180241D01*
X732417Y180210D01*
X732376Y180185D01*
X732335Y180134D01*
X732286Y180090D01*
X732264Y180048D01*
X732235Y180011D01*
X732214Y179949D01*
X732183Y179890D01*
X732175Y179836D01*
X732163Y179799D01*
X732163Y179795D01*
X732163Y179794D01*
X732164Y179759D01*
X732156Y179705D01*
X732156Y175895D01*
X732167Y175830D01*
X732169Y175764D01*
X732187Y175721D01*
X732195Y175674D01*
X732229Y175617D01*
X732254Y175557D01*
X732285Y175522D01*
X732310Y175481D01*
X732361Y175440D01*
X732405Y175391D01*
X732447Y175369D01*
X732484Y175340D01*
X732546Y175319D01*
X732605Y175288D01*
X732659Y175280D01*
X732696Y175268D01*
X732736Y175269D01*
X732790Y175261D01*
X735330Y175261D01*
X735395Y175272D01*
G37*
G36*
X1261175Y889012D02*
X1261175Y889012D01*
X1261241Y889014D01*
X1261284Y889032D01*
X1261331Y889040D01*
X1261388Y889074D01*
X1261448Y889099D01*
X1261483Y889130D01*
X1261524Y889155D01*
X1261566Y889206D01*
X1261614Y889250D01*
X1261636Y889292D01*
X1261665Y889329D01*
X1261686Y889391D01*
X1261717Y889450D01*
X1261725Y889504D01*
X1261737Y889541D01*
X1261736Y889581D01*
X1261744Y889635D01*
X1261744Y893445D01*
X1261733Y893510D01*
X1261731Y893576D01*
X1261713Y893619D01*
X1261705Y893666D01*
X1261671Y893723D01*
X1261646Y893783D01*
X1261615Y893818D01*
X1261590Y893859D01*
X1261539Y893901D01*
X1261495Y893949D01*
X1261453Y893971D01*
X1261416Y894000D01*
X1261354Y894021D01*
X1261295Y894052D01*
X1261241Y894060D01*
X1261204Y894072D01*
X1261164Y894071D01*
X1261110Y894079D01*
X1258570Y894079D01*
X1258505Y894068D01*
X1258439Y894066D01*
X1258396Y894048D01*
X1258349Y894040D01*
X1258292Y894006D01*
X1258232Y893981D01*
X1258197Y893950D01*
X1258156Y893925D01*
X1258115Y893874D01*
X1258066Y893830D01*
X1258044Y893788D01*
X1258015Y893751D01*
X1257994Y893689D01*
X1257963Y893630D01*
X1257955Y893576D01*
X1257943Y893539D01*
X1257943Y893535D01*
X1257943Y893534D01*
X1257944Y893499D01*
X1257936Y893445D01*
X1257936Y889635D01*
X1257947Y889570D01*
X1257949Y889504D01*
X1257967Y889461D01*
X1257975Y889414D01*
X1258009Y889357D01*
X1258034Y889297D01*
X1258065Y889262D01*
X1258090Y889221D01*
X1258141Y889180D01*
X1258185Y889131D01*
X1258227Y889109D01*
X1258264Y889080D01*
X1258326Y889059D01*
X1258385Y889028D01*
X1258439Y889020D01*
X1258476Y889008D01*
X1258516Y889009D01*
X1258570Y889001D01*
X1261110Y889001D01*
X1261175Y889012D01*
G37*
G36*
X293435Y889012D02*
X293435Y889012D01*
X293501Y889014D01*
X293544Y889032D01*
X293591Y889040D01*
X293648Y889074D01*
X293708Y889099D01*
X293743Y889130D01*
X293784Y889155D01*
X293826Y889206D01*
X293874Y889250D01*
X293896Y889292D01*
X293925Y889329D01*
X293946Y889391D01*
X293977Y889450D01*
X293985Y889504D01*
X293997Y889541D01*
X293996Y889581D01*
X294004Y889635D01*
X294004Y893445D01*
X293993Y893510D01*
X293991Y893576D01*
X293973Y893619D01*
X293965Y893666D01*
X293931Y893723D01*
X293906Y893783D01*
X293875Y893818D01*
X293850Y893859D01*
X293799Y893901D01*
X293755Y893949D01*
X293713Y893971D01*
X293676Y894000D01*
X293614Y894021D01*
X293555Y894052D01*
X293501Y894060D01*
X293464Y894072D01*
X293424Y894071D01*
X293370Y894079D01*
X290830Y894079D01*
X290765Y894068D01*
X290699Y894066D01*
X290656Y894048D01*
X290609Y894040D01*
X290552Y894006D01*
X290492Y893981D01*
X290457Y893950D01*
X290416Y893925D01*
X290375Y893874D01*
X290326Y893830D01*
X290304Y893788D01*
X290275Y893751D01*
X290254Y893689D01*
X290223Y893630D01*
X290215Y893576D01*
X290203Y893539D01*
X290203Y893535D01*
X290203Y893534D01*
X290204Y893499D01*
X290196Y893445D01*
X290196Y889635D01*
X290207Y889570D01*
X290209Y889504D01*
X290227Y889461D01*
X290235Y889414D01*
X290269Y889357D01*
X290294Y889297D01*
X290325Y889262D01*
X290350Y889221D01*
X290401Y889180D01*
X290445Y889131D01*
X290487Y889109D01*
X290524Y889080D01*
X290586Y889059D01*
X290645Y889028D01*
X290699Y889020D01*
X290736Y889008D01*
X290776Y889009D01*
X290830Y889001D01*
X293370Y889001D01*
X293435Y889012D01*
G37*
G36*
X938595Y889012D02*
X938595Y889012D01*
X938661Y889014D01*
X938704Y889032D01*
X938751Y889040D01*
X938808Y889074D01*
X938868Y889099D01*
X938903Y889130D01*
X938944Y889155D01*
X938986Y889206D01*
X939034Y889250D01*
X939056Y889292D01*
X939085Y889329D01*
X939106Y889391D01*
X939137Y889450D01*
X939145Y889504D01*
X939157Y889541D01*
X939156Y889581D01*
X939164Y889635D01*
X939164Y893445D01*
X939153Y893510D01*
X939151Y893576D01*
X939133Y893619D01*
X939125Y893666D01*
X939091Y893723D01*
X939066Y893783D01*
X939035Y893818D01*
X939010Y893859D01*
X938959Y893901D01*
X938915Y893949D01*
X938873Y893971D01*
X938836Y894000D01*
X938774Y894021D01*
X938715Y894052D01*
X938661Y894060D01*
X938624Y894072D01*
X938584Y894071D01*
X938530Y894079D01*
X935990Y894079D01*
X935925Y894068D01*
X935859Y894066D01*
X935816Y894048D01*
X935769Y894040D01*
X935712Y894006D01*
X935652Y893981D01*
X935617Y893950D01*
X935576Y893925D01*
X935535Y893874D01*
X935486Y893830D01*
X935464Y893788D01*
X935435Y893751D01*
X935414Y893689D01*
X935383Y893630D01*
X935375Y893576D01*
X935363Y893539D01*
X935363Y893535D01*
X935363Y893534D01*
X935364Y893499D01*
X935356Y893445D01*
X935356Y889635D01*
X935367Y889570D01*
X935369Y889504D01*
X935387Y889461D01*
X935395Y889414D01*
X935429Y889357D01*
X935454Y889297D01*
X935485Y889262D01*
X935510Y889221D01*
X935561Y889180D01*
X935605Y889131D01*
X935647Y889109D01*
X935684Y889080D01*
X935746Y889059D01*
X935805Y889028D01*
X935859Y889020D01*
X935896Y889008D01*
X935936Y889009D01*
X935990Y889001D01*
X938530Y889001D01*
X938595Y889012D01*
G37*
G36*
X616015Y889012D02*
X616015Y889012D01*
X616081Y889014D01*
X616124Y889032D01*
X616171Y889040D01*
X616228Y889074D01*
X616288Y889099D01*
X616323Y889130D01*
X616364Y889155D01*
X616406Y889206D01*
X616454Y889250D01*
X616476Y889292D01*
X616505Y889329D01*
X616526Y889391D01*
X616557Y889450D01*
X616565Y889504D01*
X616577Y889541D01*
X616576Y889581D01*
X616584Y889635D01*
X616584Y893445D01*
X616573Y893510D01*
X616571Y893576D01*
X616553Y893619D01*
X616545Y893666D01*
X616511Y893723D01*
X616486Y893783D01*
X616455Y893818D01*
X616430Y893859D01*
X616379Y893901D01*
X616335Y893949D01*
X616293Y893971D01*
X616256Y894000D01*
X616194Y894021D01*
X616135Y894052D01*
X616081Y894060D01*
X616044Y894072D01*
X616004Y894071D01*
X615950Y894079D01*
X613410Y894079D01*
X613345Y894068D01*
X613279Y894066D01*
X613236Y894048D01*
X613189Y894040D01*
X613132Y894006D01*
X613072Y893981D01*
X613037Y893950D01*
X612996Y893925D01*
X612955Y893874D01*
X612906Y893830D01*
X612884Y893788D01*
X612855Y893751D01*
X612834Y893689D01*
X612803Y893630D01*
X612795Y893576D01*
X612783Y893539D01*
X612783Y893535D01*
X612783Y893534D01*
X612784Y893499D01*
X612776Y893445D01*
X612776Y889635D01*
X612787Y889570D01*
X612789Y889504D01*
X612807Y889461D01*
X612815Y889414D01*
X612849Y889357D01*
X612874Y889297D01*
X612905Y889262D01*
X612930Y889221D01*
X612981Y889180D01*
X613025Y889131D01*
X613067Y889109D01*
X613104Y889080D01*
X613166Y889059D01*
X613225Y889028D01*
X613279Y889020D01*
X613316Y889008D01*
X613356Y889009D01*
X613410Y889001D01*
X615950Y889001D01*
X616015Y889012D01*
G37*
G36*
X616015Y878852D02*
X616015Y878852D01*
X616081Y878854D01*
X616124Y878872D01*
X616171Y878880D01*
X616228Y878914D01*
X616288Y878939D01*
X616323Y878970D01*
X616364Y878995D01*
X616406Y879046D01*
X616454Y879090D01*
X616476Y879132D01*
X616505Y879169D01*
X616526Y879231D01*
X616557Y879290D01*
X616565Y879344D01*
X616577Y879381D01*
X616576Y879421D01*
X616584Y879475D01*
X616584Y883285D01*
X616573Y883350D01*
X616571Y883416D01*
X616553Y883459D01*
X616545Y883506D01*
X616511Y883563D01*
X616486Y883623D01*
X616455Y883658D01*
X616430Y883699D01*
X616379Y883741D01*
X616335Y883789D01*
X616293Y883811D01*
X616256Y883840D01*
X616194Y883861D01*
X616135Y883892D01*
X616081Y883900D01*
X616044Y883912D01*
X616004Y883911D01*
X615950Y883919D01*
X613410Y883919D01*
X613345Y883908D01*
X613279Y883906D01*
X613236Y883888D01*
X613189Y883880D01*
X613132Y883846D01*
X613072Y883821D01*
X613037Y883790D01*
X612996Y883765D01*
X612955Y883714D01*
X612906Y883670D01*
X612884Y883628D01*
X612855Y883591D01*
X612834Y883529D01*
X612803Y883470D01*
X612795Y883416D01*
X612783Y883379D01*
X612783Y883375D01*
X612783Y883374D01*
X612784Y883339D01*
X612776Y883285D01*
X612776Y879475D01*
X612787Y879410D01*
X612789Y879344D01*
X612807Y879301D01*
X612815Y879254D01*
X612849Y879197D01*
X612874Y879137D01*
X612905Y879102D01*
X612930Y879061D01*
X612981Y879020D01*
X613025Y878971D01*
X613067Y878949D01*
X613104Y878920D01*
X613166Y878899D01*
X613225Y878868D01*
X613279Y878860D01*
X613316Y878848D01*
X613356Y878849D01*
X613410Y878841D01*
X615950Y878841D01*
X616015Y878852D01*
G37*
G36*
X1261175Y878852D02*
X1261175Y878852D01*
X1261241Y878854D01*
X1261284Y878872D01*
X1261331Y878880D01*
X1261388Y878914D01*
X1261448Y878939D01*
X1261483Y878970D01*
X1261524Y878995D01*
X1261566Y879046D01*
X1261614Y879090D01*
X1261636Y879132D01*
X1261665Y879169D01*
X1261686Y879231D01*
X1261717Y879290D01*
X1261725Y879344D01*
X1261737Y879381D01*
X1261736Y879421D01*
X1261744Y879475D01*
X1261744Y883285D01*
X1261733Y883350D01*
X1261731Y883416D01*
X1261713Y883459D01*
X1261705Y883506D01*
X1261671Y883563D01*
X1261646Y883623D01*
X1261615Y883658D01*
X1261590Y883699D01*
X1261539Y883741D01*
X1261495Y883789D01*
X1261453Y883811D01*
X1261416Y883840D01*
X1261354Y883861D01*
X1261295Y883892D01*
X1261241Y883900D01*
X1261204Y883912D01*
X1261164Y883911D01*
X1261110Y883919D01*
X1258570Y883919D01*
X1258505Y883908D01*
X1258439Y883906D01*
X1258396Y883888D01*
X1258349Y883880D01*
X1258292Y883846D01*
X1258232Y883821D01*
X1258197Y883790D01*
X1258156Y883765D01*
X1258115Y883714D01*
X1258066Y883670D01*
X1258044Y883628D01*
X1258015Y883591D01*
X1257994Y883529D01*
X1257963Y883470D01*
X1257955Y883416D01*
X1257943Y883379D01*
X1257943Y883375D01*
X1257943Y883374D01*
X1257944Y883339D01*
X1257936Y883285D01*
X1257936Y879475D01*
X1257947Y879410D01*
X1257949Y879344D01*
X1257967Y879301D01*
X1257975Y879254D01*
X1258009Y879197D01*
X1258034Y879137D01*
X1258065Y879102D01*
X1258090Y879061D01*
X1258141Y879020D01*
X1258185Y878971D01*
X1258227Y878949D01*
X1258264Y878920D01*
X1258326Y878899D01*
X1258385Y878868D01*
X1258439Y878860D01*
X1258476Y878848D01*
X1258516Y878849D01*
X1258570Y878841D01*
X1261110Y878841D01*
X1261175Y878852D01*
G37*
G36*
X293435Y878852D02*
X293435Y878852D01*
X293501Y878854D01*
X293544Y878872D01*
X293591Y878880D01*
X293648Y878914D01*
X293708Y878939D01*
X293743Y878970D01*
X293784Y878995D01*
X293826Y879046D01*
X293874Y879090D01*
X293896Y879132D01*
X293925Y879169D01*
X293946Y879231D01*
X293977Y879290D01*
X293985Y879344D01*
X293997Y879381D01*
X293996Y879421D01*
X294004Y879475D01*
X294004Y883285D01*
X293993Y883350D01*
X293991Y883416D01*
X293973Y883459D01*
X293965Y883506D01*
X293931Y883563D01*
X293906Y883623D01*
X293875Y883658D01*
X293850Y883699D01*
X293799Y883741D01*
X293755Y883789D01*
X293713Y883811D01*
X293676Y883840D01*
X293614Y883861D01*
X293555Y883892D01*
X293501Y883900D01*
X293464Y883912D01*
X293424Y883911D01*
X293370Y883919D01*
X290830Y883919D01*
X290765Y883908D01*
X290699Y883906D01*
X290656Y883888D01*
X290609Y883880D01*
X290552Y883846D01*
X290492Y883821D01*
X290457Y883790D01*
X290416Y883765D01*
X290375Y883714D01*
X290326Y883670D01*
X290304Y883628D01*
X290275Y883591D01*
X290254Y883529D01*
X290223Y883470D01*
X290215Y883416D01*
X290203Y883379D01*
X290203Y883375D01*
X290203Y883374D01*
X290204Y883339D01*
X290196Y883285D01*
X290196Y879475D01*
X290207Y879410D01*
X290209Y879344D01*
X290227Y879301D01*
X290235Y879254D01*
X290269Y879197D01*
X290294Y879137D01*
X290325Y879102D01*
X290350Y879061D01*
X290401Y879020D01*
X290445Y878971D01*
X290487Y878949D01*
X290524Y878920D01*
X290586Y878899D01*
X290645Y878868D01*
X290699Y878860D01*
X290736Y878848D01*
X290776Y878849D01*
X290830Y878841D01*
X293370Y878841D01*
X293435Y878852D01*
G37*
G36*
X938595Y878852D02*
X938595Y878852D01*
X938661Y878854D01*
X938704Y878872D01*
X938751Y878880D01*
X938808Y878914D01*
X938868Y878939D01*
X938903Y878970D01*
X938944Y878995D01*
X938986Y879046D01*
X939034Y879090D01*
X939056Y879132D01*
X939085Y879169D01*
X939106Y879231D01*
X939137Y879290D01*
X939145Y879344D01*
X939157Y879381D01*
X939156Y879421D01*
X939164Y879475D01*
X939164Y883285D01*
X939153Y883350D01*
X939151Y883416D01*
X939133Y883459D01*
X939125Y883506D01*
X939091Y883563D01*
X939066Y883623D01*
X939035Y883658D01*
X939010Y883699D01*
X938959Y883741D01*
X938915Y883789D01*
X938873Y883811D01*
X938836Y883840D01*
X938774Y883861D01*
X938715Y883892D01*
X938661Y883900D01*
X938624Y883912D01*
X938584Y883911D01*
X938530Y883919D01*
X935990Y883919D01*
X935925Y883908D01*
X935859Y883906D01*
X935816Y883888D01*
X935769Y883880D01*
X935712Y883846D01*
X935652Y883821D01*
X935617Y883790D01*
X935576Y883765D01*
X935535Y883714D01*
X935486Y883670D01*
X935464Y883628D01*
X935435Y883591D01*
X935414Y883529D01*
X935383Y883470D01*
X935375Y883416D01*
X935363Y883379D01*
X935363Y883375D01*
X935363Y883374D01*
X935364Y883339D01*
X935356Y883285D01*
X935356Y879475D01*
X935367Y879410D01*
X935369Y879344D01*
X935387Y879301D01*
X935395Y879254D01*
X935429Y879197D01*
X935454Y879137D01*
X935485Y879102D01*
X935510Y879061D01*
X935561Y879020D01*
X935605Y878971D01*
X935647Y878949D01*
X935684Y878920D01*
X935746Y878899D01*
X935805Y878868D01*
X935859Y878860D01*
X935896Y878848D01*
X935936Y878849D01*
X935990Y878841D01*
X938530Y878841D01*
X938595Y878852D01*
G37*
G36*
X1184975Y845832D02*
X1184975Y845832D01*
X1185041Y845834D01*
X1185084Y845852D01*
X1185131Y845860D01*
X1185188Y845894D01*
X1185248Y845919D01*
X1185283Y845950D01*
X1185324Y845975D01*
X1185366Y846026D01*
X1185414Y846070D01*
X1185436Y846112D01*
X1185465Y846149D01*
X1185486Y846211D01*
X1185517Y846270D01*
X1185525Y846324D01*
X1185537Y846361D01*
X1185536Y846401D01*
X1185544Y846455D01*
X1185544Y850265D01*
X1185533Y850330D01*
X1185531Y850396D01*
X1185513Y850439D01*
X1185505Y850486D01*
X1185471Y850543D01*
X1185446Y850603D01*
X1185415Y850638D01*
X1185390Y850679D01*
X1185339Y850721D01*
X1185295Y850769D01*
X1185253Y850791D01*
X1185216Y850820D01*
X1185154Y850841D01*
X1185095Y850872D01*
X1185041Y850880D01*
X1185004Y850892D01*
X1184964Y850891D01*
X1184910Y850899D01*
X1182370Y850899D01*
X1182305Y850888D01*
X1182239Y850886D01*
X1182196Y850868D01*
X1182149Y850860D01*
X1182092Y850826D01*
X1182032Y850801D01*
X1181997Y850770D01*
X1181956Y850745D01*
X1181915Y850694D01*
X1181866Y850650D01*
X1181844Y850608D01*
X1181815Y850571D01*
X1181794Y850509D01*
X1181763Y850450D01*
X1181755Y850396D01*
X1181743Y850359D01*
X1181743Y850355D01*
X1181743Y850354D01*
X1181744Y850319D01*
X1181736Y850265D01*
X1181736Y846455D01*
X1181747Y846390D01*
X1181749Y846324D01*
X1181767Y846281D01*
X1181775Y846234D01*
X1181809Y846177D01*
X1181834Y846117D01*
X1181865Y846082D01*
X1181890Y846041D01*
X1181941Y846000D01*
X1181985Y845951D01*
X1182027Y845929D01*
X1182064Y845900D01*
X1182126Y845879D01*
X1182185Y845848D01*
X1182239Y845840D01*
X1182276Y845828D01*
X1182316Y845829D01*
X1182370Y845821D01*
X1184910Y845821D01*
X1184975Y845832D01*
G37*
G36*
X217235Y845832D02*
X217235Y845832D01*
X217301Y845834D01*
X217344Y845852D01*
X217391Y845860D01*
X217448Y845894D01*
X217508Y845919D01*
X217543Y845950D01*
X217584Y845975D01*
X217626Y846026D01*
X217674Y846070D01*
X217696Y846112D01*
X217725Y846149D01*
X217746Y846211D01*
X217777Y846270D01*
X217785Y846324D01*
X217797Y846361D01*
X217796Y846401D01*
X217804Y846455D01*
X217804Y850265D01*
X217793Y850330D01*
X217791Y850396D01*
X217773Y850439D01*
X217765Y850486D01*
X217731Y850543D01*
X217706Y850603D01*
X217675Y850638D01*
X217650Y850679D01*
X217599Y850721D01*
X217555Y850769D01*
X217513Y850791D01*
X217476Y850820D01*
X217414Y850841D01*
X217355Y850872D01*
X217301Y850880D01*
X217264Y850892D01*
X217224Y850891D01*
X217170Y850899D01*
X214630Y850899D01*
X214565Y850888D01*
X214499Y850886D01*
X214456Y850868D01*
X214409Y850860D01*
X214352Y850826D01*
X214292Y850801D01*
X214257Y850770D01*
X214216Y850745D01*
X214175Y850694D01*
X214126Y850650D01*
X214104Y850608D01*
X214075Y850571D01*
X214054Y850509D01*
X214023Y850450D01*
X214015Y850396D01*
X214003Y850359D01*
X214003Y850355D01*
X214003Y850354D01*
X214004Y850319D01*
X213996Y850265D01*
X213996Y846455D01*
X214007Y846390D01*
X214009Y846324D01*
X214027Y846281D01*
X214035Y846234D01*
X214069Y846177D01*
X214094Y846117D01*
X214125Y846082D01*
X214150Y846041D01*
X214201Y846000D01*
X214245Y845951D01*
X214287Y845929D01*
X214324Y845900D01*
X214386Y845879D01*
X214445Y845848D01*
X214499Y845840D01*
X214536Y845828D01*
X214576Y845829D01*
X214630Y845821D01*
X217170Y845821D01*
X217235Y845832D01*
G37*
G36*
X539815Y845832D02*
X539815Y845832D01*
X539881Y845834D01*
X539924Y845852D01*
X539971Y845860D01*
X540028Y845894D01*
X540088Y845919D01*
X540123Y845950D01*
X540164Y845975D01*
X540206Y846026D01*
X540254Y846070D01*
X540276Y846112D01*
X540305Y846149D01*
X540326Y846211D01*
X540357Y846270D01*
X540365Y846324D01*
X540377Y846361D01*
X540376Y846401D01*
X540384Y846455D01*
X540384Y850265D01*
X540373Y850330D01*
X540371Y850396D01*
X540353Y850439D01*
X540345Y850486D01*
X540311Y850543D01*
X540286Y850603D01*
X540255Y850638D01*
X540230Y850679D01*
X540179Y850721D01*
X540135Y850769D01*
X540093Y850791D01*
X540056Y850820D01*
X539994Y850841D01*
X539935Y850872D01*
X539881Y850880D01*
X539844Y850892D01*
X539804Y850891D01*
X539750Y850899D01*
X537210Y850899D01*
X537145Y850888D01*
X537079Y850886D01*
X537036Y850868D01*
X536989Y850860D01*
X536932Y850826D01*
X536872Y850801D01*
X536837Y850770D01*
X536796Y850745D01*
X536755Y850694D01*
X536706Y850650D01*
X536684Y850608D01*
X536655Y850571D01*
X536634Y850509D01*
X536603Y850450D01*
X536595Y850396D01*
X536583Y850359D01*
X536583Y850355D01*
X536583Y850354D01*
X536584Y850319D01*
X536576Y850265D01*
X536576Y846455D01*
X536587Y846390D01*
X536589Y846324D01*
X536607Y846281D01*
X536615Y846234D01*
X536649Y846177D01*
X536674Y846117D01*
X536705Y846082D01*
X536730Y846041D01*
X536781Y846000D01*
X536825Y845951D01*
X536867Y845929D01*
X536904Y845900D01*
X536966Y845879D01*
X537025Y845848D01*
X537079Y845840D01*
X537116Y845828D01*
X537156Y845829D01*
X537210Y845821D01*
X539750Y845821D01*
X539815Y845832D01*
G37*
G36*
X862395Y845832D02*
X862395Y845832D01*
X862461Y845834D01*
X862504Y845852D01*
X862551Y845860D01*
X862608Y845894D01*
X862668Y845919D01*
X862703Y845950D01*
X862744Y845975D01*
X862786Y846026D01*
X862834Y846070D01*
X862856Y846112D01*
X862885Y846149D01*
X862906Y846211D01*
X862937Y846270D01*
X862945Y846324D01*
X862957Y846361D01*
X862956Y846401D01*
X862964Y846455D01*
X862964Y850265D01*
X862953Y850330D01*
X862951Y850396D01*
X862933Y850439D01*
X862925Y850486D01*
X862891Y850543D01*
X862866Y850603D01*
X862835Y850638D01*
X862810Y850679D01*
X862759Y850721D01*
X862715Y850769D01*
X862673Y850791D01*
X862636Y850820D01*
X862574Y850841D01*
X862515Y850872D01*
X862461Y850880D01*
X862424Y850892D01*
X862384Y850891D01*
X862330Y850899D01*
X859790Y850899D01*
X859725Y850888D01*
X859659Y850886D01*
X859616Y850868D01*
X859569Y850860D01*
X859512Y850826D01*
X859452Y850801D01*
X859417Y850770D01*
X859376Y850745D01*
X859335Y850694D01*
X859286Y850650D01*
X859264Y850608D01*
X859235Y850571D01*
X859214Y850509D01*
X859183Y850450D01*
X859175Y850396D01*
X859163Y850359D01*
X859163Y850355D01*
X859163Y850354D01*
X859164Y850319D01*
X859156Y850265D01*
X859156Y846455D01*
X859167Y846390D01*
X859169Y846324D01*
X859187Y846281D01*
X859195Y846234D01*
X859229Y846177D01*
X859254Y846117D01*
X859285Y846082D01*
X859310Y846041D01*
X859361Y846000D01*
X859405Y845951D01*
X859447Y845929D01*
X859484Y845900D01*
X859546Y845879D01*
X859605Y845848D01*
X859659Y845840D01*
X859696Y845828D01*
X859736Y845829D01*
X859790Y845821D01*
X862330Y845821D01*
X862395Y845832D01*
G37*
G36*
X242635Y820432D02*
X242635Y820432D01*
X242701Y820434D01*
X242744Y820452D01*
X242791Y820460D01*
X242848Y820494D01*
X242908Y820519D01*
X242943Y820550D01*
X242984Y820575D01*
X243026Y820626D01*
X243074Y820670D01*
X243096Y820712D01*
X243125Y820749D01*
X243146Y820811D01*
X243177Y820870D01*
X243185Y820924D01*
X243197Y820961D01*
X243196Y821001D01*
X243204Y821055D01*
X243204Y824865D01*
X243193Y824930D01*
X243191Y824996D01*
X243173Y825039D01*
X243165Y825086D01*
X243131Y825143D01*
X243106Y825203D01*
X243075Y825238D01*
X243050Y825279D01*
X242999Y825321D01*
X242955Y825369D01*
X242913Y825391D01*
X242876Y825420D01*
X242814Y825441D01*
X242755Y825472D01*
X242701Y825480D01*
X242664Y825492D01*
X242624Y825491D01*
X242570Y825499D01*
X240030Y825499D01*
X239965Y825488D01*
X239899Y825486D01*
X239856Y825468D01*
X239809Y825460D01*
X239752Y825426D01*
X239692Y825401D01*
X239657Y825370D01*
X239616Y825345D01*
X239575Y825294D01*
X239526Y825250D01*
X239504Y825208D01*
X239475Y825171D01*
X239454Y825109D01*
X239423Y825050D01*
X239415Y824996D01*
X239403Y824959D01*
X239403Y824955D01*
X239403Y824954D01*
X239404Y824919D01*
X239396Y824865D01*
X239396Y821055D01*
X239407Y820990D01*
X239409Y820924D01*
X239427Y820881D01*
X239435Y820834D01*
X239469Y820777D01*
X239494Y820717D01*
X239525Y820682D01*
X239550Y820641D01*
X239601Y820600D01*
X239645Y820551D01*
X239687Y820529D01*
X239724Y820500D01*
X239786Y820479D01*
X239845Y820448D01*
X239899Y820440D01*
X239936Y820428D01*
X239976Y820429D01*
X240030Y820421D01*
X242570Y820421D01*
X242635Y820432D01*
G37*
G36*
X1210375Y820432D02*
X1210375Y820432D01*
X1210441Y820434D01*
X1210484Y820452D01*
X1210531Y820460D01*
X1210588Y820494D01*
X1210648Y820519D01*
X1210683Y820550D01*
X1210724Y820575D01*
X1210766Y820626D01*
X1210814Y820670D01*
X1210836Y820712D01*
X1210865Y820749D01*
X1210886Y820811D01*
X1210917Y820870D01*
X1210925Y820924D01*
X1210937Y820961D01*
X1210936Y821001D01*
X1210944Y821055D01*
X1210944Y824865D01*
X1210933Y824930D01*
X1210931Y824996D01*
X1210913Y825039D01*
X1210905Y825086D01*
X1210871Y825143D01*
X1210846Y825203D01*
X1210815Y825238D01*
X1210790Y825279D01*
X1210739Y825321D01*
X1210695Y825369D01*
X1210653Y825391D01*
X1210616Y825420D01*
X1210554Y825441D01*
X1210495Y825472D01*
X1210441Y825480D01*
X1210404Y825492D01*
X1210364Y825491D01*
X1210310Y825499D01*
X1207770Y825499D01*
X1207705Y825488D01*
X1207639Y825486D01*
X1207596Y825468D01*
X1207549Y825460D01*
X1207492Y825426D01*
X1207432Y825401D01*
X1207397Y825370D01*
X1207356Y825345D01*
X1207315Y825294D01*
X1207266Y825250D01*
X1207244Y825208D01*
X1207215Y825171D01*
X1207194Y825109D01*
X1207163Y825050D01*
X1207155Y824996D01*
X1207143Y824959D01*
X1207143Y824955D01*
X1207143Y824954D01*
X1207144Y824919D01*
X1207136Y824865D01*
X1207136Y821055D01*
X1207147Y820990D01*
X1207149Y820924D01*
X1207167Y820881D01*
X1207175Y820834D01*
X1207209Y820777D01*
X1207234Y820717D01*
X1207265Y820682D01*
X1207290Y820641D01*
X1207341Y820600D01*
X1207385Y820551D01*
X1207427Y820529D01*
X1207464Y820500D01*
X1207526Y820479D01*
X1207585Y820448D01*
X1207639Y820440D01*
X1207676Y820428D01*
X1207716Y820429D01*
X1207770Y820421D01*
X1210310Y820421D01*
X1210375Y820432D01*
G37*
G36*
X565215Y820432D02*
X565215Y820432D01*
X565281Y820434D01*
X565324Y820452D01*
X565371Y820460D01*
X565428Y820494D01*
X565488Y820519D01*
X565523Y820550D01*
X565564Y820575D01*
X565606Y820626D01*
X565654Y820670D01*
X565676Y820712D01*
X565705Y820749D01*
X565726Y820811D01*
X565757Y820870D01*
X565765Y820924D01*
X565777Y820961D01*
X565776Y821001D01*
X565784Y821055D01*
X565784Y824865D01*
X565773Y824930D01*
X565771Y824996D01*
X565753Y825039D01*
X565745Y825086D01*
X565711Y825143D01*
X565686Y825203D01*
X565655Y825238D01*
X565630Y825279D01*
X565579Y825321D01*
X565535Y825369D01*
X565493Y825391D01*
X565456Y825420D01*
X565394Y825441D01*
X565335Y825472D01*
X565281Y825480D01*
X565244Y825492D01*
X565204Y825491D01*
X565150Y825499D01*
X562610Y825499D01*
X562545Y825488D01*
X562479Y825486D01*
X562436Y825468D01*
X562389Y825460D01*
X562332Y825426D01*
X562272Y825401D01*
X562237Y825370D01*
X562196Y825345D01*
X562155Y825294D01*
X562106Y825250D01*
X562084Y825208D01*
X562055Y825171D01*
X562034Y825109D01*
X562003Y825050D01*
X561995Y824996D01*
X561983Y824959D01*
X561983Y824955D01*
X561983Y824954D01*
X561984Y824919D01*
X561976Y824865D01*
X561976Y821055D01*
X561987Y820990D01*
X561989Y820924D01*
X562007Y820881D01*
X562015Y820834D01*
X562049Y820777D01*
X562074Y820717D01*
X562105Y820682D01*
X562130Y820641D01*
X562181Y820600D01*
X562225Y820551D01*
X562267Y820529D01*
X562304Y820500D01*
X562366Y820479D01*
X562425Y820448D01*
X562479Y820440D01*
X562516Y820428D01*
X562556Y820429D01*
X562610Y820421D01*
X565150Y820421D01*
X565215Y820432D01*
G37*
G36*
X1057975Y820432D02*
X1057975Y820432D01*
X1058041Y820434D01*
X1058084Y820452D01*
X1058131Y820460D01*
X1058188Y820494D01*
X1058248Y820519D01*
X1058283Y820550D01*
X1058324Y820575D01*
X1058366Y820626D01*
X1058414Y820670D01*
X1058436Y820712D01*
X1058465Y820749D01*
X1058486Y820811D01*
X1058517Y820870D01*
X1058525Y820924D01*
X1058537Y820961D01*
X1058536Y821001D01*
X1058544Y821055D01*
X1058544Y824865D01*
X1058533Y824930D01*
X1058531Y824996D01*
X1058513Y825039D01*
X1058505Y825086D01*
X1058471Y825143D01*
X1058446Y825203D01*
X1058415Y825238D01*
X1058390Y825279D01*
X1058339Y825321D01*
X1058295Y825369D01*
X1058253Y825391D01*
X1058216Y825420D01*
X1058154Y825441D01*
X1058095Y825472D01*
X1058041Y825480D01*
X1058004Y825492D01*
X1057964Y825491D01*
X1057910Y825499D01*
X1055370Y825499D01*
X1055305Y825488D01*
X1055239Y825486D01*
X1055196Y825468D01*
X1055149Y825460D01*
X1055092Y825426D01*
X1055032Y825401D01*
X1054997Y825370D01*
X1054956Y825345D01*
X1054915Y825294D01*
X1054866Y825250D01*
X1054844Y825208D01*
X1054815Y825171D01*
X1054794Y825109D01*
X1054763Y825050D01*
X1054755Y824996D01*
X1054743Y824959D01*
X1054743Y824955D01*
X1054743Y824954D01*
X1054744Y824919D01*
X1054736Y824865D01*
X1054736Y821055D01*
X1054747Y820990D01*
X1054749Y820924D01*
X1054767Y820881D01*
X1054775Y820834D01*
X1054809Y820777D01*
X1054834Y820717D01*
X1054865Y820682D01*
X1054890Y820641D01*
X1054941Y820600D01*
X1054985Y820551D01*
X1055027Y820529D01*
X1055064Y820500D01*
X1055126Y820479D01*
X1055185Y820448D01*
X1055239Y820440D01*
X1055276Y820428D01*
X1055316Y820429D01*
X1055370Y820421D01*
X1057910Y820421D01*
X1057975Y820432D01*
G37*
G36*
X735395Y820432D02*
X735395Y820432D01*
X735461Y820434D01*
X735504Y820452D01*
X735551Y820460D01*
X735608Y820494D01*
X735668Y820519D01*
X735703Y820550D01*
X735744Y820575D01*
X735786Y820626D01*
X735834Y820670D01*
X735856Y820712D01*
X735885Y820749D01*
X735906Y820811D01*
X735937Y820870D01*
X735945Y820924D01*
X735957Y820961D01*
X735956Y821001D01*
X735964Y821055D01*
X735964Y824865D01*
X735953Y824930D01*
X735951Y824996D01*
X735933Y825039D01*
X735925Y825086D01*
X735891Y825143D01*
X735866Y825203D01*
X735835Y825238D01*
X735810Y825279D01*
X735759Y825321D01*
X735715Y825369D01*
X735673Y825391D01*
X735636Y825420D01*
X735574Y825441D01*
X735515Y825472D01*
X735461Y825480D01*
X735424Y825492D01*
X735384Y825491D01*
X735330Y825499D01*
X732790Y825499D01*
X732725Y825488D01*
X732659Y825486D01*
X732616Y825468D01*
X732569Y825460D01*
X732512Y825426D01*
X732452Y825401D01*
X732417Y825370D01*
X732376Y825345D01*
X732335Y825294D01*
X732286Y825250D01*
X732264Y825208D01*
X732235Y825171D01*
X732214Y825109D01*
X732183Y825050D01*
X732175Y824996D01*
X732163Y824959D01*
X732163Y824955D01*
X732163Y824954D01*
X732164Y824919D01*
X732156Y824865D01*
X732156Y821055D01*
X732167Y820990D01*
X732169Y820924D01*
X732187Y820881D01*
X732195Y820834D01*
X732229Y820777D01*
X732254Y820717D01*
X732285Y820682D01*
X732310Y820641D01*
X732361Y820600D01*
X732405Y820551D01*
X732447Y820529D01*
X732484Y820500D01*
X732546Y820479D01*
X732605Y820448D01*
X732659Y820440D01*
X732696Y820428D01*
X732736Y820429D01*
X732790Y820421D01*
X735330Y820421D01*
X735395Y820432D01*
G37*
G36*
X412815Y820432D02*
X412815Y820432D01*
X412881Y820434D01*
X412924Y820452D01*
X412971Y820460D01*
X413028Y820494D01*
X413088Y820519D01*
X413123Y820550D01*
X413164Y820575D01*
X413206Y820626D01*
X413254Y820670D01*
X413276Y820712D01*
X413305Y820749D01*
X413326Y820811D01*
X413357Y820870D01*
X413365Y820924D01*
X413377Y820961D01*
X413376Y821001D01*
X413384Y821055D01*
X413384Y824865D01*
X413373Y824930D01*
X413371Y824996D01*
X413353Y825039D01*
X413345Y825086D01*
X413311Y825143D01*
X413286Y825203D01*
X413255Y825238D01*
X413230Y825279D01*
X413179Y825321D01*
X413135Y825369D01*
X413093Y825391D01*
X413056Y825420D01*
X412994Y825441D01*
X412935Y825472D01*
X412881Y825480D01*
X412844Y825492D01*
X412804Y825491D01*
X412750Y825499D01*
X410210Y825499D01*
X410145Y825488D01*
X410079Y825486D01*
X410036Y825468D01*
X409989Y825460D01*
X409932Y825426D01*
X409872Y825401D01*
X409837Y825370D01*
X409796Y825345D01*
X409755Y825294D01*
X409706Y825250D01*
X409684Y825208D01*
X409655Y825171D01*
X409634Y825109D01*
X409603Y825050D01*
X409595Y824996D01*
X409583Y824959D01*
X409583Y824955D01*
X409583Y824954D01*
X409584Y824919D01*
X409576Y824865D01*
X409576Y821055D01*
X409587Y820990D01*
X409589Y820924D01*
X409607Y820881D01*
X409615Y820834D01*
X409649Y820777D01*
X409674Y820717D01*
X409705Y820682D01*
X409730Y820641D01*
X409781Y820600D01*
X409825Y820551D01*
X409867Y820529D01*
X409904Y820500D01*
X409966Y820479D01*
X410025Y820448D01*
X410079Y820440D01*
X410116Y820428D01*
X410156Y820429D01*
X410210Y820421D01*
X412750Y820421D01*
X412815Y820432D01*
G37*
G36*
X90235Y820432D02*
X90235Y820432D01*
X90301Y820434D01*
X90344Y820452D01*
X90391Y820460D01*
X90448Y820494D01*
X90508Y820519D01*
X90543Y820550D01*
X90584Y820575D01*
X90626Y820626D01*
X90674Y820670D01*
X90696Y820712D01*
X90725Y820749D01*
X90746Y820811D01*
X90777Y820870D01*
X90785Y820924D01*
X90797Y820961D01*
X90796Y821001D01*
X90804Y821055D01*
X90804Y824865D01*
X90793Y824930D01*
X90791Y824996D01*
X90773Y825039D01*
X90765Y825086D01*
X90731Y825143D01*
X90706Y825203D01*
X90675Y825238D01*
X90650Y825279D01*
X90599Y825321D01*
X90555Y825369D01*
X90513Y825391D01*
X90476Y825420D01*
X90414Y825441D01*
X90355Y825472D01*
X90301Y825480D01*
X90264Y825492D01*
X90224Y825491D01*
X90170Y825499D01*
X87630Y825499D01*
X87565Y825488D01*
X87499Y825486D01*
X87456Y825468D01*
X87409Y825460D01*
X87352Y825426D01*
X87292Y825401D01*
X87257Y825370D01*
X87216Y825345D01*
X87175Y825294D01*
X87126Y825250D01*
X87104Y825208D01*
X87075Y825171D01*
X87054Y825109D01*
X87023Y825050D01*
X87015Y824996D01*
X87003Y824959D01*
X87003Y824955D01*
X87003Y824954D01*
X87004Y824919D01*
X86996Y824865D01*
X86996Y821055D01*
X87007Y820990D01*
X87009Y820924D01*
X87027Y820881D01*
X87035Y820834D01*
X87069Y820777D01*
X87094Y820717D01*
X87125Y820682D01*
X87150Y820641D01*
X87201Y820600D01*
X87245Y820551D01*
X87287Y820529D01*
X87324Y820500D01*
X87386Y820479D01*
X87445Y820448D01*
X87499Y820440D01*
X87536Y820428D01*
X87576Y820429D01*
X87630Y820421D01*
X90170Y820421D01*
X90235Y820432D01*
G37*
G36*
X887795Y820432D02*
X887795Y820432D01*
X887861Y820434D01*
X887904Y820452D01*
X887951Y820460D01*
X888008Y820494D01*
X888068Y820519D01*
X888103Y820550D01*
X888144Y820575D01*
X888186Y820626D01*
X888234Y820670D01*
X888256Y820712D01*
X888285Y820749D01*
X888306Y820811D01*
X888337Y820870D01*
X888345Y820924D01*
X888357Y820961D01*
X888356Y821001D01*
X888364Y821055D01*
X888364Y824865D01*
X888353Y824930D01*
X888351Y824996D01*
X888333Y825039D01*
X888325Y825086D01*
X888291Y825143D01*
X888266Y825203D01*
X888235Y825238D01*
X888210Y825279D01*
X888159Y825321D01*
X888115Y825369D01*
X888073Y825391D01*
X888036Y825420D01*
X887974Y825441D01*
X887915Y825472D01*
X887861Y825480D01*
X887824Y825492D01*
X887784Y825491D01*
X887730Y825499D01*
X885190Y825499D01*
X885125Y825488D01*
X885059Y825486D01*
X885016Y825468D01*
X884969Y825460D01*
X884912Y825426D01*
X884852Y825401D01*
X884817Y825370D01*
X884776Y825345D01*
X884735Y825294D01*
X884686Y825250D01*
X884664Y825208D01*
X884635Y825171D01*
X884614Y825109D01*
X884583Y825050D01*
X884575Y824996D01*
X884563Y824959D01*
X884563Y824955D01*
X884563Y824954D01*
X884564Y824919D01*
X884556Y824865D01*
X884556Y821055D01*
X884567Y820990D01*
X884569Y820924D01*
X884587Y820881D01*
X884595Y820834D01*
X884629Y820777D01*
X884654Y820717D01*
X884685Y820682D01*
X884710Y820641D01*
X884761Y820600D01*
X884805Y820551D01*
X884847Y820529D01*
X884884Y820500D01*
X884946Y820479D01*
X885005Y820448D01*
X885059Y820440D01*
X885096Y820428D01*
X885136Y820429D01*
X885190Y820421D01*
X887730Y820421D01*
X887795Y820432D01*
G37*
G36*
X616015Y233692D02*
X616015Y233692D01*
X616081Y233694D01*
X616124Y233712D01*
X616171Y233720D01*
X616228Y233754D01*
X616288Y233779D01*
X616323Y233810D01*
X616364Y233835D01*
X616406Y233886D01*
X616454Y233930D01*
X616476Y233972D01*
X616505Y234009D01*
X616526Y234071D01*
X616557Y234130D01*
X616565Y234184D01*
X616577Y234221D01*
X616576Y234261D01*
X616584Y234315D01*
X616584Y238125D01*
X616573Y238190D01*
X616571Y238256D01*
X616553Y238299D01*
X616545Y238346D01*
X616511Y238403D01*
X616486Y238463D01*
X616455Y238498D01*
X616430Y238539D01*
X616379Y238581D01*
X616335Y238629D01*
X616293Y238651D01*
X616256Y238680D01*
X616194Y238701D01*
X616135Y238732D01*
X616081Y238740D01*
X616044Y238752D01*
X616004Y238751D01*
X615950Y238759D01*
X613410Y238759D01*
X613345Y238748D01*
X613279Y238746D01*
X613236Y238728D01*
X613189Y238720D01*
X613132Y238686D01*
X613072Y238661D01*
X613037Y238630D01*
X612996Y238605D01*
X612955Y238554D01*
X612906Y238510D01*
X612884Y238468D01*
X612855Y238431D01*
X612834Y238369D01*
X612803Y238310D01*
X612795Y238256D01*
X612783Y238219D01*
X612783Y238215D01*
X612783Y238214D01*
X612784Y238179D01*
X612776Y238125D01*
X612776Y234315D01*
X612787Y234250D01*
X612789Y234184D01*
X612807Y234141D01*
X612815Y234094D01*
X612849Y234037D01*
X612874Y233977D01*
X612905Y233942D01*
X612930Y233901D01*
X612981Y233860D01*
X613025Y233811D01*
X613067Y233789D01*
X613104Y233760D01*
X613166Y233739D01*
X613225Y233708D01*
X613279Y233700D01*
X613316Y233688D01*
X613356Y233689D01*
X613410Y233681D01*
X615950Y233681D01*
X616015Y233692D01*
G37*
G36*
X938595Y566432D02*
X938595Y566432D01*
X938661Y566434D01*
X938704Y566452D01*
X938751Y566460D01*
X938808Y566494D01*
X938868Y566519D01*
X938903Y566550D01*
X938944Y566575D01*
X938986Y566626D01*
X939034Y566670D01*
X939056Y566712D01*
X939085Y566749D01*
X939106Y566811D01*
X939137Y566870D01*
X939145Y566924D01*
X939157Y566961D01*
X939156Y567001D01*
X939164Y567055D01*
X939164Y570865D01*
X939153Y570930D01*
X939151Y570996D01*
X939133Y571039D01*
X939125Y571086D01*
X939091Y571143D01*
X939066Y571203D01*
X939035Y571238D01*
X939010Y571279D01*
X938959Y571321D01*
X938915Y571369D01*
X938873Y571391D01*
X938836Y571420D01*
X938774Y571441D01*
X938715Y571472D01*
X938661Y571480D01*
X938624Y571492D01*
X938584Y571491D01*
X938530Y571499D01*
X935990Y571499D01*
X935925Y571488D01*
X935859Y571486D01*
X935816Y571468D01*
X935769Y571460D01*
X935712Y571426D01*
X935652Y571401D01*
X935617Y571370D01*
X935576Y571345D01*
X935535Y571294D01*
X935486Y571250D01*
X935464Y571208D01*
X935435Y571171D01*
X935414Y571109D01*
X935383Y571050D01*
X935375Y570996D01*
X935363Y570959D01*
X935363Y570955D01*
X935363Y570954D01*
X935364Y570919D01*
X935356Y570865D01*
X935356Y567055D01*
X935367Y566990D01*
X935369Y566924D01*
X935387Y566881D01*
X935395Y566834D01*
X935429Y566777D01*
X935454Y566717D01*
X935485Y566682D01*
X935510Y566641D01*
X935561Y566600D01*
X935605Y566551D01*
X935647Y566529D01*
X935684Y566500D01*
X935746Y566479D01*
X935805Y566448D01*
X935859Y566440D01*
X935896Y566428D01*
X935936Y566429D01*
X935990Y566421D01*
X938530Y566421D01*
X938595Y566432D01*
G37*
G36*
X1261175Y566432D02*
X1261175Y566432D01*
X1261241Y566434D01*
X1261284Y566452D01*
X1261331Y566460D01*
X1261388Y566494D01*
X1261448Y566519D01*
X1261483Y566550D01*
X1261524Y566575D01*
X1261566Y566626D01*
X1261614Y566670D01*
X1261636Y566712D01*
X1261665Y566749D01*
X1261686Y566811D01*
X1261717Y566870D01*
X1261725Y566924D01*
X1261737Y566961D01*
X1261736Y567001D01*
X1261744Y567055D01*
X1261744Y570865D01*
X1261733Y570930D01*
X1261731Y570996D01*
X1261713Y571039D01*
X1261705Y571086D01*
X1261671Y571143D01*
X1261646Y571203D01*
X1261615Y571238D01*
X1261590Y571279D01*
X1261539Y571321D01*
X1261495Y571369D01*
X1261453Y571391D01*
X1261416Y571420D01*
X1261354Y571441D01*
X1261295Y571472D01*
X1261241Y571480D01*
X1261204Y571492D01*
X1261164Y571491D01*
X1261110Y571499D01*
X1258570Y571499D01*
X1258505Y571488D01*
X1258439Y571486D01*
X1258396Y571468D01*
X1258349Y571460D01*
X1258292Y571426D01*
X1258232Y571401D01*
X1258197Y571370D01*
X1258156Y571345D01*
X1258115Y571294D01*
X1258066Y571250D01*
X1258044Y571208D01*
X1258015Y571171D01*
X1257994Y571109D01*
X1257963Y571050D01*
X1257955Y570996D01*
X1257943Y570959D01*
X1257943Y570955D01*
X1257943Y570954D01*
X1257944Y570919D01*
X1257936Y570865D01*
X1257936Y567055D01*
X1257947Y566990D01*
X1257949Y566924D01*
X1257967Y566881D01*
X1257975Y566834D01*
X1258009Y566777D01*
X1258034Y566717D01*
X1258065Y566682D01*
X1258090Y566641D01*
X1258141Y566600D01*
X1258185Y566551D01*
X1258227Y566529D01*
X1258264Y566500D01*
X1258326Y566479D01*
X1258385Y566448D01*
X1258439Y566440D01*
X1258476Y566428D01*
X1258516Y566429D01*
X1258570Y566421D01*
X1261110Y566421D01*
X1261175Y566432D01*
G37*
G36*
X616015Y566432D02*
X616015Y566432D01*
X616081Y566434D01*
X616124Y566452D01*
X616171Y566460D01*
X616228Y566494D01*
X616288Y566519D01*
X616323Y566550D01*
X616364Y566575D01*
X616406Y566626D01*
X616454Y566670D01*
X616476Y566712D01*
X616505Y566749D01*
X616526Y566811D01*
X616557Y566870D01*
X616565Y566924D01*
X616577Y566961D01*
X616576Y567001D01*
X616584Y567055D01*
X616584Y570865D01*
X616573Y570930D01*
X616571Y570996D01*
X616553Y571039D01*
X616545Y571086D01*
X616511Y571143D01*
X616486Y571203D01*
X616455Y571238D01*
X616430Y571279D01*
X616379Y571321D01*
X616335Y571369D01*
X616293Y571391D01*
X616256Y571420D01*
X616194Y571441D01*
X616135Y571472D01*
X616081Y571480D01*
X616044Y571492D01*
X616004Y571491D01*
X615950Y571499D01*
X613410Y571499D01*
X613345Y571488D01*
X613279Y571486D01*
X613236Y571468D01*
X613189Y571460D01*
X613132Y571426D01*
X613072Y571401D01*
X613037Y571370D01*
X612996Y571345D01*
X612955Y571294D01*
X612906Y571250D01*
X612884Y571208D01*
X612855Y571171D01*
X612834Y571109D01*
X612803Y571050D01*
X612795Y570996D01*
X612783Y570959D01*
X612783Y570955D01*
X612783Y570954D01*
X612784Y570919D01*
X612776Y570865D01*
X612776Y567055D01*
X612787Y566990D01*
X612789Y566924D01*
X612807Y566881D01*
X612815Y566834D01*
X612849Y566777D01*
X612874Y566717D01*
X612905Y566682D01*
X612930Y566641D01*
X612981Y566600D01*
X613025Y566551D01*
X613067Y566529D01*
X613104Y566500D01*
X613166Y566479D01*
X613225Y566448D01*
X613279Y566440D01*
X613316Y566428D01*
X613356Y566429D01*
X613410Y566421D01*
X615950Y566421D01*
X616015Y566432D01*
G37*
G36*
X293435Y566432D02*
X293435Y566432D01*
X293501Y566434D01*
X293544Y566452D01*
X293591Y566460D01*
X293648Y566494D01*
X293708Y566519D01*
X293743Y566550D01*
X293784Y566575D01*
X293826Y566626D01*
X293874Y566670D01*
X293896Y566712D01*
X293925Y566749D01*
X293946Y566811D01*
X293977Y566870D01*
X293985Y566924D01*
X293997Y566961D01*
X293996Y567001D01*
X294004Y567055D01*
X294004Y570865D01*
X293993Y570930D01*
X293991Y570996D01*
X293973Y571039D01*
X293965Y571086D01*
X293931Y571143D01*
X293906Y571203D01*
X293875Y571238D01*
X293850Y571279D01*
X293799Y571321D01*
X293755Y571369D01*
X293713Y571391D01*
X293676Y571420D01*
X293614Y571441D01*
X293555Y571472D01*
X293501Y571480D01*
X293464Y571492D01*
X293424Y571491D01*
X293370Y571499D01*
X290830Y571499D01*
X290765Y571488D01*
X290699Y571486D01*
X290656Y571468D01*
X290609Y571460D01*
X290552Y571426D01*
X290492Y571401D01*
X290457Y571370D01*
X290416Y571345D01*
X290375Y571294D01*
X290326Y571250D01*
X290304Y571208D01*
X290275Y571171D01*
X290254Y571109D01*
X290223Y571050D01*
X290215Y570996D01*
X290203Y570959D01*
X290203Y570955D01*
X290203Y570954D01*
X290204Y570919D01*
X290196Y570865D01*
X290196Y567055D01*
X290207Y566990D01*
X290209Y566924D01*
X290227Y566881D01*
X290235Y566834D01*
X290269Y566777D01*
X290294Y566717D01*
X290325Y566682D01*
X290350Y566641D01*
X290401Y566600D01*
X290445Y566551D01*
X290487Y566529D01*
X290524Y566500D01*
X290586Y566479D01*
X290645Y566448D01*
X290699Y566440D01*
X290736Y566428D01*
X290776Y566429D01*
X290830Y566421D01*
X293370Y566421D01*
X293435Y566432D01*
G37*
G36*
X616015Y556272D02*
X616015Y556272D01*
X616081Y556274D01*
X616124Y556292D01*
X616171Y556300D01*
X616228Y556334D01*
X616288Y556359D01*
X616323Y556390D01*
X616364Y556415D01*
X616406Y556466D01*
X616454Y556510D01*
X616476Y556552D01*
X616505Y556589D01*
X616526Y556651D01*
X616557Y556710D01*
X616565Y556764D01*
X616577Y556801D01*
X616576Y556841D01*
X616584Y556895D01*
X616584Y560705D01*
X616573Y560770D01*
X616571Y560836D01*
X616553Y560879D01*
X616545Y560926D01*
X616511Y560983D01*
X616486Y561043D01*
X616455Y561078D01*
X616430Y561119D01*
X616379Y561161D01*
X616335Y561209D01*
X616293Y561231D01*
X616256Y561260D01*
X616194Y561281D01*
X616135Y561312D01*
X616081Y561320D01*
X616044Y561332D01*
X616004Y561331D01*
X615950Y561339D01*
X613410Y561339D01*
X613345Y561328D01*
X613279Y561326D01*
X613236Y561308D01*
X613189Y561300D01*
X613132Y561266D01*
X613072Y561241D01*
X613037Y561210D01*
X612996Y561185D01*
X612955Y561134D01*
X612906Y561090D01*
X612884Y561048D01*
X612855Y561011D01*
X612834Y560949D01*
X612803Y560890D01*
X612795Y560836D01*
X612783Y560799D01*
X612783Y560795D01*
X612783Y560794D01*
X612784Y560759D01*
X612776Y560705D01*
X612776Y556895D01*
X612787Y556830D01*
X612789Y556764D01*
X612807Y556721D01*
X612815Y556674D01*
X612849Y556617D01*
X612874Y556557D01*
X612905Y556522D01*
X612930Y556481D01*
X612981Y556440D01*
X613025Y556391D01*
X613067Y556369D01*
X613104Y556340D01*
X613166Y556319D01*
X613225Y556288D01*
X613279Y556280D01*
X613316Y556268D01*
X613356Y556269D01*
X613410Y556261D01*
X615950Y556261D01*
X616015Y556272D01*
G37*
G36*
X1261175Y556272D02*
X1261175Y556272D01*
X1261241Y556274D01*
X1261284Y556292D01*
X1261331Y556300D01*
X1261388Y556334D01*
X1261448Y556359D01*
X1261483Y556390D01*
X1261524Y556415D01*
X1261566Y556466D01*
X1261614Y556510D01*
X1261636Y556552D01*
X1261665Y556589D01*
X1261686Y556651D01*
X1261717Y556710D01*
X1261725Y556764D01*
X1261737Y556801D01*
X1261736Y556841D01*
X1261744Y556895D01*
X1261744Y560705D01*
X1261733Y560770D01*
X1261731Y560836D01*
X1261713Y560879D01*
X1261705Y560926D01*
X1261671Y560983D01*
X1261646Y561043D01*
X1261615Y561078D01*
X1261590Y561119D01*
X1261539Y561161D01*
X1261495Y561209D01*
X1261453Y561231D01*
X1261416Y561260D01*
X1261354Y561281D01*
X1261295Y561312D01*
X1261241Y561320D01*
X1261204Y561332D01*
X1261164Y561331D01*
X1261110Y561339D01*
X1258570Y561339D01*
X1258505Y561328D01*
X1258439Y561326D01*
X1258396Y561308D01*
X1258349Y561300D01*
X1258292Y561266D01*
X1258232Y561241D01*
X1258197Y561210D01*
X1258156Y561185D01*
X1258115Y561134D01*
X1258066Y561090D01*
X1258044Y561048D01*
X1258015Y561011D01*
X1257994Y560949D01*
X1257963Y560890D01*
X1257955Y560836D01*
X1257943Y560799D01*
X1257943Y560795D01*
X1257943Y560794D01*
X1257944Y560759D01*
X1257936Y560705D01*
X1257936Y556895D01*
X1257947Y556830D01*
X1257949Y556764D01*
X1257967Y556721D01*
X1257975Y556674D01*
X1258009Y556617D01*
X1258034Y556557D01*
X1258065Y556522D01*
X1258090Y556481D01*
X1258141Y556440D01*
X1258185Y556391D01*
X1258227Y556369D01*
X1258264Y556340D01*
X1258326Y556319D01*
X1258385Y556288D01*
X1258439Y556280D01*
X1258476Y556268D01*
X1258516Y556269D01*
X1258570Y556261D01*
X1261110Y556261D01*
X1261175Y556272D01*
G37*
G36*
X938595Y556272D02*
X938595Y556272D01*
X938661Y556274D01*
X938704Y556292D01*
X938751Y556300D01*
X938808Y556334D01*
X938868Y556359D01*
X938903Y556390D01*
X938944Y556415D01*
X938986Y556466D01*
X939034Y556510D01*
X939056Y556552D01*
X939085Y556589D01*
X939106Y556651D01*
X939137Y556710D01*
X939145Y556764D01*
X939157Y556801D01*
X939156Y556841D01*
X939164Y556895D01*
X939164Y560705D01*
X939153Y560770D01*
X939151Y560836D01*
X939133Y560879D01*
X939125Y560926D01*
X939091Y560983D01*
X939066Y561043D01*
X939035Y561078D01*
X939010Y561119D01*
X938959Y561161D01*
X938915Y561209D01*
X938873Y561231D01*
X938836Y561260D01*
X938774Y561281D01*
X938715Y561312D01*
X938661Y561320D01*
X938624Y561332D01*
X938584Y561331D01*
X938530Y561339D01*
X935990Y561339D01*
X935925Y561328D01*
X935859Y561326D01*
X935816Y561308D01*
X935769Y561300D01*
X935712Y561266D01*
X935652Y561241D01*
X935617Y561210D01*
X935576Y561185D01*
X935535Y561134D01*
X935486Y561090D01*
X935464Y561048D01*
X935435Y561011D01*
X935414Y560949D01*
X935383Y560890D01*
X935375Y560836D01*
X935363Y560799D01*
X935363Y560795D01*
X935363Y560794D01*
X935364Y560759D01*
X935356Y560705D01*
X935356Y556895D01*
X935367Y556830D01*
X935369Y556764D01*
X935387Y556721D01*
X935395Y556674D01*
X935429Y556617D01*
X935454Y556557D01*
X935485Y556522D01*
X935510Y556481D01*
X935561Y556440D01*
X935605Y556391D01*
X935647Y556369D01*
X935684Y556340D01*
X935746Y556319D01*
X935805Y556288D01*
X935859Y556280D01*
X935896Y556268D01*
X935936Y556269D01*
X935990Y556261D01*
X938530Y556261D01*
X938595Y556272D01*
G37*
G36*
X293435Y556272D02*
X293435Y556272D01*
X293501Y556274D01*
X293544Y556292D01*
X293591Y556300D01*
X293648Y556334D01*
X293708Y556359D01*
X293743Y556390D01*
X293784Y556415D01*
X293826Y556466D01*
X293874Y556510D01*
X293896Y556552D01*
X293925Y556589D01*
X293946Y556651D01*
X293977Y556710D01*
X293985Y556764D01*
X293997Y556801D01*
X293996Y556841D01*
X294004Y556895D01*
X294004Y560705D01*
X293993Y560770D01*
X293991Y560836D01*
X293973Y560879D01*
X293965Y560926D01*
X293931Y560983D01*
X293906Y561043D01*
X293875Y561078D01*
X293850Y561119D01*
X293799Y561161D01*
X293755Y561209D01*
X293713Y561231D01*
X293676Y561260D01*
X293614Y561281D01*
X293555Y561312D01*
X293501Y561320D01*
X293464Y561332D01*
X293424Y561331D01*
X293370Y561339D01*
X290830Y561339D01*
X290765Y561328D01*
X290699Y561326D01*
X290656Y561308D01*
X290609Y561300D01*
X290552Y561266D01*
X290492Y561241D01*
X290457Y561210D01*
X290416Y561185D01*
X290375Y561134D01*
X290326Y561090D01*
X290304Y561048D01*
X290275Y561011D01*
X290254Y560949D01*
X290223Y560890D01*
X290215Y560836D01*
X290203Y560799D01*
X290203Y560795D01*
X290203Y560794D01*
X290204Y560759D01*
X290196Y560705D01*
X290196Y556895D01*
X290207Y556830D01*
X290209Y556764D01*
X290227Y556721D01*
X290235Y556674D01*
X290269Y556617D01*
X290294Y556557D01*
X290325Y556522D01*
X290350Y556481D01*
X290401Y556440D01*
X290445Y556391D01*
X290487Y556369D01*
X290524Y556340D01*
X290586Y556319D01*
X290645Y556288D01*
X290699Y556280D01*
X290736Y556268D01*
X290776Y556269D01*
X290830Y556261D01*
X293370Y556261D01*
X293435Y556272D01*
G37*
G36*
X862395Y523252D02*
X862395Y523252D01*
X862461Y523254D01*
X862504Y523272D01*
X862551Y523280D01*
X862608Y523314D01*
X862668Y523339D01*
X862703Y523370D01*
X862744Y523395D01*
X862786Y523446D01*
X862834Y523490D01*
X862856Y523532D01*
X862885Y523569D01*
X862906Y523631D01*
X862937Y523690D01*
X862945Y523744D01*
X862957Y523781D01*
X862956Y523821D01*
X862964Y523875D01*
X862964Y527685D01*
X862953Y527750D01*
X862951Y527816D01*
X862933Y527859D01*
X862925Y527906D01*
X862891Y527963D01*
X862866Y528023D01*
X862835Y528058D01*
X862810Y528099D01*
X862759Y528141D01*
X862715Y528189D01*
X862673Y528211D01*
X862636Y528240D01*
X862574Y528261D01*
X862515Y528292D01*
X862461Y528300D01*
X862424Y528312D01*
X862384Y528311D01*
X862330Y528319D01*
X859790Y528319D01*
X859725Y528308D01*
X859659Y528306D01*
X859616Y528288D01*
X859569Y528280D01*
X859512Y528246D01*
X859452Y528221D01*
X859417Y528190D01*
X859376Y528165D01*
X859335Y528114D01*
X859286Y528070D01*
X859264Y528028D01*
X859235Y527991D01*
X859214Y527929D01*
X859183Y527870D01*
X859175Y527816D01*
X859163Y527779D01*
X859163Y527775D01*
X859163Y527774D01*
X859164Y527739D01*
X859156Y527685D01*
X859156Y523875D01*
X859167Y523810D01*
X859169Y523744D01*
X859187Y523701D01*
X859195Y523654D01*
X859229Y523597D01*
X859254Y523537D01*
X859285Y523502D01*
X859310Y523461D01*
X859361Y523420D01*
X859405Y523371D01*
X859447Y523349D01*
X859484Y523320D01*
X859546Y523299D01*
X859605Y523268D01*
X859659Y523260D01*
X859696Y523248D01*
X859736Y523249D01*
X859790Y523241D01*
X862330Y523241D01*
X862395Y523252D01*
G37*
G36*
X217235Y523252D02*
X217235Y523252D01*
X217301Y523254D01*
X217344Y523272D01*
X217391Y523280D01*
X217448Y523314D01*
X217508Y523339D01*
X217543Y523370D01*
X217584Y523395D01*
X217626Y523446D01*
X217674Y523490D01*
X217696Y523532D01*
X217725Y523569D01*
X217746Y523631D01*
X217777Y523690D01*
X217785Y523744D01*
X217797Y523781D01*
X217796Y523821D01*
X217804Y523875D01*
X217804Y527685D01*
X217793Y527750D01*
X217791Y527816D01*
X217773Y527859D01*
X217765Y527906D01*
X217731Y527963D01*
X217706Y528023D01*
X217675Y528058D01*
X217650Y528099D01*
X217599Y528141D01*
X217555Y528189D01*
X217513Y528211D01*
X217476Y528240D01*
X217414Y528261D01*
X217355Y528292D01*
X217301Y528300D01*
X217264Y528312D01*
X217224Y528311D01*
X217170Y528319D01*
X214630Y528319D01*
X214565Y528308D01*
X214499Y528306D01*
X214456Y528288D01*
X214409Y528280D01*
X214352Y528246D01*
X214292Y528221D01*
X214257Y528190D01*
X214216Y528165D01*
X214175Y528114D01*
X214126Y528070D01*
X214104Y528028D01*
X214075Y527991D01*
X214054Y527929D01*
X214023Y527870D01*
X214015Y527816D01*
X214003Y527779D01*
X214003Y527775D01*
X214003Y527774D01*
X214004Y527739D01*
X213996Y527685D01*
X213996Y523875D01*
X214007Y523810D01*
X214009Y523744D01*
X214027Y523701D01*
X214035Y523654D01*
X214069Y523597D01*
X214094Y523537D01*
X214125Y523502D01*
X214150Y523461D01*
X214201Y523420D01*
X214245Y523371D01*
X214287Y523349D01*
X214324Y523320D01*
X214386Y523299D01*
X214445Y523268D01*
X214499Y523260D01*
X214536Y523248D01*
X214576Y523249D01*
X214630Y523241D01*
X217170Y523241D01*
X217235Y523252D01*
G37*
G36*
X539815Y523252D02*
X539815Y523252D01*
X539881Y523254D01*
X539924Y523272D01*
X539971Y523280D01*
X540028Y523314D01*
X540088Y523339D01*
X540123Y523370D01*
X540164Y523395D01*
X540206Y523446D01*
X540254Y523490D01*
X540276Y523532D01*
X540305Y523569D01*
X540326Y523631D01*
X540357Y523690D01*
X540365Y523744D01*
X540377Y523781D01*
X540376Y523821D01*
X540384Y523875D01*
X540384Y527685D01*
X540373Y527750D01*
X540371Y527816D01*
X540353Y527859D01*
X540345Y527906D01*
X540311Y527963D01*
X540286Y528023D01*
X540255Y528058D01*
X540230Y528099D01*
X540179Y528141D01*
X540135Y528189D01*
X540093Y528211D01*
X540056Y528240D01*
X539994Y528261D01*
X539935Y528292D01*
X539881Y528300D01*
X539844Y528312D01*
X539804Y528311D01*
X539750Y528319D01*
X537210Y528319D01*
X537145Y528308D01*
X537079Y528306D01*
X537036Y528288D01*
X536989Y528280D01*
X536932Y528246D01*
X536872Y528221D01*
X536837Y528190D01*
X536796Y528165D01*
X536755Y528114D01*
X536706Y528070D01*
X536684Y528028D01*
X536655Y527991D01*
X536634Y527929D01*
X536603Y527870D01*
X536595Y527816D01*
X536583Y527779D01*
X536583Y527775D01*
X536583Y527774D01*
X536584Y527739D01*
X536576Y527685D01*
X536576Y523875D01*
X536587Y523810D01*
X536589Y523744D01*
X536607Y523701D01*
X536615Y523654D01*
X536649Y523597D01*
X536674Y523537D01*
X536705Y523502D01*
X536730Y523461D01*
X536781Y523420D01*
X536825Y523371D01*
X536867Y523349D01*
X536904Y523320D01*
X536966Y523299D01*
X537025Y523268D01*
X537079Y523260D01*
X537116Y523248D01*
X537156Y523249D01*
X537210Y523241D01*
X539750Y523241D01*
X539815Y523252D01*
G37*
G36*
X565215Y497852D02*
X565215Y497852D01*
X565281Y497854D01*
X565324Y497872D01*
X565371Y497880D01*
X565428Y497914D01*
X565488Y497939D01*
X565523Y497970D01*
X565564Y497995D01*
X565606Y498046D01*
X565654Y498090D01*
X565676Y498132D01*
X565705Y498169D01*
X565726Y498231D01*
X565757Y498290D01*
X565765Y498344D01*
X565777Y498381D01*
X565776Y498421D01*
X565784Y498475D01*
X565784Y502285D01*
X565773Y502350D01*
X565771Y502416D01*
X565753Y502459D01*
X565745Y502506D01*
X565711Y502563D01*
X565686Y502623D01*
X565655Y502658D01*
X565630Y502699D01*
X565579Y502741D01*
X565535Y502789D01*
X565493Y502811D01*
X565456Y502840D01*
X565394Y502861D01*
X565335Y502892D01*
X565281Y502900D01*
X565244Y502912D01*
X565204Y502911D01*
X565150Y502919D01*
X562610Y502919D01*
X562545Y502908D01*
X562479Y502906D01*
X562436Y502888D01*
X562389Y502880D01*
X562332Y502846D01*
X562272Y502821D01*
X562237Y502790D01*
X562196Y502765D01*
X562155Y502714D01*
X562106Y502670D01*
X562084Y502628D01*
X562055Y502591D01*
X562034Y502529D01*
X562003Y502470D01*
X561995Y502416D01*
X561983Y502379D01*
X561983Y502375D01*
X561983Y502374D01*
X561984Y502339D01*
X561976Y502285D01*
X561976Y498475D01*
X561987Y498410D01*
X561989Y498344D01*
X562007Y498301D01*
X562015Y498254D01*
X562049Y498197D01*
X562074Y498137D01*
X562105Y498102D01*
X562130Y498061D01*
X562181Y498020D01*
X562225Y497971D01*
X562267Y497949D01*
X562304Y497920D01*
X562366Y497899D01*
X562425Y497868D01*
X562479Y497860D01*
X562516Y497848D01*
X562556Y497849D01*
X562610Y497841D01*
X565150Y497841D01*
X565215Y497852D01*
G37*
G36*
X887795Y497852D02*
X887795Y497852D01*
X887861Y497854D01*
X887904Y497872D01*
X887951Y497880D01*
X888008Y497914D01*
X888068Y497939D01*
X888103Y497970D01*
X888144Y497995D01*
X888186Y498046D01*
X888234Y498090D01*
X888256Y498132D01*
X888285Y498169D01*
X888306Y498231D01*
X888337Y498290D01*
X888345Y498344D01*
X888357Y498381D01*
X888356Y498421D01*
X888364Y498475D01*
X888364Y502285D01*
X888353Y502350D01*
X888351Y502416D01*
X888333Y502459D01*
X888325Y502506D01*
X888291Y502563D01*
X888266Y502623D01*
X888235Y502658D01*
X888210Y502699D01*
X888159Y502741D01*
X888115Y502789D01*
X888073Y502811D01*
X888036Y502840D01*
X887974Y502861D01*
X887915Y502892D01*
X887861Y502900D01*
X887824Y502912D01*
X887784Y502911D01*
X887730Y502919D01*
X885190Y502919D01*
X885125Y502908D01*
X885059Y502906D01*
X885016Y502888D01*
X884969Y502880D01*
X884912Y502846D01*
X884852Y502821D01*
X884817Y502790D01*
X884776Y502765D01*
X884735Y502714D01*
X884686Y502670D01*
X884664Y502628D01*
X884635Y502591D01*
X884614Y502529D01*
X884583Y502470D01*
X884575Y502416D01*
X884563Y502379D01*
X884563Y502375D01*
X884563Y502374D01*
X884564Y502339D01*
X884556Y502285D01*
X884556Y498475D01*
X884567Y498410D01*
X884569Y498344D01*
X884587Y498301D01*
X884595Y498254D01*
X884629Y498197D01*
X884654Y498137D01*
X884685Y498102D01*
X884710Y498061D01*
X884761Y498020D01*
X884805Y497971D01*
X884847Y497949D01*
X884884Y497920D01*
X884946Y497899D01*
X885005Y497868D01*
X885059Y497860D01*
X885096Y497848D01*
X885136Y497849D01*
X885190Y497841D01*
X887730Y497841D01*
X887795Y497852D01*
G37*
G36*
X412815Y497852D02*
X412815Y497852D01*
X412881Y497854D01*
X412924Y497872D01*
X412971Y497880D01*
X413028Y497914D01*
X413088Y497939D01*
X413123Y497970D01*
X413164Y497995D01*
X413206Y498046D01*
X413254Y498090D01*
X413276Y498132D01*
X413305Y498169D01*
X413326Y498231D01*
X413357Y498290D01*
X413365Y498344D01*
X413377Y498381D01*
X413376Y498421D01*
X413384Y498475D01*
X413384Y502285D01*
X413373Y502350D01*
X413371Y502416D01*
X413353Y502459D01*
X413345Y502506D01*
X413311Y502563D01*
X413286Y502623D01*
X413255Y502658D01*
X413230Y502699D01*
X413179Y502741D01*
X413135Y502789D01*
X413093Y502811D01*
X413056Y502840D01*
X412994Y502861D01*
X412935Y502892D01*
X412881Y502900D01*
X412844Y502912D01*
X412804Y502911D01*
X412750Y502919D01*
X410210Y502919D01*
X410145Y502908D01*
X410079Y502906D01*
X410036Y502888D01*
X409989Y502880D01*
X409932Y502846D01*
X409872Y502821D01*
X409837Y502790D01*
X409796Y502765D01*
X409755Y502714D01*
X409706Y502670D01*
X409684Y502628D01*
X409655Y502591D01*
X409634Y502529D01*
X409603Y502470D01*
X409595Y502416D01*
X409583Y502379D01*
X409583Y502375D01*
X409583Y502374D01*
X409584Y502339D01*
X409576Y502285D01*
X409576Y498475D01*
X409587Y498410D01*
X409589Y498344D01*
X409607Y498301D01*
X409615Y498254D01*
X409649Y498197D01*
X409674Y498137D01*
X409705Y498102D01*
X409730Y498061D01*
X409781Y498020D01*
X409825Y497971D01*
X409867Y497949D01*
X409904Y497920D01*
X409966Y497899D01*
X410025Y497868D01*
X410079Y497860D01*
X410116Y497848D01*
X410156Y497849D01*
X410210Y497841D01*
X412750Y497841D01*
X412815Y497852D01*
G37*
G36*
X1210375Y497852D02*
X1210375Y497852D01*
X1210441Y497854D01*
X1210484Y497872D01*
X1210531Y497880D01*
X1210588Y497914D01*
X1210648Y497939D01*
X1210683Y497970D01*
X1210724Y497995D01*
X1210766Y498046D01*
X1210814Y498090D01*
X1210836Y498132D01*
X1210865Y498169D01*
X1210886Y498231D01*
X1210917Y498290D01*
X1210925Y498344D01*
X1210937Y498381D01*
X1210936Y498421D01*
X1210944Y498475D01*
X1210944Y502285D01*
X1210933Y502350D01*
X1210931Y502416D01*
X1210913Y502459D01*
X1210905Y502506D01*
X1210871Y502563D01*
X1210846Y502623D01*
X1210815Y502658D01*
X1210790Y502699D01*
X1210739Y502741D01*
X1210695Y502789D01*
X1210653Y502811D01*
X1210616Y502840D01*
X1210554Y502861D01*
X1210495Y502892D01*
X1210441Y502900D01*
X1210404Y502912D01*
X1210364Y502911D01*
X1210310Y502919D01*
X1207770Y502919D01*
X1207705Y502908D01*
X1207639Y502906D01*
X1207596Y502888D01*
X1207549Y502880D01*
X1207492Y502846D01*
X1207432Y502821D01*
X1207397Y502790D01*
X1207356Y502765D01*
X1207315Y502714D01*
X1207266Y502670D01*
X1207244Y502628D01*
X1207215Y502591D01*
X1207194Y502529D01*
X1207163Y502470D01*
X1207155Y502416D01*
X1207143Y502379D01*
X1207143Y502375D01*
X1207143Y502374D01*
X1207144Y502339D01*
X1207136Y502285D01*
X1207136Y498475D01*
X1207147Y498410D01*
X1207149Y498344D01*
X1207167Y498301D01*
X1207175Y498254D01*
X1207209Y498197D01*
X1207234Y498137D01*
X1207265Y498102D01*
X1207290Y498061D01*
X1207341Y498020D01*
X1207385Y497971D01*
X1207427Y497949D01*
X1207464Y497920D01*
X1207526Y497899D01*
X1207585Y497868D01*
X1207639Y497860D01*
X1207676Y497848D01*
X1207716Y497849D01*
X1207770Y497841D01*
X1210310Y497841D01*
X1210375Y497852D01*
G37*
G36*
X90235Y497852D02*
X90235Y497852D01*
X90301Y497854D01*
X90344Y497872D01*
X90391Y497880D01*
X90448Y497914D01*
X90508Y497939D01*
X90543Y497970D01*
X90584Y497995D01*
X90626Y498046D01*
X90674Y498090D01*
X90696Y498132D01*
X90725Y498169D01*
X90746Y498231D01*
X90777Y498290D01*
X90785Y498344D01*
X90797Y498381D01*
X90796Y498421D01*
X90804Y498475D01*
X90804Y502285D01*
X90793Y502350D01*
X90791Y502416D01*
X90773Y502459D01*
X90765Y502506D01*
X90731Y502563D01*
X90706Y502623D01*
X90675Y502658D01*
X90650Y502699D01*
X90599Y502741D01*
X90555Y502789D01*
X90513Y502811D01*
X90476Y502840D01*
X90414Y502861D01*
X90355Y502892D01*
X90301Y502900D01*
X90264Y502912D01*
X90224Y502911D01*
X90170Y502919D01*
X87630Y502919D01*
X87565Y502908D01*
X87499Y502906D01*
X87456Y502888D01*
X87409Y502880D01*
X87352Y502846D01*
X87292Y502821D01*
X87257Y502790D01*
X87216Y502765D01*
X87175Y502714D01*
X87126Y502670D01*
X87104Y502628D01*
X87075Y502591D01*
X87054Y502529D01*
X87023Y502470D01*
X87015Y502416D01*
X87003Y502379D01*
X87003Y502375D01*
X87003Y502374D01*
X87004Y502339D01*
X86996Y502285D01*
X86996Y498475D01*
X87007Y498410D01*
X87009Y498344D01*
X87027Y498301D01*
X87035Y498254D01*
X87069Y498197D01*
X87094Y498137D01*
X87125Y498102D01*
X87150Y498061D01*
X87201Y498020D01*
X87245Y497971D01*
X87287Y497949D01*
X87324Y497920D01*
X87386Y497899D01*
X87445Y497868D01*
X87499Y497860D01*
X87536Y497848D01*
X87576Y497849D01*
X87630Y497841D01*
X90170Y497841D01*
X90235Y497852D01*
G37*
G36*
X242635Y497852D02*
X242635Y497852D01*
X242701Y497854D01*
X242744Y497872D01*
X242791Y497880D01*
X242848Y497914D01*
X242908Y497939D01*
X242943Y497970D01*
X242984Y497995D01*
X243026Y498046D01*
X243074Y498090D01*
X243096Y498132D01*
X243125Y498169D01*
X243146Y498231D01*
X243177Y498290D01*
X243185Y498344D01*
X243197Y498381D01*
X243196Y498421D01*
X243204Y498475D01*
X243204Y502285D01*
X243193Y502350D01*
X243191Y502416D01*
X243173Y502459D01*
X243165Y502506D01*
X243131Y502563D01*
X243106Y502623D01*
X243075Y502658D01*
X243050Y502699D01*
X242999Y502741D01*
X242955Y502789D01*
X242913Y502811D01*
X242876Y502840D01*
X242814Y502861D01*
X242755Y502892D01*
X242701Y502900D01*
X242664Y502912D01*
X242624Y502911D01*
X242570Y502919D01*
X240030Y502919D01*
X239965Y502908D01*
X239899Y502906D01*
X239856Y502888D01*
X239809Y502880D01*
X239752Y502846D01*
X239692Y502821D01*
X239657Y502790D01*
X239616Y502765D01*
X239575Y502714D01*
X239526Y502670D01*
X239504Y502628D01*
X239475Y502591D01*
X239454Y502529D01*
X239423Y502470D01*
X239415Y502416D01*
X239403Y502379D01*
X239403Y502375D01*
X239403Y502374D01*
X239404Y502339D01*
X239396Y502285D01*
X239396Y498475D01*
X239407Y498410D01*
X239409Y498344D01*
X239427Y498301D01*
X239435Y498254D01*
X239469Y498197D01*
X239494Y498137D01*
X239525Y498102D01*
X239550Y498061D01*
X239601Y498020D01*
X239645Y497971D01*
X239687Y497949D01*
X239724Y497920D01*
X239786Y497899D01*
X239845Y497868D01*
X239899Y497860D01*
X239936Y497848D01*
X239976Y497849D01*
X240030Y497841D01*
X242570Y497841D01*
X242635Y497852D01*
G37*
G36*
X735395Y497852D02*
X735395Y497852D01*
X735461Y497854D01*
X735504Y497872D01*
X735551Y497880D01*
X735608Y497914D01*
X735668Y497939D01*
X735703Y497970D01*
X735744Y497995D01*
X735786Y498046D01*
X735834Y498090D01*
X735856Y498132D01*
X735885Y498169D01*
X735906Y498231D01*
X735937Y498290D01*
X735945Y498344D01*
X735957Y498381D01*
X735956Y498421D01*
X735964Y498475D01*
X735964Y502285D01*
X735953Y502350D01*
X735951Y502416D01*
X735933Y502459D01*
X735925Y502506D01*
X735891Y502563D01*
X735866Y502623D01*
X735835Y502658D01*
X735810Y502699D01*
X735759Y502741D01*
X735715Y502789D01*
X735673Y502811D01*
X735636Y502840D01*
X735574Y502861D01*
X735515Y502892D01*
X735461Y502900D01*
X735424Y502912D01*
X735384Y502911D01*
X735330Y502919D01*
X732790Y502919D01*
X732725Y502908D01*
X732659Y502906D01*
X732616Y502888D01*
X732569Y502880D01*
X732512Y502846D01*
X732452Y502821D01*
X732417Y502790D01*
X732376Y502765D01*
X732335Y502714D01*
X732286Y502670D01*
X732264Y502628D01*
X732235Y502591D01*
X732214Y502529D01*
X732183Y502470D01*
X732175Y502416D01*
X732163Y502379D01*
X732163Y502375D01*
X732163Y502374D01*
X732164Y502339D01*
X732156Y502285D01*
X732156Y498475D01*
X732167Y498410D01*
X732169Y498344D01*
X732187Y498301D01*
X732195Y498254D01*
X732229Y498197D01*
X732254Y498137D01*
X732285Y498102D01*
X732310Y498061D01*
X732361Y498020D01*
X732405Y497971D01*
X732447Y497949D01*
X732484Y497920D01*
X732546Y497899D01*
X732605Y497868D01*
X732659Y497860D01*
X732696Y497848D01*
X732736Y497849D01*
X732790Y497841D01*
X735330Y497841D01*
X735395Y497852D01*
G37*
G36*
X1057975Y497852D02*
X1057975Y497852D01*
X1058041Y497854D01*
X1058084Y497872D01*
X1058131Y497880D01*
X1058188Y497914D01*
X1058248Y497939D01*
X1058283Y497970D01*
X1058324Y497995D01*
X1058366Y498046D01*
X1058414Y498090D01*
X1058436Y498132D01*
X1058465Y498169D01*
X1058486Y498231D01*
X1058517Y498290D01*
X1058525Y498344D01*
X1058537Y498381D01*
X1058536Y498421D01*
X1058544Y498475D01*
X1058544Y502285D01*
X1058533Y502350D01*
X1058531Y502416D01*
X1058513Y502459D01*
X1058505Y502506D01*
X1058471Y502563D01*
X1058446Y502623D01*
X1058415Y502658D01*
X1058390Y502699D01*
X1058339Y502741D01*
X1058295Y502789D01*
X1058253Y502811D01*
X1058216Y502840D01*
X1058154Y502861D01*
X1058095Y502892D01*
X1058041Y502900D01*
X1058004Y502912D01*
X1057964Y502911D01*
X1057910Y502919D01*
X1055370Y502919D01*
X1055305Y502908D01*
X1055239Y502906D01*
X1055196Y502888D01*
X1055149Y502880D01*
X1055092Y502846D01*
X1055032Y502821D01*
X1054997Y502790D01*
X1054956Y502765D01*
X1054915Y502714D01*
X1054866Y502670D01*
X1054844Y502628D01*
X1054815Y502591D01*
X1054794Y502529D01*
X1054763Y502470D01*
X1054755Y502416D01*
X1054743Y502379D01*
X1054743Y502375D01*
X1054743Y502374D01*
X1054744Y502339D01*
X1054736Y502285D01*
X1054736Y498475D01*
X1054747Y498410D01*
X1054749Y498344D01*
X1054767Y498301D01*
X1054775Y498254D01*
X1054809Y498197D01*
X1054834Y498137D01*
X1054865Y498102D01*
X1054890Y498061D01*
X1054941Y498020D01*
X1054985Y497971D01*
X1055027Y497949D01*
X1055064Y497920D01*
X1055126Y497899D01*
X1055185Y497868D01*
X1055239Y497860D01*
X1055276Y497848D01*
X1055316Y497849D01*
X1055370Y497841D01*
X1057910Y497841D01*
X1057975Y497852D01*
G37*
G36*
X1261175Y243852D02*
X1261175Y243852D01*
X1261241Y243854D01*
X1261284Y243872D01*
X1261331Y243880D01*
X1261388Y243914D01*
X1261448Y243939D01*
X1261483Y243970D01*
X1261524Y243995D01*
X1261566Y244046D01*
X1261614Y244090D01*
X1261636Y244132D01*
X1261665Y244169D01*
X1261686Y244231D01*
X1261717Y244290D01*
X1261725Y244344D01*
X1261737Y244381D01*
X1261736Y244421D01*
X1261744Y244475D01*
X1261744Y248285D01*
X1261733Y248350D01*
X1261731Y248416D01*
X1261713Y248459D01*
X1261705Y248506D01*
X1261671Y248563D01*
X1261646Y248623D01*
X1261615Y248658D01*
X1261590Y248699D01*
X1261539Y248741D01*
X1261495Y248789D01*
X1261453Y248811D01*
X1261416Y248840D01*
X1261354Y248861D01*
X1261295Y248892D01*
X1261241Y248900D01*
X1261204Y248912D01*
X1261164Y248911D01*
X1261110Y248919D01*
X1258570Y248919D01*
X1258505Y248908D01*
X1258439Y248906D01*
X1258396Y248888D01*
X1258349Y248880D01*
X1258292Y248846D01*
X1258232Y248821D01*
X1258197Y248790D01*
X1258156Y248765D01*
X1258115Y248714D01*
X1258066Y248670D01*
X1258044Y248628D01*
X1258015Y248591D01*
X1257994Y248529D01*
X1257963Y248470D01*
X1257955Y248416D01*
X1257943Y248379D01*
X1257943Y248375D01*
X1257943Y248374D01*
X1257944Y248339D01*
X1257936Y248285D01*
X1257936Y244475D01*
X1257947Y244410D01*
X1257949Y244344D01*
X1257967Y244301D01*
X1257975Y244254D01*
X1258009Y244197D01*
X1258034Y244137D01*
X1258065Y244102D01*
X1258090Y244061D01*
X1258141Y244020D01*
X1258185Y243971D01*
X1258227Y243949D01*
X1258264Y243920D01*
X1258326Y243899D01*
X1258385Y243868D01*
X1258439Y243860D01*
X1258476Y243848D01*
X1258516Y243849D01*
X1258570Y243841D01*
X1261110Y243841D01*
X1261175Y243852D01*
G37*
G36*
X938595Y243852D02*
X938595Y243852D01*
X938661Y243854D01*
X938704Y243872D01*
X938751Y243880D01*
X938808Y243914D01*
X938868Y243939D01*
X938903Y243970D01*
X938944Y243995D01*
X938986Y244046D01*
X939034Y244090D01*
X939056Y244132D01*
X939085Y244169D01*
X939106Y244231D01*
X939137Y244290D01*
X939145Y244344D01*
X939157Y244381D01*
X939156Y244421D01*
X939164Y244475D01*
X939164Y248285D01*
X939153Y248350D01*
X939151Y248416D01*
X939133Y248459D01*
X939125Y248506D01*
X939091Y248563D01*
X939066Y248623D01*
X939035Y248658D01*
X939010Y248699D01*
X938959Y248741D01*
X938915Y248789D01*
X938873Y248811D01*
X938836Y248840D01*
X938774Y248861D01*
X938715Y248892D01*
X938661Y248900D01*
X938624Y248912D01*
X938584Y248911D01*
X938530Y248919D01*
X935990Y248919D01*
X935925Y248908D01*
X935859Y248906D01*
X935816Y248888D01*
X935769Y248880D01*
X935712Y248846D01*
X935652Y248821D01*
X935617Y248790D01*
X935576Y248765D01*
X935535Y248714D01*
X935486Y248670D01*
X935464Y248628D01*
X935435Y248591D01*
X935414Y248529D01*
X935383Y248470D01*
X935375Y248416D01*
X935363Y248379D01*
X935363Y248375D01*
X935363Y248374D01*
X935364Y248339D01*
X935356Y248285D01*
X935356Y244475D01*
X935367Y244410D01*
X935369Y244344D01*
X935387Y244301D01*
X935395Y244254D01*
X935429Y244197D01*
X935454Y244137D01*
X935485Y244102D01*
X935510Y244061D01*
X935561Y244020D01*
X935605Y243971D01*
X935647Y243949D01*
X935684Y243920D01*
X935746Y243899D01*
X935805Y243868D01*
X935859Y243860D01*
X935896Y243848D01*
X935936Y243849D01*
X935990Y243841D01*
X938530Y243841D01*
X938595Y243852D01*
G37*
G36*
X616015Y243852D02*
X616015Y243852D01*
X616081Y243854D01*
X616124Y243872D01*
X616171Y243880D01*
X616228Y243914D01*
X616288Y243939D01*
X616323Y243970D01*
X616364Y243995D01*
X616406Y244046D01*
X616454Y244090D01*
X616476Y244132D01*
X616505Y244169D01*
X616526Y244231D01*
X616557Y244290D01*
X616565Y244344D01*
X616577Y244381D01*
X616576Y244421D01*
X616584Y244475D01*
X616584Y248285D01*
X616573Y248350D01*
X616571Y248416D01*
X616553Y248459D01*
X616545Y248506D01*
X616511Y248563D01*
X616486Y248623D01*
X616455Y248658D01*
X616430Y248699D01*
X616379Y248741D01*
X616335Y248789D01*
X616293Y248811D01*
X616256Y248840D01*
X616194Y248861D01*
X616135Y248892D01*
X616081Y248900D01*
X616044Y248912D01*
X616004Y248911D01*
X615950Y248919D01*
X613410Y248919D01*
X613345Y248908D01*
X613279Y248906D01*
X613236Y248888D01*
X613189Y248880D01*
X613132Y248846D01*
X613072Y248821D01*
X613037Y248790D01*
X612996Y248765D01*
X612955Y248714D01*
X612906Y248670D01*
X612884Y248628D01*
X612855Y248591D01*
X612834Y248529D01*
X612803Y248470D01*
X612795Y248416D01*
X612783Y248379D01*
X612783Y248375D01*
X612783Y248374D01*
X612784Y248339D01*
X612776Y248285D01*
X612776Y244475D01*
X612787Y244410D01*
X612789Y244344D01*
X612807Y244301D01*
X612815Y244254D01*
X612849Y244197D01*
X612874Y244137D01*
X612905Y244102D01*
X612930Y244061D01*
X612981Y244020D01*
X613025Y243971D01*
X613067Y243949D01*
X613104Y243920D01*
X613166Y243899D01*
X613225Y243868D01*
X613279Y243860D01*
X613316Y243848D01*
X613356Y243849D01*
X613410Y243841D01*
X615950Y243841D01*
X616015Y243852D01*
G37*
G36*
X293435Y243852D02*
X293435Y243852D01*
X293501Y243854D01*
X293544Y243872D01*
X293591Y243880D01*
X293648Y243914D01*
X293708Y243939D01*
X293743Y243970D01*
X293784Y243995D01*
X293826Y244046D01*
X293874Y244090D01*
X293896Y244132D01*
X293925Y244169D01*
X293946Y244231D01*
X293977Y244290D01*
X293985Y244344D01*
X293997Y244381D01*
X293996Y244421D01*
X294004Y244475D01*
X294004Y248285D01*
X293993Y248350D01*
X293991Y248416D01*
X293973Y248459D01*
X293965Y248506D01*
X293931Y248563D01*
X293906Y248623D01*
X293875Y248658D01*
X293850Y248699D01*
X293799Y248741D01*
X293755Y248789D01*
X293713Y248811D01*
X293676Y248840D01*
X293614Y248861D01*
X293555Y248892D01*
X293501Y248900D01*
X293464Y248912D01*
X293424Y248911D01*
X293370Y248919D01*
X290830Y248919D01*
X290765Y248908D01*
X290699Y248906D01*
X290656Y248888D01*
X290609Y248880D01*
X290552Y248846D01*
X290492Y248821D01*
X290457Y248790D01*
X290416Y248765D01*
X290375Y248714D01*
X290326Y248670D01*
X290304Y248628D01*
X290275Y248591D01*
X290254Y248529D01*
X290223Y248470D01*
X290215Y248416D01*
X290203Y248379D01*
X290203Y248375D01*
X290203Y248374D01*
X290204Y248339D01*
X290196Y248285D01*
X290196Y244475D01*
X290207Y244410D01*
X290209Y244344D01*
X290227Y244301D01*
X290235Y244254D01*
X290269Y244197D01*
X290294Y244137D01*
X290325Y244102D01*
X290350Y244061D01*
X290401Y244020D01*
X290445Y243971D01*
X290487Y243949D01*
X290524Y243920D01*
X290586Y243899D01*
X290645Y243868D01*
X290699Y243860D01*
X290736Y243848D01*
X290776Y243849D01*
X290830Y243841D01*
X293370Y243841D01*
X293435Y243852D01*
G37*
G36*
X938595Y233692D02*
X938595Y233692D01*
X938661Y233694D01*
X938704Y233712D01*
X938751Y233720D01*
X938808Y233754D01*
X938868Y233779D01*
X938903Y233810D01*
X938944Y233835D01*
X938986Y233886D01*
X939034Y233930D01*
X939056Y233972D01*
X939085Y234009D01*
X939106Y234071D01*
X939137Y234130D01*
X939145Y234184D01*
X939157Y234221D01*
X939156Y234261D01*
X939164Y234315D01*
X939164Y238125D01*
X939153Y238190D01*
X939151Y238256D01*
X939133Y238299D01*
X939125Y238346D01*
X939091Y238403D01*
X939066Y238463D01*
X939035Y238498D01*
X939010Y238539D01*
X938959Y238581D01*
X938915Y238629D01*
X938873Y238651D01*
X938836Y238680D01*
X938774Y238701D01*
X938715Y238732D01*
X938661Y238740D01*
X938624Y238752D01*
X938584Y238751D01*
X938530Y238759D01*
X935990Y238759D01*
X935925Y238748D01*
X935859Y238746D01*
X935816Y238728D01*
X935769Y238720D01*
X935712Y238686D01*
X935652Y238661D01*
X935617Y238630D01*
X935576Y238605D01*
X935535Y238554D01*
X935486Y238510D01*
X935464Y238468D01*
X935435Y238431D01*
X935414Y238369D01*
X935383Y238310D01*
X935375Y238256D01*
X935363Y238219D01*
X935363Y238215D01*
X935363Y238214D01*
X935364Y238179D01*
X935356Y238125D01*
X935356Y234315D01*
X935367Y234250D01*
X935369Y234184D01*
X935387Y234141D01*
X935395Y234094D01*
X935429Y234037D01*
X935454Y233977D01*
X935485Y233942D01*
X935510Y233901D01*
X935561Y233860D01*
X935605Y233811D01*
X935647Y233789D01*
X935684Y233760D01*
X935746Y233739D01*
X935805Y233708D01*
X935859Y233700D01*
X935896Y233688D01*
X935936Y233689D01*
X935990Y233681D01*
X938530Y233681D01*
X938595Y233692D01*
G37*
G36*
X1261175Y233692D02*
X1261175Y233692D01*
X1261241Y233694D01*
X1261284Y233712D01*
X1261331Y233720D01*
X1261388Y233754D01*
X1261448Y233779D01*
X1261483Y233810D01*
X1261524Y233835D01*
X1261566Y233886D01*
X1261614Y233930D01*
X1261636Y233972D01*
X1261665Y234009D01*
X1261686Y234071D01*
X1261717Y234130D01*
X1261725Y234184D01*
X1261737Y234221D01*
X1261736Y234261D01*
X1261744Y234315D01*
X1261744Y238125D01*
X1261733Y238190D01*
X1261731Y238256D01*
X1261713Y238299D01*
X1261705Y238346D01*
X1261671Y238403D01*
X1261646Y238463D01*
X1261615Y238498D01*
X1261590Y238539D01*
X1261539Y238581D01*
X1261495Y238629D01*
X1261453Y238651D01*
X1261416Y238680D01*
X1261354Y238701D01*
X1261295Y238732D01*
X1261241Y238740D01*
X1261204Y238752D01*
X1261164Y238751D01*
X1261110Y238759D01*
X1258570Y238759D01*
X1258505Y238748D01*
X1258439Y238746D01*
X1258396Y238728D01*
X1258349Y238720D01*
X1258292Y238686D01*
X1258232Y238661D01*
X1258197Y238630D01*
X1258156Y238605D01*
X1258115Y238554D01*
X1258066Y238510D01*
X1258044Y238468D01*
X1258015Y238431D01*
X1257994Y238369D01*
X1257963Y238310D01*
X1257955Y238256D01*
X1257943Y238219D01*
X1257943Y238215D01*
X1257943Y238214D01*
X1257944Y238179D01*
X1257936Y238125D01*
X1257936Y234315D01*
X1257947Y234250D01*
X1257949Y234184D01*
X1257967Y234141D01*
X1257975Y234094D01*
X1258009Y234037D01*
X1258034Y233977D01*
X1258065Y233942D01*
X1258090Y233901D01*
X1258141Y233860D01*
X1258185Y233811D01*
X1258227Y233789D01*
X1258264Y233760D01*
X1258326Y233739D01*
X1258385Y233708D01*
X1258439Y233700D01*
X1258476Y233688D01*
X1258516Y233689D01*
X1258570Y233681D01*
X1261110Y233681D01*
X1261175Y233692D01*
G37*
G36*
X293435Y233692D02*
X293435Y233692D01*
X293501Y233694D01*
X293544Y233712D01*
X293591Y233720D01*
X293648Y233754D01*
X293708Y233779D01*
X293743Y233810D01*
X293784Y233835D01*
X293826Y233886D01*
X293874Y233930D01*
X293896Y233972D01*
X293925Y234009D01*
X293946Y234071D01*
X293977Y234130D01*
X293985Y234184D01*
X293997Y234221D01*
X293996Y234261D01*
X294004Y234315D01*
X294004Y238125D01*
X293993Y238190D01*
X293991Y238256D01*
X293973Y238299D01*
X293965Y238346D01*
X293931Y238403D01*
X293906Y238463D01*
X293875Y238498D01*
X293850Y238539D01*
X293799Y238581D01*
X293755Y238629D01*
X293713Y238651D01*
X293676Y238680D01*
X293614Y238701D01*
X293555Y238732D01*
X293501Y238740D01*
X293464Y238752D01*
X293424Y238751D01*
X293370Y238759D01*
X290830Y238759D01*
X290765Y238748D01*
X290699Y238746D01*
X290656Y238728D01*
X290609Y238720D01*
X290552Y238686D01*
X290492Y238661D01*
X290457Y238630D01*
X290416Y238605D01*
X290375Y238554D01*
X290326Y238510D01*
X290304Y238468D01*
X290275Y238431D01*
X290254Y238369D01*
X290223Y238310D01*
X290215Y238256D01*
X290203Y238219D01*
X290203Y238215D01*
X290203Y238214D01*
X290204Y238179D01*
X290196Y238125D01*
X290196Y234315D01*
X290207Y234250D01*
X290209Y234184D01*
X290227Y234141D01*
X290235Y234094D01*
X290269Y234037D01*
X290294Y233977D01*
X290325Y233942D01*
X290350Y233901D01*
X290401Y233860D01*
X290445Y233811D01*
X290487Y233789D01*
X290524Y233760D01*
X290586Y233739D01*
X290645Y233708D01*
X290699Y233700D01*
X290736Y233688D01*
X290776Y233689D01*
X290830Y233681D01*
X293370Y233681D01*
X293435Y233692D01*
G37*
G36*
X862395Y200672D02*
X862395Y200672D01*
X862461Y200674D01*
X862504Y200692D01*
X862551Y200700D01*
X862608Y200734D01*
X862668Y200759D01*
X862703Y200790D01*
X862744Y200815D01*
X862786Y200866D01*
X862834Y200910D01*
X862856Y200952D01*
X862885Y200989D01*
X862906Y201051D01*
X862937Y201110D01*
X862945Y201164D01*
X862957Y201201D01*
X862956Y201241D01*
X862964Y201295D01*
X862964Y205105D01*
X862953Y205170D01*
X862951Y205236D01*
X862933Y205279D01*
X862925Y205326D01*
X862891Y205383D01*
X862866Y205443D01*
X862835Y205478D01*
X862810Y205519D01*
X862759Y205561D01*
X862715Y205609D01*
X862673Y205631D01*
X862636Y205660D01*
X862574Y205681D01*
X862515Y205712D01*
X862461Y205720D01*
X862424Y205732D01*
X862384Y205731D01*
X862330Y205739D01*
X859790Y205739D01*
X859725Y205728D01*
X859659Y205726D01*
X859616Y205708D01*
X859569Y205700D01*
X859512Y205666D01*
X859452Y205641D01*
X859417Y205610D01*
X859376Y205585D01*
X859335Y205534D01*
X859286Y205490D01*
X859264Y205448D01*
X859235Y205411D01*
X859214Y205349D01*
X859183Y205290D01*
X859175Y205236D01*
X859163Y205199D01*
X859163Y205195D01*
X859163Y205194D01*
X859164Y205159D01*
X859156Y205105D01*
X859156Y201295D01*
X859167Y201230D01*
X859169Y201164D01*
X859187Y201121D01*
X859195Y201074D01*
X859229Y201017D01*
X859254Y200957D01*
X859285Y200922D01*
X859310Y200881D01*
X859361Y200840D01*
X859405Y200791D01*
X859447Y200769D01*
X859484Y200740D01*
X859546Y200719D01*
X859605Y200688D01*
X859659Y200680D01*
X859696Y200668D01*
X859736Y200669D01*
X859790Y200661D01*
X862330Y200661D01*
X862395Y200672D01*
G37*
G36*
X217235Y200672D02*
X217235Y200672D01*
X217301Y200674D01*
X217344Y200692D01*
X217391Y200700D01*
X217448Y200734D01*
X217508Y200759D01*
X217543Y200790D01*
X217584Y200815D01*
X217626Y200866D01*
X217674Y200910D01*
X217696Y200952D01*
X217725Y200989D01*
X217746Y201051D01*
X217777Y201110D01*
X217785Y201164D01*
X217797Y201201D01*
X217796Y201241D01*
X217804Y201295D01*
X217804Y205105D01*
X217793Y205170D01*
X217791Y205236D01*
X217773Y205279D01*
X217765Y205326D01*
X217731Y205383D01*
X217706Y205443D01*
X217675Y205478D01*
X217650Y205519D01*
X217599Y205561D01*
X217555Y205609D01*
X217513Y205631D01*
X217476Y205660D01*
X217414Y205681D01*
X217355Y205712D01*
X217301Y205720D01*
X217264Y205732D01*
X217224Y205731D01*
X217170Y205739D01*
X214630Y205739D01*
X214565Y205728D01*
X214499Y205726D01*
X214456Y205708D01*
X214409Y205700D01*
X214352Y205666D01*
X214292Y205641D01*
X214257Y205610D01*
X214216Y205585D01*
X214175Y205534D01*
X214126Y205490D01*
X214104Y205448D01*
X214075Y205411D01*
X214054Y205349D01*
X214023Y205290D01*
X214015Y205236D01*
X214003Y205199D01*
X214003Y205195D01*
X214003Y205194D01*
X214004Y205159D01*
X213996Y205105D01*
X213996Y201295D01*
X214007Y201230D01*
X214009Y201164D01*
X214027Y201121D01*
X214035Y201074D01*
X214069Y201017D01*
X214094Y200957D01*
X214125Y200922D01*
X214150Y200881D01*
X214201Y200840D01*
X214245Y200791D01*
X214287Y200769D01*
X214324Y200740D01*
X214386Y200719D01*
X214445Y200688D01*
X214499Y200680D01*
X214536Y200668D01*
X214576Y200669D01*
X214630Y200661D01*
X217170Y200661D01*
X217235Y200672D01*
G37*
G36*
X1184975Y200672D02*
X1184975Y200672D01*
X1185041Y200674D01*
X1185084Y200692D01*
X1185131Y200700D01*
X1185188Y200734D01*
X1185248Y200759D01*
X1185283Y200790D01*
X1185324Y200815D01*
X1185366Y200866D01*
X1185414Y200910D01*
X1185436Y200952D01*
X1185465Y200989D01*
X1185486Y201051D01*
X1185517Y201110D01*
X1185525Y201164D01*
X1185537Y201201D01*
X1185536Y201241D01*
X1185544Y201295D01*
X1185544Y205105D01*
X1185533Y205170D01*
X1185531Y205236D01*
X1185513Y205279D01*
X1185505Y205326D01*
X1185471Y205383D01*
X1185446Y205443D01*
X1185415Y205478D01*
X1185390Y205519D01*
X1185339Y205561D01*
X1185295Y205609D01*
X1185253Y205631D01*
X1185216Y205660D01*
X1185154Y205681D01*
X1185095Y205712D01*
X1185041Y205720D01*
X1185004Y205732D01*
X1184964Y205731D01*
X1184910Y205739D01*
X1182370Y205739D01*
X1182305Y205728D01*
X1182239Y205726D01*
X1182196Y205708D01*
X1182149Y205700D01*
X1182092Y205666D01*
X1182032Y205641D01*
X1181997Y205610D01*
X1181956Y205585D01*
X1181915Y205534D01*
X1181866Y205490D01*
X1181844Y205448D01*
X1181815Y205411D01*
X1181794Y205349D01*
X1181763Y205290D01*
X1181755Y205236D01*
X1181743Y205199D01*
X1181743Y205195D01*
X1181743Y205194D01*
X1181744Y205159D01*
X1181736Y205105D01*
X1181736Y201295D01*
X1181747Y201230D01*
X1181749Y201164D01*
X1181767Y201121D01*
X1181775Y201074D01*
X1181809Y201017D01*
X1181834Y200957D01*
X1181865Y200922D01*
X1181890Y200881D01*
X1181941Y200840D01*
X1181985Y200791D01*
X1182027Y200769D01*
X1182064Y200740D01*
X1182126Y200719D01*
X1182185Y200688D01*
X1182239Y200680D01*
X1182276Y200668D01*
X1182316Y200669D01*
X1182370Y200661D01*
X1184910Y200661D01*
X1184975Y200672D01*
G37*
G36*
X539815Y200672D02*
X539815Y200672D01*
X539881Y200674D01*
X539924Y200692D01*
X539971Y200700D01*
X540028Y200734D01*
X540088Y200759D01*
X540123Y200790D01*
X540164Y200815D01*
X540206Y200866D01*
X540254Y200910D01*
X540276Y200952D01*
X540305Y200989D01*
X540326Y201051D01*
X540357Y201110D01*
X540365Y201164D01*
X540377Y201201D01*
X540376Y201241D01*
X540384Y201295D01*
X540384Y205105D01*
X540373Y205170D01*
X540371Y205236D01*
X540353Y205279D01*
X540345Y205326D01*
X540311Y205383D01*
X540286Y205443D01*
X540255Y205478D01*
X540230Y205519D01*
X540179Y205561D01*
X540135Y205609D01*
X540093Y205631D01*
X540056Y205660D01*
X539994Y205681D01*
X539935Y205712D01*
X539881Y205720D01*
X539844Y205732D01*
X539804Y205731D01*
X539750Y205739D01*
X537210Y205739D01*
X537145Y205728D01*
X537079Y205726D01*
X537036Y205708D01*
X536989Y205700D01*
X536932Y205666D01*
X536872Y205641D01*
X536837Y205610D01*
X536796Y205585D01*
X536755Y205534D01*
X536706Y205490D01*
X536684Y205448D01*
X536655Y205411D01*
X536634Y205349D01*
X536603Y205290D01*
X536595Y205236D01*
X536583Y205199D01*
X536583Y205195D01*
X536583Y205194D01*
X536584Y205159D01*
X536576Y205105D01*
X536576Y201295D01*
X536587Y201230D01*
X536589Y201164D01*
X536607Y201121D01*
X536615Y201074D01*
X536649Y201017D01*
X536674Y200957D01*
X536705Y200922D01*
X536730Y200881D01*
X536781Y200840D01*
X536825Y200791D01*
X536867Y200769D01*
X536904Y200740D01*
X536966Y200719D01*
X537025Y200688D01*
X537079Y200680D01*
X537116Y200668D01*
X537156Y200669D01*
X537210Y200661D01*
X539750Y200661D01*
X539815Y200672D01*
G37*
G36*
X887795Y175272D02*
X887795Y175272D01*
X887861Y175274D01*
X887904Y175292D01*
X887951Y175300D01*
X888008Y175334D01*
X888068Y175359D01*
X888103Y175390D01*
X888144Y175415D01*
X888186Y175466D01*
X888234Y175510D01*
X888256Y175552D01*
X888285Y175589D01*
X888306Y175651D01*
X888337Y175710D01*
X888345Y175764D01*
X888357Y175801D01*
X888356Y175841D01*
X888364Y175895D01*
X888364Y179705D01*
X888353Y179770D01*
X888351Y179836D01*
X888333Y179879D01*
X888325Y179926D01*
X888291Y179983D01*
X888266Y180043D01*
X888235Y180078D01*
X888210Y180119D01*
X888159Y180161D01*
X888115Y180209D01*
X888073Y180231D01*
X888036Y180260D01*
X887974Y180281D01*
X887915Y180312D01*
X887861Y180320D01*
X887824Y180332D01*
X887784Y180331D01*
X887730Y180339D01*
X885190Y180339D01*
X885125Y180328D01*
X885059Y180326D01*
X885016Y180308D01*
X884969Y180300D01*
X884912Y180266D01*
X884852Y180241D01*
X884817Y180210D01*
X884776Y180185D01*
X884735Y180134D01*
X884686Y180090D01*
X884664Y180048D01*
X884635Y180011D01*
X884614Y179949D01*
X884583Y179890D01*
X884575Y179836D01*
X884563Y179799D01*
X884563Y179795D01*
X884563Y179794D01*
X884564Y179759D01*
X884556Y179705D01*
X884556Y175895D01*
X884567Y175830D01*
X884569Y175764D01*
X884587Y175721D01*
X884595Y175674D01*
X884629Y175617D01*
X884654Y175557D01*
X884685Y175522D01*
X884710Y175481D01*
X884761Y175440D01*
X884805Y175391D01*
X884847Y175369D01*
X884884Y175340D01*
X884946Y175319D01*
X885005Y175288D01*
X885059Y175280D01*
X885096Y175268D01*
X885136Y175269D01*
X885190Y175261D01*
X887730Y175261D01*
X887795Y175272D01*
G37*
G36*
X710630Y252107D02*
X710630Y252107D01*
X710696Y252109D01*
X710739Y252127D01*
X710786Y252135D01*
X710843Y252169D01*
X710903Y252194D01*
X710938Y252225D01*
X710979Y252250D01*
X711021Y252301D01*
X711069Y252345D01*
X711091Y252387D01*
X711120Y252424D01*
X711141Y252486D01*
X711172Y252545D01*
X711180Y252599D01*
X711192Y252636D01*
X711191Y252676D01*
X711199Y252730D01*
X711199Y255270D01*
X711188Y255335D01*
X711186Y255401D01*
X711168Y255444D01*
X711160Y255491D01*
X711126Y255548D01*
X711101Y255608D01*
X711070Y255643D01*
X711045Y255684D01*
X710994Y255726D01*
X710950Y255774D01*
X710908Y255796D01*
X710871Y255825D01*
X710809Y255846D01*
X710750Y255877D01*
X710696Y255885D01*
X710659Y255897D01*
X710619Y255896D01*
X710565Y255904D01*
X706755Y255904D01*
X706690Y255893D01*
X706624Y255891D01*
X706581Y255873D01*
X706534Y255865D01*
X706477Y255831D01*
X706417Y255806D01*
X706382Y255775D01*
X706341Y255750D01*
X706300Y255699D01*
X706251Y255655D01*
X706229Y255613D01*
X706200Y255576D01*
X706179Y255514D01*
X706148Y255455D01*
X706140Y255401D01*
X706128Y255364D01*
X706128Y255361D01*
X706129Y255324D01*
X706121Y255270D01*
X706121Y252730D01*
X706132Y252665D01*
X706134Y252599D01*
X706152Y252556D01*
X706160Y252509D01*
X706194Y252452D01*
X706219Y252392D01*
X706250Y252357D01*
X706275Y252316D01*
X706326Y252275D01*
X706370Y252226D01*
X706412Y252204D01*
X706449Y252175D01*
X706511Y252154D01*
X706570Y252123D01*
X706624Y252115D01*
X706661Y252103D01*
X706701Y252104D01*
X706755Y252096D01*
X710565Y252096D01*
X710630Y252107D01*
G37*
G36*
X1033210Y252107D02*
X1033210Y252107D01*
X1033276Y252109D01*
X1033319Y252127D01*
X1033366Y252135D01*
X1033423Y252169D01*
X1033483Y252194D01*
X1033518Y252225D01*
X1033559Y252250D01*
X1033601Y252301D01*
X1033649Y252345D01*
X1033671Y252387D01*
X1033700Y252424D01*
X1033721Y252486D01*
X1033752Y252545D01*
X1033760Y252599D01*
X1033772Y252636D01*
X1033771Y252676D01*
X1033779Y252730D01*
X1033779Y255270D01*
X1033768Y255335D01*
X1033766Y255401D01*
X1033748Y255444D01*
X1033740Y255491D01*
X1033706Y255548D01*
X1033681Y255608D01*
X1033650Y255643D01*
X1033625Y255684D01*
X1033574Y255726D01*
X1033530Y255774D01*
X1033488Y255796D01*
X1033451Y255825D01*
X1033389Y255846D01*
X1033330Y255877D01*
X1033276Y255885D01*
X1033239Y255897D01*
X1033199Y255896D01*
X1033145Y255904D01*
X1029335Y255904D01*
X1029270Y255893D01*
X1029204Y255891D01*
X1029161Y255873D01*
X1029114Y255865D01*
X1029057Y255831D01*
X1028997Y255806D01*
X1028962Y255775D01*
X1028921Y255750D01*
X1028880Y255699D01*
X1028831Y255655D01*
X1028809Y255613D01*
X1028780Y255576D01*
X1028759Y255514D01*
X1028728Y255455D01*
X1028720Y255401D01*
X1028708Y255364D01*
X1028708Y255361D01*
X1028709Y255324D01*
X1028701Y255270D01*
X1028701Y252730D01*
X1028712Y252665D01*
X1028714Y252599D01*
X1028732Y252556D01*
X1028740Y252509D01*
X1028774Y252452D01*
X1028799Y252392D01*
X1028830Y252357D01*
X1028855Y252316D01*
X1028906Y252275D01*
X1028950Y252226D01*
X1028992Y252204D01*
X1029029Y252175D01*
X1029091Y252154D01*
X1029150Y252123D01*
X1029204Y252115D01*
X1029241Y252103D01*
X1029281Y252104D01*
X1029335Y252096D01*
X1033145Y252096D01*
X1033210Y252107D01*
G37*
G36*
X388050Y252107D02*
X388050Y252107D01*
X388116Y252109D01*
X388159Y252127D01*
X388206Y252135D01*
X388263Y252169D01*
X388323Y252194D01*
X388358Y252225D01*
X388399Y252250D01*
X388441Y252301D01*
X388489Y252345D01*
X388511Y252387D01*
X388540Y252424D01*
X388561Y252486D01*
X388592Y252545D01*
X388600Y252599D01*
X388612Y252636D01*
X388611Y252676D01*
X388619Y252730D01*
X388619Y255270D01*
X388608Y255335D01*
X388606Y255401D01*
X388588Y255444D01*
X388580Y255491D01*
X388546Y255548D01*
X388521Y255608D01*
X388490Y255643D01*
X388465Y255684D01*
X388414Y255726D01*
X388370Y255774D01*
X388328Y255796D01*
X388291Y255825D01*
X388229Y255846D01*
X388170Y255877D01*
X388116Y255885D01*
X388079Y255897D01*
X388039Y255896D01*
X387985Y255904D01*
X384175Y255904D01*
X384110Y255893D01*
X384044Y255891D01*
X384001Y255873D01*
X383954Y255865D01*
X383897Y255831D01*
X383837Y255806D01*
X383802Y255775D01*
X383761Y255750D01*
X383720Y255699D01*
X383671Y255655D01*
X383649Y255613D01*
X383620Y255576D01*
X383599Y255514D01*
X383568Y255455D01*
X383560Y255401D01*
X383548Y255364D01*
X383548Y255361D01*
X383549Y255324D01*
X383541Y255270D01*
X383541Y252730D01*
X383552Y252665D01*
X383554Y252599D01*
X383572Y252556D01*
X383580Y252509D01*
X383614Y252452D01*
X383639Y252392D01*
X383670Y252357D01*
X383695Y252316D01*
X383746Y252275D01*
X383790Y252226D01*
X383832Y252204D01*
X383869Y252175D01*
X383931Y252154D01*
X383990Y252123D01*
X384044Y252115D01*
X384081Y252103D01*
X384121Y252104D01*
X384175Y252096D01*
X387985Y252096D01*
X388050Y252107D01*
G37*
G36*
X65470Y252107D02*
X65470Y252107D01*
X65536Y252109D01*
X65579Y252127D01*
X65626Y252135D01*
X65683Y252169D01*
X65743Y252194D01*
X65778Y252225D01*
X65819Y252250D01*
X65861Y252301D01*
X65909Y252345D01*
X65931Y252387D01*
X65960Y252424D01*
X65981Y252486D01*
X66012Y252545D01*
X66020Y252599D01*
X66032Y252636D01*
X66031Y252676D01*
X66039Y252730D01*
X66039Y255270D01*
X66028Y255335D01*
X66026Y255401D01*
X66008Y255444D01*
X66000Y255491D01*
X65966Y255548D01*
X65941Y255608D01*
X65910Y255643D01*
X65885Y255684D01*
X65834Y255726D01*
X65790Y255774D01*
X65748Y255796D01*
X65711Y255825D01*
X65649Y255846D01*
X65590Y255877D01*
X65536Y255885D01*
X65499Y255897D01*
X65459Y255896D01*
X65405Y255904D01*
X61595Y255904D01*
X61530Y255893D01*
X61464Y255891D01*
X61421Y255873D01*
X61374Y255865D01*
X61317Y255831D01*
X61257Y255806D01*
X61222Y255775D01*
X61181Y255750D01*
X61140Y255699D01*
X61091Y255655D01*
X61069Y255613D01*
X61040Y255576D01*
X61019Y255514D01*
X60988Y255455D01*
X60980Y255401D01*
X60968Y255364D01*
X60968Y255361D01*
X60969Y255324D01*
X60961Y255270D01*
X60961Y252730D01*
X60972Y252665D01*
X60974Y252599D01*
X60992Y252556D01*
X61000Y252509D01*
X61034Y252452D01*
X61059Y252392D01*
X61090Y252357D01*
X61115Y252316D01*
X61166Y252275D01*
X61210Y252226D01*
X61252Y252204D01*
X61289Y252175D01*
X61351Y252154D01*
X61410Y252123D01*
X61464Y252115D01*
X61501Y252103D01*
X61541Y252104D01*
X61595Y252096D01*
X65405Y252096D01*
X65470Y252107D01*
G37*
G36*
X388050Y1219847D02*
X388050Y1219847D01*
X388116Y1219849D01*
X388159Y1219867D01*
X388206Y1219875D01*
X388263Y1219909D01*
X388323Y1219934D01*
X388358Y1219965D01*
X388399Y1219990D01*
X388441Y1220041D01*
X388489Y1220085D01*
X388511Y1220127D01*
X388540Y1220164D01*
X388561Y1220226D01*
X388592Y1220285D01*
X388600Y1220339D01*
X388612Y1220376D01*
X388611Y1220416D01*
X388619Y1220470D01*
X388619Y1223010D01*
X388608Y1223075D01*
X388606Y1223141D01*
X388588Y1223184D01*
X388580Y1223231D01*
X388546Y1223288D01*
X388521Y1223348D01*
X388490Y1223383D01*
X388465Y1223424D01*
X388414Y1223466D01*
X388370Y1223514D01*
X388328Y1223536D01*
X388291Y1223565D01*
X388229Y1223586D01*
X388170Y1223617D01*
X388116Y1223625D01*
X388079Y1223637D01*
X388039Y1223636D01*
X387985Y1223644D01*
X384175Y1223644D01*
X384110Y1223633D01*
X384044Y1223631D01*
X384001Y1223613D01*
X383954Y1223605D01*
X383897Y1223571D01*
X383837Y1223546D01*
X383802Y1223515D01*
X383761Y1223490D01*
X383720Y1223439D01*
X383671Y1223395D01*
X383649Y1223353D01*
X383620Y1223316D01*
X383599Y1223254D01*
X383568Y1223195D01*
X383560Y1223141D01*
X383548Y1223104D01*
X383548Y1223101D01*
X383549Y1223064D01*
X383541Y1223010D01*
X383541Y1220470D01*
X383552Y1220405D01*
X383554Y1220339D01*
X383572Y1220296D01*
X383580Y1220249D01*
X383614Y1220192D01*
X383639Y1220132D01*
X383670Y1220097D01*
X383695Y1220056D01*
X383746Y1220015D01*
X383790Y1219966D01*
X383832Y1219944D01*
X383869Y1219915D01*
X383931Y1219894D01*
X383990Y1219863D01*
X384044Y1219855D01*
X384081Y1219843D01*
X384121Y1219844D01*
X384175Y1219836D01*
X387985Y1219836D01*
X388050Y1219847D01*
G37*
G36*
X1033210Y1219847D02*
X1033210Y1219847D01*
X1033276Y1219849D01*
X1033319Y1219867D01*
X1033366Y1219875D01*
X1033423Y1219909D01*
X1033483Y1219934D01*
X1033518Y1219965D01*
X1033559Y1219990D01*
X1033601Y1220041D01*
X1033649Y1220085D01*
X1033671Y1220127D01*
X1033700Y1220164D01*
X1033721Y1220226D01*
X1033752Y1220285D01*
X1033760Y1220339D01*
X1033772Y1220376D01*
X1033771Y1220416D01*
X1033779Y1220470D01*
X1033779Y1223010D01*
X1033768Y1223075D01*
X1033766Y1223141D01*
X1033748Y1223184D01*
X1033740Y1223231D01*
X1033706Y1223288D01*
X1033681Y1223348D01*
X1033650Y1223383D01*
X1033625Y1223424D01*
X1033574Y1223466D01*
X1033530Y1223514D01*
X1033488Y1223536D01*
X1033451Y1223565D01*
X1033389Y1223586D01*
X1033330Y1223617D01*
X1033276Y1223625D01*
X1033239Y1223637D01*
X1033199Y1223636D01*
X1033145Y1223644D01*
X1029335Y1223644D01*
X1029270Y1223633D01*
X1029204Y1223631D01*
X1029161Y1223613D01*
X1029114Y1223605D01*
X1029057Y1223571D01*
X1028997Y1223546D01*
X1028962Y1223515D01*
X1028921Y1223490D01*
X1028880Y1223439D01*
X1028831Y1223395D01*
X1028809Y1223353D01*
X1028780Y1223316D01*
X1028759Y1223254D01*
X1028728Y1223195D01*
X1028720Y1223141D01*
X1028708Y1223104D01*
X1028708Y1223101D01*
X1028709Y1223064D01*
X1028701Y1223010D01*
X1028701Y1220470D01*
X1028712Y1220405D01*
X1028714Y1220339D01*
X1028732Y1220296D01*
X1028740Y1220249D01*
X1028774Y1220192D01*
X1028799Y1220132D01*
X1028830Y1220097D01*
X1028855Y1220056D01*
X1028906Y1220015D01*
X1028950Y1219966D01*
X1028992Y1219944D01*
X1029029Y1219915D01*
X1029091Y1219894D01*
X1029150Y1219863D01*
X1029204Y1219855D01*
X1029241Y1219843D01*
X1029281Y1219844D01*
X1029335Y1219836D01*
X1033145Y1219836D01*
X1033210Y1219847D01*
G37*
G36*
X710630Y1219847D02*
X710630Y1219847D01*
X710696Y1219849D01*
X710739Y1219867D01*
X710786Y1219875D01*
X710843Y1219909D01*
X710903Y1219934D01*
X710938Y1219965D01*
X710979Y1219990D01*
X711021Y1220041D01*
X711069Y1220085D01*
X711091Y1220127D01*
X711120Y1220164D01*
X711141Y1220226D01*
X711172Y1220285D01*
X711180Y1220339D01*
X711192Y1220376D01*
X711191Y1220416D01*
X711199Y1220470D01*
X711199Y1223010D01*
X711188Y1223075D01*
X711186Y1223141D01*
X711168Y1223184D01*
X711160Y1223231D01*
X711126Y1223288D01*
X711101Y1223348D01*
X711070Y1223383D01*
X711045Y1223424D01*
X710994Y1223466D01*
X710950Y1223514D01*
X710908Y1223536D01*
X710871Y1223565D01*
X710809Y1223586D01*
X710750Y1223617D01*
X710696Y1223625D01*
X710659Y1223637D01*
X710619Y1223636D01*
X710565Y1223644D01*
X706755Y1223644D01*
X706690Y1223633D01*
X706624Y1223631D01*
X706581Y1223613D01*
X706534Y1223605D01*
X706477Y1223571D01*
X706417Y1223546D01*
X706382Y1223515D01*
X706341Y1223490D01*
X706300Y1223439D01*
X706251Y1223395D01*
X706229Y1223353D01*
X706200Y1223316D01*
X706179Y1223254D01*
X706148Y1223195D01*
X706140Y1223141D01*
X706128Y1223104D01*
X706128Y1223101D01*
X706129Y1223064D01*
X706121Y1223010D01*
X706121Y1220470D01*
X706132Y1220405D01*
X706134Y1220339D01*
X706152Y1220296D01*
X706160Y1220249D01*
X706194Y1220192D01*
X706219Y1220132D01*
X706250Y1220097D01*
X706275Y1220056D01*
X706326Y1220015D01*
X706370Y1219966D01*
X706412Y1219944D01*
X706449Y1219915D01*
X706511Y1219894D01*
X706570Y1219863D01*
X706624Y1219855D01*
X706661Y1219843D01*
X706701Y1219844D01*
X706755Y1219836D01*
X710565Y1219836D01*
X710630Y1219847D01*
G37*
G36*
X65470Y897267D02*
X65470Y897267D01*
X65536Y897269D01*
X65579Y897287D01*
X65626Y897295D01*
X65683Y897329D01*
X65743Y897354D01*
X65778Y897385D01*
X65819Y897410D01*
X65861Y897461D01*
X65909Y897505D01*
X65931Y897547D01*
X65960Y897584D01*
X65981Y897646D01*
X66012Y897705D01*
X66020Y897759D01*
X66032Y897796D01*
X66031Y897836D01*
X66039Y897890D01*
X66039Y900430D01*
X66028Y900495D01*
X66026Y900561D01*
X66008Y900604D01*
X66000Y900651D01*
X65966Y900708D01*
X65941Y900768D01*
X65910Y900803D01*
X65885Y900844D01*
X65834Y900886D01*
X65790Y900934D01*
X65748Y900956D01*
X65711Y900985D01*
X65649Y901006D01*
X65590Y901037D01*
X65536Y901045D01*
X65499Y901057D01*
X65459Y901056D01*
X65405Y901064D01*
X61595Y901064D01*
X61530Y901053D01*
X61464Y901051D01*
X61421Y901033D01*
X61374Y901025D01*
X61317Y900991D01*
X61257Y900966D01*
X61222Y900935D01*
X61181Y900910D01*
X61140Y900859D01*
X61091Y900815D01*
X61069Y900773D01*
X61040Y900736D01*
X61019Y900674D01*
X60988Y900615D01*
X60980Y900561D01*
X60968Y900524D01*
X60968Y900521D01*
X60969Y900484D01*
X60961Y900430D01*
X60961Y897890D01*
X60972Y897825D01*
X60974Y897759D01*
X60992Y897716D01*
X61000Y897669D01*
X61034Y897612D01*
X61059Y897552D01*
X61090Y897517D01*
X61115Y897476D01*
X61166Y897435D01*
X61210Y897386D01*
X61252Y897364D01*
X61289Y897335D01*
X61351Y897314D01*
X61410Y897283D01*
X61464Y897275D01*
X61501Y897263D01*
X61541Y897264D01*
X61595Y897256D01*
X65405Y897256D01*
X65470Y897267D01*
G37*
G36*
X388050Y897267D02*
X388050Y897267D01*
X388116Y897269D01*
X388159Y897287D01*
X388206Y897295D01*
X388263Y897329D01*
X388323Y897354D01*
X388358Y897385D01*
X388399Y897410D01*
X388441Y897461D01*
X388489Y897505D01*
X388511Y897547D01*
X388540Y897584D01*
X388561Y897646D01*
X388592Y897705D01*
X388600Y897759D01*
X388612Y897796D01*
X388611Y897836D01*
X388619Y897890D01*
X388619Y900430D01*
X388608Y900495D01*
X388606Y900561D01*
X388588Y900604D01*
X388580Y900651D01*
X388546Y900708D01*
X388521Y900768D01*
X388490Y900803D01*
X388465Y900844D01*
X388414Y900886D01*
X388370Y900934D01*
X388328Y900956D01*
X388291Y900985D01*
X388229Y901006D01*
X388170Y901037D01*
X388116Y901045D01*
X388079Y901057D01*
X388039Y901056D01*
X387985Y901064D01*
X384175Y901064D01*
X384110Y901053D01*
X384044Y901051D01*
X384001Y901033D01*
X383954Y901025D01*
X383897Y900991D01*
X383837Y900966D01*
X383802Y900935D01*
X383761Y900910D01*
X383720Y900859D01*
X383671Y900815D01*
X383649Y900773D01*
X383620Y900736D01*
X383599Y900674D01*
X383568Y900615D01*
X383560Y900561D01*
X383548Y900524D01*
X383548Y900521D01*
X383549Y900484D01*
X383541Y900430D01*
X383541Y897890D01*
X383552Y897825D01*
X383554Y897759D01*
X383572Y897716D01*
X383580Y897669D01*
X383614Y897612D01*
X383639Y897552D01*
X383670Y897517D01*
X383695Y897476D01*
X383746Y897435D01*
X383790Y897386D01*
X383832Y897364D01*
X383869Y897335D01*
X383931Y897314D01*
X383990Y897283D01*
X384044Y897275D01*
X384081Y897263D01*
X384121Y897264D01*
X384175Y897256D01*
X387985Y897256D01*
X388050Y897267D01*
G37*
G36*
X710630Y897267D02*
X710630Y897267D01*
X710696Y897269D01*
X710739Y897287D01*
X710786Y897295D01*
X710843Y897329D01*
X710903Y897354D01*
X710938Y897385D01*
X710979Y897410D01*
X711021Y897461D01*
X711069Y897505D01*
X711091Y897547D01*
X711120Y897584D01*
X711141Y897646D01*
X711172Y897705D01*
X711180Y897759D01*
X711192Y897796D01*
X711191Y897836D01*
X711199Y897890D01*
X711199Y900430D01*
X711188Y900495D01*
X711186Y900561D01*
X711168Y900604D01*
X711160Y900651D01*
X711126Y900708D01*
X711101Y900768D01*
X711070Y900803D01*
X711045Y900844D01*
X710994Y900886D01*
X710950Y900934D01*
X710908Y900956D01*
X710871Y900985D01*
X710809Y901006D01*
X710750Y901037D01*
X710696Y901045D01*
X710659Y901057D01*
X710619Y901056D01*
X710565Y901064D01*
X706755Y901064D01*
X706690Y901053D01*
X706624Y901051D01*
X706581Y901033D01*
X706534Y901025D01*
X706477Y900991D01*
X706417Y900966D01*
X706382Y900935D01*
X706341Y900910D01*
X706300Y900859D01*
X706251Y900815D01*
X706229Y900773D01*
X706200Y900736D01*
X706179Y900674D01*
X706148Y900615D01*
X706140Y900561D01*
X706128Y900524D01*
X706128Y900521D01*
X706129Y900484D01*
X706121Y900430D01*
X706121Y897890D01*
X706132Y897825D01*
X706134Y897759D01*
X706152Y897716D01*
X706160Y897669D01*
X706194Y897612D01*
X706219Y897552D01*
X706250Y897517D01*
X706275Y897476D01*
X706326Y897435D01*
X706370Y897386D01*
X706412Y897364D01*
X706449Y897335D01*
X706511Y897314D01*
X706570Y897283D01*
X706624Y897275D01*
X706661Y897263D01*
X706701Y897264D01*
X706755Y897256D01*
X710565Y897256D01*
X710630Y897267D01*
G37*
G36*
X1033210Y897267D02*
X1033210Y897267D01*
X1033276Y897269D01*
X1033319Y897287D01*
X1033366Y897295D01*
X1033423Y897329D01*
X1033483Y897354D01*
X1033518Y897385D01*
X1033559Y897410D01*
X1033601Y897461D01*
X1033649Y897505D01*
X1033671Y897547D01*
X1033700Y897584D01*
X1033721Y897646D01*
X1033752Y897705D01*
X1033760Y897759D01*
X1033772Y897796D01*
X1033771Y897836D01*
X1033779Y897890D01*
X1033779Y900430D01*
X1033768Y900495D01*
X1033766Y900561D01*
X1033748Y900604D01*
X1033740Y900651D01*
X1033706Y900708D01*
X1033681Y900768D01*
X1033650Y900803D01*
X1033625Y900844D01*
X1033574Y900886D01*
X1033530Y900934D01*
X1033488Y900956D01*
X1033451Y900985D01*
X1033389Y901006D01*
X1033330Y901037D01*
X1033276Y901045D01*
X1033239Y901057D01*
X1033199Y901056D01*
X1033145Y901064D01*
X1029335Y901064D01*
X1029270Y901053D01*
X1029204Y901051D01*
X1029161Y901033D01*
X1029114Y901025D01*
X1029057Y900991D01*
X1028997Y900966D01*
X1028962Y900935D01*
X1028921Y900910D01*
X1028880Y900859D01*
X1028831Y900815D01*
X1028809Y900773D01*
X1028780Y900736D01*
X1028759Y900674D01*
X1028728Y900615D01*
X1028720Y900561D01*
X1028708Y900524D01*
X1028708Y900521D01*
X1028709Y900484D01*
X1028701Y900430D01*
X1028701Y897890D01*
X1028712Y897825D01*
X1028714Y897759D01*
X1028732Y897716D01*
X1028740Y897669D01*
X1028774Y897612D01*
X1028799Y897552D01*
X1028830Y897517D01*
X1028855Y897476D01*
X1028906Y897435D01*
X1028950Y897386D01*
X1028992Y897364D01*
X1029029Y897335D01*
X1029091Y897314D01*
X1029150Y897283D01*
X1029204Y897275D01*
X1029241Y897263D01*
X1029281Y897264D01*
X1029335Y897256D01*
X1033145Y897256D01*
X1033210Y897267D01*
G37*
G36*
X1033210Y574687D02*
X1033210Y574687D01*
X1033276Y574689D01*
X1033319Y574707D01*
X1033366Y574715D01*
X1033423Y574749D01*
X1033483Y574774D01*
X1033518Y574805D01*
X1033559Y574830D01*
X1033601Y574881D01*
X1033649Y574925D01*
X1033671Y574967D01*
X1033700Y575004D01*
X1033721Y575066D01*
X1033752Y575125D01*
X1033760Y575179D01*
X1033772Y575216D01*
X1033771Y575256D01*
X1033779Y575310D01*
X1033779Y577850D01*
X1033768Y577915D01*
X1033766Y577981D01*
X1033748Y578024D01*
X1033740Y578071D01*
X1033706Y578128D01*
X1033681Y578188D01*
X1033650Y578223D01*
X1033625Y578264D01*
X1033574Y578306D01*
X1033530Y578354D01*
X1033488Y578376D01*
X1033451Y578405D01*
X1033389Y578426D01*
X1033330Y578457D01*
X1033276Y578465D01*
X1033239Y578477D01*
X1033199Y578476D01*
X1033145Y578484D01*
X1029335Y578484D01*
X1029270Y578473D01*
X1029204Y578471D01*
X1029161Y578453D01*
X1029114Y578445D01*
X1029057Y578411D01*
X1028997Y578386D01*
X1028962Y578355D01*
X1028921Y578330D01*
X1028880Y578279D01*
X1028831Y578235D01*
X1028809Y578193D01*
X1028780Y578156D01*
X1028759Y578094D01*
X1028728Y578035D01*
X1028720Y577981D01*
X1028708Y577944D01*
X1028708Y577941D01*
X1028709Y577904D01*
X1028701Y577850D01*
X1028701Y575310D01*
X1028712Y575245D01*
X1028714Y575179D01*
X1028732Y575136D01*
X1028740Y575089D01*
X1028774Y575032D01*
X1028799Y574972D01*
X1028830Y574937D01*
X1028855Y574896D01*
X1028906Y574855D01*
X1028950Y574806D01*
X1028992Y574784D01*
X1029029Y574755D01*
X1029091Y574734D01*
X1029150Y574703D01*
X1029204Y574695D01*
X1029241Y574683D01*
X1029281Y574684D01*
X1029335Y574676D01*
X1033145Y574676D01*
X1033210Y574687D01*
G37*
G36*
X388050Y574687D02*
X388050Y574687D01*
X388116Y574689D01*
X388159Y574707D01*
X388206Y574715D01*
X388263Y574749D01*
X388323Y574774D01*
X388358Y574805D01*
X388399Y574830D01*
X388441Y574881D01*
X388489Y574925D01*
X388511Y574967D01*
X388540Y575004D01*
X388561Y575066D01*
X388592Y575125D01*
X388600Y575179D01*
X388612Y575216D01*
X388611Y575256D01*
X388619Y575310D01*
X388619Y577850D01*
X388608Y577915D01*
X388606Y577981D01*
X388588Y578024D01*
X388580Y578071D01*
X388546Y578128D01*
X388521Y578188D01*
X388490Y578223D01*
X388465Y578264D01*
X388414Y578306D01*
X388370Y578354D01*
X388328Y578376D01*
X388291Y578405D01*
X388229Y578426D01*
X388170Y578457D01*
X388116Y578465D01*
X388079Y578477D01*
X388039Y578476D01*
X387985Y578484D01*
X384175Y578484D01*
X384110Y578473D01*
X384044Y578471D01*
X384001Y578453D01*
X383954Y578445D01*
X383897Y578411D01*
X383837Y578386D01*
X383802Y578355D01*
X383761Y578330D01*
X383720Y578279D01*
X383671Y578235D01*
X383649Y578193D01*
X383620Y578156D01*
X383599Y578094D01*
X383568Y578035D01*
X383560Y577981D01*
X383548Y577944D01*
X383548Y577941D01*
X383549Y577904D01*
X383541Y577850D01*
X383541Y575310D01*
X383552Y575245D01*
X383554Y575179D01*
X383572Y575136D01*
X383580Y575089D01*
X383614Y575032D01*
X383639Y574972D01*
X383670Y574937D01*
X383695Y574896D01*
X383746Y574855D01*
X383790Y574806D01*
X383832Y574784D01*
X383869Y574755D01*
X383931Y574734D01*
X383990Y574703D01*
X384044Y574695D01*
X384081Y574683D01*
X384121Y574684D01*
X384175Y574676D01*
X387985Y574676D01*
X388050Y574687D01*
G37*
G36*
X65470Y1219847D02*
X65470Y1219847D01*
X65536Y1219849D01*
X65579Y1219867D01*
X65626Y1219875D01*
X65683Y1219909D01*
X65743Y1219934D01*
X65778Y1219965D01*
X65819Y1219990D01*
X65861Y1220041D01*
X65909Y1220085D01*
X65931Y1220127D01*
X65960Y1220164D01*
X65981Y1220226D01*
X66012Y1220285D01*
X66020Y1220339D01*
X66032Y1220376D01*
X66031Y1220416D01*
X66039Y1220470D01*
X66039Y1223010D01*
X66028Y1223075D01*
X66026Y1223141D01*
X66008Y1223184D01*
X66000Y1223231D01*
X65966Y1223288D01*
X65941Y1223348D01*
X65910Y1223383D01*
X65885Y1223424D01*
X65834Y1223466D01*
X65790Y1223514D01*
X65748Y1223536D01*
X65711Y1223565D01*
X65649Y1223586D01*
X65590Y1223617D01*
X65536Y1223625D01*
X65499Y1223637D01*
X65459Y1223636D01*
X65405Y1223644D01*
X61595Y1223644D01*
X61530Y1223633D01*
X61464Y1223631D01*
X61421Y1223613D01*
X61374Y1223605D01*
X61317Y1223571D01*
X61257Y1223546D01*
X61222Y1223515D01*
X61181Y1223490D01*
X61140Y1223439D01*
X61091Y1223395D01*
X61069Y1223353D01*
X61040Y1223316D01*
X61019Y1223254D01*
X60988Y1223195D01*
X60980Y1223141D01*
X60968Y1223104D01*
X60968Y1223101D01*
X60969Y1223064D01*
X60961Y1223010D01*
X60961Y1220470D01*
X60972Y1220405D01*
X60974Y1220339D01*
X60992Y1220296D01*
X61000Y1220249D01*
X61034Y1220192D01*
X61059Y1220132D01*
X61090Y1220097D01*
X61115Y1220056D01*
X61166Y1220015D01*
X61210Y1219966D01*
X61252Y1219944D01*
X61289Y1219915D01*
X61351Y1219894D01*
X61410Y1219863D01*
X61464Y1219855D01*
X61501Y1219843D01*
X61541Y1219844D01*
X61595Y1219836D01*
X65405Y1219836D01*
X65470Y1219847D01*
G37*
G36*
X710630Y574687D02*
X710630Y574687D01*
X710696Y574689D01*
X710739Y574707D01*
X710786Y574715D01*
X710843Y574749D01*
X710903Y574774D01*
X710938Y574805D01*
X710979Y574830D01*
X711021Y574881D01*
X711069Y574925D01*
X711091Y574967D01*
X711120Y575004D01*
X711141Y575066D01*
X711172Y575125D01*
X711180Y575179D01*
X711192Y575216D01*
X711191Y575256D01*
X711199Y575310D01*
X711199Y577850D01*
X711188Y577915D01*
X711186Y577981D01*
X711168Y578024D01*
X711160Y578071D01*
X711126Y578128D01*
X711101Y578188D01*
X711070Y578223D01*
X711045Y578264D01*
X710994Y578306D01*
X710950Y578354D01*
X710908Y578376D01*
X710871Y578405D01*
X710809Y578426D01*
X710750Y578457D01*
X710696Y578465D01*
X710659Y578477D01*
X710619Y578476D01*
X710565Y578484D01*
X706755Y578484D01*
X706690Y578473D01*
X706624Y578471D01*
X706581Y578453D01*
X706534Y578445D01*
X706477Y578411D01*
X706417Y578386D01*
X706382Y578355D01*
X706341Y578330D01*
X706300Y578279D01*
X706251Y578235D01*
X706229Y578193D01*
X706200Y578156D01*
X706179Y578094D01*
X706148Y578035D01*
X706140Y577981D01*
X706128Y577944D01*
X706128Y577941D01*
X706129Y577904D01*
X706121Y577850D01*
X706121Y575310D01*
X706132Y575245D01*
X706134Y575179D01*
X706152Y575136D01*
X706160Y575089D01*
X706194Y575032D01*
X706219Y574972D01*
X706250Y574937D01*
X706275Y574896D01*
X706326Y574855D01*
X706370Y574806D01*
X706412Y574784D01*
X706449Y574755D01*
X706511Y574734D01*
X706570Y574703D01*
X706624Y574695D01*
X706661Y574683D01*
X706701Y574684D01*
X706755Y574676D01*
X710565Y574676D01*
X710630Y574687D01*
G37*
G36*
X65470Y574687D02*
X65470Y574687D01*
X65536Y574689D01*
X65579Y574707D01*
X65626Y574715D01*
X65683Y574749D01*
X65743Y574774D01*
X65778Y574805D01*
X65819Y574830D01*
X65861Y574881D01*
X65909Y574925D01*
X65931Y574967D01*
X65960Y575004D01*
X65981Y575066D01*
X66012Y575125D01*
X66020Y575179D01*
X66032Y575216D01*
X66031Y575256D01*
X66039Y575310D01*
X66039Y577850D01*
X66028Y577915D01*
X66026Y577981D01*
X66008Y578024D01*
X66000Y578071D01*
X65966Y578128D01*
X65941Y578188D01*
X65910Y578223D01*
X65885Y578264D01*
X65834Y578306D01*
X65790Y578354D01*
X65748Y578376D01*
X65711Y578405D01*
X65649Y578426D01*
X65590Y578457D01*
X65536Y578465D01*
X65499Y578477D01*
X65459Y578476D01*
X65405Y578484D01*
X61595Y578484D01*
X61530Y578473D01*
X61464Y578471D01*
X61421Y578453D01*
X61374Y578445D01*
X61317Y578411D01*
X61257Y578386D01*
X61222Y578355D01*
X61181Y578330D01*
X61140Y578279D01*
X61091Y578235D01*
X61069Y578193D01*
X61040Y578156D01*
X61019Y578094D01*
X60988Y578035D01*
X60980Y577981D01*
X60968Y577944D01*
X60968Y577941D01*
X60969Y577904D01*
X60961Y577850D01*
X60961Y575310D01*
X60972Y575245D01*
X60974Y575179D01*
X60992Y575136D01*
X61000Y575089D01*
X61034Y575032D01*
X61059Y574972D01*
X61090Y574937D01*
X61115Y574896D01*
X61166Y574855D01*
X61210Y574806D01*
X61252Y574784D01*
X61289Y574755D01*
X61351Y574734D01*
X61410Y574703D01*
X61464Y574695D01*
X61501Y574683D01*
X61541Y574684D01*
X61595Y574676D01*
X65405Y574676D01*
X65470Y574687D01*
G37*
D10*
X68707Y254000D03*
X58293Y254000D03*
D11*
X12700Y50800D03*
X306070Y267970D03*
D12*
X292100Y292100D03*
X292100Y25400D03*
X25400Y25400D03*
X25400Y292100D03*
D13*
X292100Y230886D03*
X292100Y241300D03*
X292100Y251714D03*
D14*
X114300Y127000D03*
X114300Y152400D03*
X215900Y127000D03*
X215900Y152400D03*
D13*
X241300Y183007D03*
X241300Y172593D03*
X88900Y183007D03*
X88900Y172593D03*
D15*
X101600Y12700D03*
X127000Y12700D03*
X152400Y12700D03*
X177800Y12700D03*
X203200Y12700D03*
X228600Y12700D03*
D13*
X215900Y197993D03*
X215900Y208407D03*
D10*
X391287Y254000D03*
X380873Y254000D03*
D11*
X335280Y50800D03*
X628650Y267970D03*
D12*
X614680Y292100D03*
X614680Y25400D03*
X347980Y25400D03*
X347980Y292100D03*
D13*
X614680Y230886D03*
X614680Y241300D03*
X614680Y251714D03*
D14*
X436880Y127000D03*
X436880Y152400D03*
X538480Y127000D03*
X538480Y152400D03*
D13*
X563880Y183007D03*
X563880Y172593D03*
X411480Y183007D03*
X411480Y172593D03*
D15*
X424180Y12700D03*
X449580Y12700D03*
X474980Y12700D03*
X500380Y12700D03*
X525780Y12700D03*
X551180Y12700D03*
D13*
X538480Y197993D03*
X538480Y208407D03*
D10*
X713867Y254000D03*
X703453Y254000D03*
D11*
X657860Y50800D03*
X951230Y267970D03*
D12*
X937260Y292100D03*
X937260Y25400D03*
X670560Y25400D03*
X670560Y292100D03*
D13*
X937260Y230886D03*
X937260Y241300D03*
X937260Y251714D03*
D14*
X759460Y127000D03*
X759460Y152400D03*
X861060Y127000D03*
X861060Y152400D03*
D13*
X886460Y183007D03*
X886460Y172593D03*
X734060Y183007D03*
X734060Y172593D03*
D15*
X746760Y12700D03*
X772160Y12700D03*
X797560Y12700D03*
X822960Y12700D03*
X848360Y12700D03*
X873760Y12700D03*
D13*
X861060Y197993D03*
X861060Y208407D03*
D10*
X1036447Y254000D03*
X1026033Y254000D03*
D11*
X980440Y50800D03*
X1273810Y267970D03*
D12*
X1259840Y292100D03*
X1259840Y25400D03*
X993140Y25400D03*
X993140Y292100D03*
D13*
X1259840Y230886D03*
X1259840Y241300D03*
X1259840Y251714D03*
D14*
X1082040Y127000D03*
X1082040Y152400D03*
X1183640Y127000D03*
X1183640Y152400D03*
D13*
X1209040Y183007D03*
X1209040Y172593D03*
X1056640Y183007D03*
X1056640Y172593D03*
D15*
X1069340Y12700D03*
X1094740Y12700D03*
X1120140Y12700D03*
X1145540Y12700D03*
X1170940Y12700D03*
X1196340Y12700D03*
D13*
X1183640Y197993D03*
X1183640Y208407D03*
D10*
X68707Y576580D03*
X58293Y576580D03*
D11*
X12700Y373380D03*
X306070Y590550D03*
D12*
X292100Y614680D03*
X292100Y347980D03*
X25400Y347980D03*
X25400Y614680D03*
D13*
X292100Y553466D03*
X292100Y563880D03*
X292100Y574294D03*
D14*
X114300Y449580D03*
X114300Y474980D03*
X215900Y449580D03*
X215900Y474980D03*
D13*
X241300Y505587D03*
X241300Y495173D03*
X88900Y505587D03*
X88900Y495173D03*
D15*
X101600Y335280D03*
X127000Y335280D03*
X152400Y335280D03*
X177800Y335280D03*
X203200Y335280D03*
X228600Y335280D03*
D13*
X215900Y520573D03*
X215900Y530987D03*
D10*
X391287Y576580D03*
X380873Y576580D03*
D11*
X335280Y373380D03*
X628650Y590550D03*
D12*
X614680Y614680D03*
X614680Y347980D03*
X347980Y347980D03*
X347980Y614680D03*
D13*
X614680Y553466D03*
X614680Y563880D03*
X614680Y574294D03*
D14*
X436880Y449580D03*
X436880Y474980D03*
X538480Y449580D03*
X538480Y474980D03*
D13*
X563880Y505587D03*
X563880Y495173D03*
X411480Y505587D03*
X411480Y495173D03*
D15*
X424180Y335280D03*
X449580Y335280D03*
X474980Y335280D03*
X500380Y335280D03*
X525780Y335280D03*
X551180Y335280D03*
D13*
X538480Y520573D03*
X538480Y530987D03*
D10*
X713867Y576580D03*
X703453Y576580D03*
D11*
X657860Y373380D03*
X951230Y590550D03*
D12*
X937260Y614680D03*
X937260Y347980D03*
X670560Y347980D03*
X670560Y614680D03*
D13*
X937260Y553466D03*
X937260Y563880D03*
X937260Y574294D03*
D14*
X759460Y449580D03*
X759460Y474980D03*
X861060Y449580D03*
X861060Y474980D03*
D13*
X886460Y505587D03*
X886460Y495173D03*
X734060Y505587D03*
X734060Y495173D03*
D15*
X746760Y335280D03*
X772160Y335280D03*
X797560Y335280D03*
X822960Y335280D03*
X848360Y335280D03*
X873760Y335280D03*
D13*
X861060Y520573D03*
X861060Y530987D03*
D10*
X1036447Y576580D03*
X1026033Y576580D03*
D11*
X980440Y373380D03*
X1273810Y590550D03*
D12*
X1259840Y614680D03*
X1259840Y347980D03*
X993140Y347980D03*
X993140Y614680D03*
D13*
X1259840Y553466D03*
X1259840Y563880D03*
X1259840Y574294D03*
D14*
X1082040Y449580D03*
X1082040Y474980D03*
X1183640Y449580D03*
X1183640Y474980D03*
D13*
X1209040Y505587D03*
X1209040Y495173D03*
X1056640Y505587D03*
X1056640Y495173D03*
D15*
X1069340Y335280D03*
X1094740Y335280D03*
X1120140Y335280D03*
X1145540Y335280D03*
X1170940Y335280D03*
X1196340Y335280D03*
D13*
X1183640Y520573D03*
X1183640Y530987D03*
D10*
X68707Y899160D03*
X58293Y899160D03*
D11*
X12700Y695960D03*
X306070Y913130D03*
D12*
X292100Y937260D03*
X292100Y670560D03*
X25400Y670560D03*
X25400Y937260D03*
D13*
X292100Y876046D03*
X292100Y886460D03*
X292100Y896874D03*
D14*
X114300Y772160D03*
X114300Y797560D03*
X215900Y772160D03*
X215900Y797560D03*
D13*
X241300Y828167D03*
X241300Y817753D03*
X88900Y828167D03*
X88900Y817753D03*
D15*
X101600Y657860D03*
X127000Y657860D03*
X152400Y657860D03*
X177800Y657860D03*
X203200Y657860D03*
X228600Y657860D03*
D13*
X215900Y843153D03*
X215900Y853567D03*
D10*
X391287Y899160D03*
X380873Y899160D03*
D11*
X335280Y695960D03*
X628650Y913130D03*
D12*
X614680Y937260D03*
X614680Y670560D03*
X347980Y670560D03*
X347980Y937260D03*
D13*
X614680Y876046D03*
X614680Y886460D03*
X614680Y896874D03*
D14*
X436880Y772160D03*
X436880Y797560D03*
X538480Y772160D03*
X538480Y797560D03*
D13*
X563880Y828167D03*
X563880Y817753D03*
X411480Y828167D03*
X411480Y817753D03*
D15*
X424180Y657860D03*
X449580Y657860D03*
X474980Y657860D03*
X500380Y657860D03*
X525780Y657860D03*
X551180Y657860D03*
D13*
X538480Y843153D03*
X538480Y853567D03*
D10*
X713867Y899160D03*
X703453Y899160D03*
D11*
X657860Y695960D03*
X951230Y913130D03*
D12*
X937260Y937260D03*
X937260Y670560D03*
X670560Y670560D03*
X670560Y937260D03*
D13*
X937260Y876046D03*
X937260Y886460D03*
X937260Y896874D03*
D14*
X759460Y772160D03*
X759460Y797560D03*
X861060Y772160D03*
X861060Y797560D03*
D13*
X886460Y828167D03*
X886460Y817753D03*
X734060Y828167D03*
X734060Y817753D03*
D15*
X746760Y657860D03*
X772160Y657860D03*
X797560Y657860D03*
X822960Y657860D03*
X848360Y657860D03*
X873760Y657860D03*
D13*
X861060Y843153D03*
X861060Y853567D03*
D10*
X1036447Y899160D03*
X1026033Y899160D03*
D11*
X980440Y695960D03*
X1273810Y913130D03*
D12*
X1259840Y937260D03*
X1259840Y670560D03*
X993140Y670560D03*
X993140Y937260D03*
D13*
X1259840Y876046D03*
X1259840Y886460D03*
X1259840Y896874D03*
D14*
X1082040Y772160D03*
X1082040Y797560D03*
X1183640Y772160D03*
X1183640Y797560D03*
D13*
X1209040Y828167D03*
X1209040Y817753D03*
X1056640Y828167D03*
X1056640Y817753D03*
D15*
X1069340Y657860D03*
X1094740Y657860D03*
X1120140Y657860D03*
X1145540Y657860D03*
X1170940Y657860D03*
X1196340Y657860D03*
D13*
X1183640Y843153D03*
X1183640Y853567D03*
D10*
X68707Y1221740D03*
X58293Y1221740D03*
D11*
X12700Y1018540D03*
X306070Y1235710D03*
D12*
X292100Y1259840D03*
X292100Y993140D03*
X25400Y993140D03*
X25400Y1259840D03*
D13*
X292100Y1198626D03*
X292100Y1209040D03*
X292100Y1219454D03*
D14*
X114300Y1094740D03*
X114300Y1120140D03*
X215900Y1094740D03*
X215900Y1120140D03*
D13*
X241300Y1150747D03*
X241300Y1140333D03*
X88900Y1150747D03*
X88900Y1140333D03*
D15*
X101600Y980440D03*
X127000Y980440D03*
X152400Y980440D03*
X177800Y980440D03*
X203200Y980440D03*
X228600Y980440D03*
D13*
X215900Y1165733D03*
X215900Y1176147D03*
D10*
X391287Y1221740D03*
X380873Y1221740D03*
D11*
X335280Y1018540D03*
X628650Y1235710D03*
D12*
X614680Y1259840D03*
X614680Y993140D03*
X347980Y993140D03*
X347980Y1259840D03*
D13*
X614680Y1198626D03*
X614680Y1209040D03*
X614680Y1219454D03*
D14*
X436880Y1094740D03*
X436880Y1120140D03*
X538480Y1094740D03*
X538480Y1120140D03*
D13*
X563880Y1150747D03*
X563880Y1140333D03*
X411480Y1150747D03*
X411480Y1140333D03*
D15*
X424180Y980440D03*
X449580Y980440D03*
X474980Y980440D03*
X500380Y980440D03*
X525780Y980440D03*
X551180Y980440D03*
D13*
X538480Y1165733D03*
X538480Y1176147D03*
D10*
X713867Y1221740D03*
X703453Y1221740D03*
D11*
X657860Y1018540D03*
X951230Y1235710D03*
D12*
X937260Y1259840D03*
X937260Y993140D03*
X670560Y993140D03*
X670560Y1259840D03*
D13*
X937260Y1198626D03*
X937260Y1209040D03*
X937260Y1219454D03*
D14*
X759460Y1094740D03*
X759460Y1120140D03*
X861060Y1094740D03*
X861060Y1120140D03*
D13*
X886460Y1150747D03*
X886460Y1140333D03*
X734060Y1150747D03*
X734060Y1140333D03*
D15*
X746760Y980440D03*
X772160Y980440D03*
X797560Y980440D03*
X822960Y980440D03*
X848360Y980440D03*
X873760Y980440D03*
D13*
X861060Y1165733D03*
X861060Y1176147D03*
D10*
X1036447Y1221740D03*
X1026033Y1221740D03*
D11*
X980440Y1018540D03*
X1273810Y1235710D03*
D12*
X1259840Y1259840D03*
X1259840Y993140D03*
X993140Y993140D03*
X993140Y1259840D03*
D13*
X1259840Y1198626D03*
X1259840Y1209040D03*
X1259840Y1219454D03*
D14*
X1082040Y1094740D03*
X1082040Y1120140D03*
X1183640Y1094740D03*
X1183640Y1120140D03*
D13*
X1209040Y1150747D03*
X1209040Y1140333D03*
X1056640Y1150747D03*
X1056640Y1140333D03*
D15*
X1069340Y980440D03*
X1094740Y980440D03*
X1120140Y980440D03*
X1145540Y980440D03*
X1170940Y980440D03*
X1196340Y980440D03*
D13*
X1183640Y1165733D03*
X1183640Y1176147D03*
D11*
X-26238Y1258570D03*
X1311478Y1258570D03*
D16*
X-35293Y63500D02*
X-35290Y63722D01*
X-35282Y63944D01*
X-35268Y64166D01*
X-35249Y64388D01*
X-35225Y64608D01*
X-35195Y64829D01*
X-35160Y65048D01*
X-35119Y65267D01*
X-35073Y65484D01*
X-35022Y65700D01*
X-34965Y65915D01*
X-34903Y66129D01*
X-34836Y66340D01*
X-34764Y66551D01*
X-34686Y66759D01*
X-34604Y66965D01*
X-34516Y67169D01*
X-34424Y67372D01*
X-34326Y67571D01*
X-34224Y67768D01*
X-34117Y67963D01*
X-34005Y68155D01*
X-33888Y68344D01*
X-33767Y68531D01*
X-33641Y68714D01*
X-33511Y68894D01*
X-33376Y69071D01*
X-33238Y69244D01*
X-33095Y69414D01*
X-32947Y69581D01*
X-32796Y69744D01*
X-32641Y69903D01*
X-32482Y70058D01*
X-32319Y70209D01*
X-32152Y70357D01*
X-31982Y70500D01*
X-31809Y70638D01*
X-31632Y70773D01*
X-31452Y70903D01*
X-31269Y71029D01*
X-31082Y71150D01*
X-30893Y71267D01*
X-30701Y71379D01*
X-30506Y71486D01*
X-30309Y71588D01*
X-30110Y71686D01*
X-29907Y71778D01*
X-29703Y71866D01*
X-29497Y71948D01*
X-29289Y72026D01*
X-29078Y72098D01*
X-28867Y72165D01*
X-28653Y72227D01*
X-28438Y72284D01*
X-28222Y72335D01*
X-28005Y72381D01*
X-27786Y72422D01*
X-27567Y72457D01*
X-27346Y72487D01*
X-27126Y72511D01*
X-26904Y72530D01*
X-26682Y72544D01*
X-26460Y72552D01*
X-26238Y72555D01*
X-26016Y72552D01*
X-25794Y72544D01*
X-25572Y72530D01*
X-25350Y72511D01*
X-25130Y72487D01*
X-24909Y72457D01*
X-24690Y72422D01*
X-24471Y72381D01*
X-24254Y72335D01*
X-24038Y72284D01*
X-23823Y72227D01*
X-23609Y72165D01*
X-23398Y72098D01*
X-23187Y72026D01*
X-22979Y71948D01*
X-22773Y71866D01*
X-22569Y71778D01*
X-22366Y71686D01*
X-22167Y71588D01*
X-21970Y71486D01*
X-21775Y71379D01*
X-21583Y71267D01*
X-21394Y71150D01*
X-21207Y71029D01*
X-21024Y70903D01*
X-20844Y70773D01*
X-20667Y70638D01*
X-20494Y70500D01*
X-20324Y70357D01*
X-20157Y70209D01*
X-19994Y70058D01*
X-19835Y69903D01*
X-19680Y69744D01*
X-19529Y69581D01*
X-19381Y69414D01*
X-19238Y69244D01*
X-19100Y69071D01*
X-18965Y68894D01*
X-18835Y68714D01*
X-18709Y68531D01*
X-18588Y68344D01*
X-18471Y68155D01*
X-18359Y67963D01*
X-18252Y67768D01*
X-18150Y67571D01*
X-18052Y67372D01*
X-17960Y67169D01*
X-17872Y66965D01*
X-17790Y66759D01*
X-17712Y66551D01*
X-17640Y66340D01*
X-17573Y66129D01*
X-17511Y65915D01*
X-17454Y65700D01*
X-17403Y65484D01*
X-17357Y65267D01*
X-17316Y65048D01*
X-17281Y64829D01*
X-17251Y64608D01*
X-17227Y64388D01*
X-17208Y64166D01*
X-17194Y63944D01*
X-17186Y63722D01*
X-17183Y63500D01*
X-17186Y63278D01*
X-17194Y63056D01*
X-17208Y62834D01*
X-17227Y62612D01*
X-17251Y62392D01*
X-17281Y62171D01*
X-17316Y61952D01*
X-17357Y61733D01*
X-17403Y61516D01*
X-17454Y61300D01*
X-17511Y61085D01*
X-17573Y60871D01*
X-17640Y60660D01*
X-17712Y60449D01*
X-17790Y60241D01*
X-17872Y60035D01*
X-17960Y59831D01*
X-18052Y59628D01*
X-18150Y59429D01*
X-18252Y59232D01*
X-18359Y59037D01*
X-18471Y58845D01*
X-18588Y58656D01*
X-18709Y58469D01*
X-18835Y58286D01*
X-18965Y58106D01*
X-19100Y57929D01*
X-19238Y57756D01*
X-19381Y57586D01*
X-19529Y57419D01*
X-19680Y57256D01*
X-19835Y57097D01*
X-19994Y56942D01*
X-20157Y56791D01*
X-20324Y56643D01*
X-20494Y56500D01*
X-20667Y56362D01*
X-20844Y56227D01*
X-21024Y56097D01*
X-21207Y55971D01*
X-21394Y55850D01*
X-21583Y55733D01*
X-21775Y55621D01*
X-21970Y55514D01*
X-22167Y55412D01*
X-22366Y55314D01*
X-22569Y55222D01*
X-22773Y55134D01*
X-22979Y55052D01*
X-23187Y54974D01*
X-23398Y54902D01*
X-23609Y54835D01*
X-23823Y54773D01*
X-24038Y54716D01*
X-24254Y54665D01*
X-24471Y54619D01*
X-24690Y54578D01*
X-24909Y54543D01*
X-25130Y54513D01*
X-25350Y54489D01*
X-25572Y54470D01*
X-25794Y54456D01*
X-26016Y54448D01*
X-26238Y54445D01*
X-26460Y54448D01*
X-26682Y54456D01*
X-26904Y54470D01*
X-27126Y54489D01*
X-27346Y54513D01*
X-27567Y54543D01*
X-27786Y54578D01*
X-28005Y54619D01*
X-28222Y54665D01*
X-28438Y54716D01*
X-28653Y54773D01*
X-28867Y54835D01*
X-29078Y54902D01*
X-29289Y54974D01*
X-29497Y55052D01*
X-29703Y55134D01*
X-29907Y55222D01*
X-30110Y55314D01*
X-30309Y55412D01*
X-30506Y55514D01*
X-30701Y55621D01*
X-30893Y55733D01*
X-31082Y55850D01*
X-31269Y55971D01*
X-31452Y56097D01*
X-31632Y56227D01*
X-31809Y56362D01*
X-31982Y56500D01*
X-32152Y56643D01*
X-32319Y56791D01*
X-32482Y56942D01*
X-32641Y57097D01*
X-32796Y57256D01*
X-32947Y57419D01*
X-33095Y57586D01*
X-33238Y57756D01*
X-33376Y57929D01*
X-33511Y58106D01*
X-33641Y58286D01*
X-33767Y58469D01*
X-33888Y58656D01*
X-34005Y58845D01*
X-34117Y59037D01*
X-34224Y59232D01*
X-34326Y59429D01*
X-34424Y59628D01*
X-34516Y59831D01*
X-34604Y60035D01*
X-34686Y60241D01*
X-34764Y60449D01*
X-34836Y60660D01*
X-34903Y60871D01*
X-34965Y61085D01*
X-35022Y61300D01*
X-35073Y61516D01*
X-35119Y61733D01*
X-35160Y61952D01*
X-35195Y62171D01*
X-35225Y62392D01*
X-35249Y62612D01*
X-35268Y62834D01*
X-35282Y63056D01*
X-35290Y63278D01*
X-35293Y63500D01*
D17*
X-26238Y63500D03*
M02*
