G04 EAGLE Gerber RS-274X export*
G75*
%MOMM*%
%FSLAX34Y34*%
%LPD*%
%INSoldermask Top*%
%IPPOS*%
%AMOC8*
5,1,8,0,0,1.08239X$1,22.5*%
G01*
%ADD10R,1.303200X1.203200*%
%ADD11R,2.203200X1.403200*%
%ADD12R,1.553200X0.803200*%
%ADD13C,0.505344*%
%ADD14C,1.203200*%
%ADD15C,3.505200*%
%ADD16R,0.778200X0.691200*%
%ADD17R,1.303200X0.603200*%
%ADD18R,0.753200X1.403200*%
%ADD19R,1.203200X1.303200*%
%ADD20R,1.003200X1.203200*%
%ADD21R,1.003200X2.103200*%
%ADD22C,1.422400*%
%ADD23R,1.003200X1.103200*%
%ADD24C,2.082800*%
%ADD25C,1.270000*%
%ADD26C,1.703200*%


D10*
X72000Y266700D03*
X55000Y266700D03*
D11*
X14050Y193100D03*
X14050Y137100D03*
D12*
X50800Y180100D03*
X50800Y170100D03*
X50800Y160100D03*
X50800Y150100D03*
D11*
X303450Y137100D03*
X303450Y193100D03*
D12*
X266700Y150100D03*
X266700Y160100D03*
X266700Y170100D03*
X266700Y180100D03*
D13*
X58220Y250510D02*
X58220Y257490D01*
X58220Y250510D02*
X51240Y250510D01*
X51240Y257490D01*
X58220Y257490D01*
X58220Y255310D02*
X51240Y255310D01*
X75760Y257490D02*
X75760Y250510D01*
X68780Y250510D01*
X68780Y257490D01*
X75760Y257490D01*
X75760Y255310D02*
X68780Y255310D01*
D14*
X12700Y50800D03*
X306070Y267970D03*
D15*
X292100Y292100D03*
X292100Y25400D03*
X25400Y25400D03*
X25400Y292100D03*
D16*
X158720Y177100D03*
X158720Y169100D03*
X158720Y161100D03*
X158720Y153100D03*
X171480Y153100D03*
X171480Y161100D03*
X171480Y169100D03*
X171480Y177100D03*
D17*
X142600Y111350D03*
X142600Y104850D03*
X142600Y98350D03*
X142600Y91850D03*
X187600Y91850D03*
X187600Y98350D03*
X187600Y104850D03*
X187600Y111350D03*
D10*
X186300Y127000D03*
X169300Y127000D03*
X160900Y76200D03*
X143900Y76200D03*
X262500Y254000D03*
X245500Y254000D03*
X262500Y228600D03*
X245500Y228600D03*
D18*
X155600Y240999D03*
X165100Y240999D03*
X174600Y240999D03*
X174600Y267001D03*
X155600Y267001D03*
D19*
X190500Y245500D03*
X190500Y262500D03*
X139700Y262500D03*
X139700Y245500D03*
D20*
X114300Y202500D03*
D21*
X114300Y182230D03*
D13*
X212410Y185220D02*
X219390Y185220D01*
X219390Y178240D01*
X212410Y178240D01*
X212410Y185220D01*
X212410Y183040D02*
X219390Y183040D01*
X219390Y202760D02*
X212410Y202760D01*
X219390Y202760D02*
X219390Y195780D01*
X212410Y195780D01*
X212410Y202760D01*
X212410Y200580D02*
X219390Y200580D01*
D22*
X114300Y127000D03*
X114300Y152400D03*
X215900Y127000D03*
X215900Y152400D03*
D23*
X92100Y91600D03*
X111100Y91600D03*
X101600Y112600D03*
X219100Y91600D03*
X238100Y91600D03*
X228600Y112600D03*
X54000Y218600D03*
X73000Y218600D03*
X63500Y239600D03*
D19*
X203200Y169300D03*
X203200Y186300D03*
D10*
X156600Y203200D03*
X173600Y203200D03*
D24*
X101600Y12700D03*
X127000Y12700D03*
X152400Y12700D03*
X177800Y12700D03*
X203200Y12700D03*
X228600Y12700D03*
D19*
X101600Y275200D03*
X101600Y258200D03*
D10*
X394580Y266700D03*
X377580Y266700D03*
D11*
X336630Y193100D03*
X336630Y137100D03*
D12*
X373380Y180100D03*
X373380Y170100D03*
X373380Y160100D03*
X373380Y150100D03*
D11*
X626030Y137100D03*
X626030Y193100D03*
D12*
X589280Y150100D03*
X589280Y160100D03*
X589280Y170100D03*
X589280Y180100D03*
D13*
X380800Y250510D02*
X380800Y257490D01*
X380800Y250510D02*
X373820Y250510D01*
X373820Y257490D01*
X380800Y257490D01*
X380800Y255310D02*
X373820Y255310D01*
X398340Y257490D02*
X398340Y250510D01*
X391360Y250510D01*
X391360Y257490D01*
X398340Y257490D01*
X398340Y255310D02*
X391360Y255310D01*
D14*
X335280Y50800D03*
X628650Y267970D03*
D15*
X614680Y292100D03*
X614680Y25400D03*
X347980Y25400D03*
X347980Y292100D03*
D16*
X481300Y177100D03*
X481300Y169100D03*
X481300Y161100D03*
X481300Y153100D03*
X494060Y153100D03*
X494060Y161100D03*
X494060Y169100D03*
X494060Y177100D03*
D17*
X465180Y111350D03*
X465180Y104850D03*
X465180Y98350D03*
X465180Y91850D03*
X510180Y91850D03*
X510180Y98350D03*
X510180Y104850D03*
X510180Y111350D03*
D10*
X508880Y127000D03*
X491880Y127000D03*
X483480Y76200D03*
X466480Y76200D03*
X585080Y254000D03*
X568080Y254000D03*
X585080Y228600D03*
X568080Y228600D03*
D18*
X478180Y240999D03*
X487680Y240999D03*
X497180Y240999D03*
X497180Y267001D03*
X478180Y267001D03*
D19*
X513080Y245500D03*
X513080Y262500D03*
X462280Y262500D03*
X462280Y245500D03*
D20*
X436880Y202500D03*
D21*
X436880Y182230D03*
D13*
X534990Y185220D02*
X541970Y185220D01*
X541970Y178240D01*
X534990Y178240D01*
X534990Y185220D01*
X534990Y183040D02*
X541970Y183040D01*
X541970Y202760D02*
X534990Y202760D01*
X541970Y202760D02*
X541970Y195780D01*
X534990Y195780D01*
X534990Y202760D01*
X534990Y200580D02*
X541970Y200580D01*
D22*
X436880Y127000D03*
X436880Y152400D03*
X538480Y127000D03*
X538480Y152400D03*
D23*
X414680Y91600D03*
X433680Y91600D03*
X424180Y112600D03*
X541680Y91600D03*
X560680Y91600D03*
X551180Y112600D03*
X376580Y218600D03*
X395580Y218600D03*
X386080Y239600D03*
D19*
X525780Y169300D03*
X525780Y186300D03*
D10*
X479180Y203200D03*
X496180Y203200D03*
D24*
X424180Y12700D03*
X449580Y12700D03*
X474980Y12700D03*
X500380Y12700D03*
X525780Y12700D03*
X551180Y12700D03*
D19*
X424180Y275200D03*
X424180Y258200D03*
D10*
X717160Y266700D03*
X700160Y266700D03*
D11*
X659210Y193100D03*
X659210Y137100D03*
D12*
X695960Y180100D03*
X695960Y170100D03*
X695960Y160100D03*
X695960Y150100D03*
D11*
X948610Y137100D03*
X948610Y193100D03*
D12*
X911860Y150100D03*
X911860Y160100D03*
X911860Y170100D03*
X911860Y180100D03*
D13*
X703380Y250510D02*
X703380Y257490D01*
X703380Y250510D02*
X696400Y250510D01*
X696400Y257490D01*
X703380Y257490D01*
X703380Y255310D02*
X696400Y255310D01*
X720920Y257490D02*
X720920Y250510D01*
X713940Y250510D01*
X713940Y257490D01*
X720920Y257490D01*
X720920Y255310D02*
X713940Y255310D01*
D14*
X657860Y50800D03*
X951230Y267970D03*
D15*
X937260Y292100D03*
X937260Y25400D03*
X670560Y25400D03*
X670560Y292100D03*
D16*
X803880Y177100D03*
X803880Y169100D03*
X803880Y161100D03*
X803880Y153100D03*
X816640Y153100D03*
X816640Y161100D03*
X816640Y169100D03*
X816640Y177100D03*
D17*
X787760Y111350D03*
X787760Y104850D03*
X787760Y98350D03*
X787760Y91850D03*
X832760Y91850D03*
X832760Y98350D03*
X832760Y104850D03*
X832760Y111350D03*
D10*
X831460Y127000D03*
X814460Y127000D03*
X806060Y76200D03*
X789060Y76200D03*
X907660Y254000D03*
X890660Y254000D03*
X907660Y228600D03*
X890660Y228600D03*
D18*
X800760Y240999D03*
X810260Y240999D03*
X819760Y240999D03*
X819760Y267001D03*
X800760Y267001D03*
D19*
X835660Y245500D03*
X835660Y262500D03*
X784860Y262500D03*
X784860Y245500D03*
D20*
X759460Y202500D03*
D21*
X759460Y182230D03*
D13*
X857570Y185220D02*
X864550Y185220D01*
X864550Y178240D01*
X857570Y178240D01*
X857570Y185220D01*
X857570Y183040D02*
X864550Y183040D01*
X864550Y202760D02*
X857570Y202760D01*
X864550Y202760D02*
X864550Y195780D01*
X857570Y195780D01*
X857570Y202760D01*
X857570Y200580D02*
X864550Y200580D01*
D22*
X759460Y127000D03*
X759460Y152400D03*
X861060Y127000D03*
X861060Y152400D03*
D23*
X737260Y91600D03*
X756260Y91600D03*
X746760Y112600D03*
X864260Y91600D03*
X883260Y91600D03*
X873760Y112600D03*
X699160Y218600D03*
X718160Y218600D03*
X708660Y239600D03*
D19*
X848360Y169300D03*
X848360Y186300D03*
D10*
X801760Y203200D03*
X818760Y203200D03*
D24*
X746760Y12700D03*
X772160Y12700D03*
X797560Y12700D03*
X822960Y12700D03*
X848360Y12700D03*
X873760Y12700D03*
D19*
X746760Y275200D03*
X746760Y258200D03*
D10*
X1039740Y266700D03*
X1022740Y266700D03*
D11*
X981790Y193100D03*
X981790Y137100D03*
D12*
X1018540Y180100D03*
X1018540Y170100D03*
X1018540Y160100D03*
X1018540Y150100D03*
D11*
X1271190Y137100D03*
X1271190Y193100D03*
D12*
X1234440Y150100D03*
X1234440Y160100D03*
X1234440Y170100D03*
X1234440Y180100D03*
D13*
X1025960Y250510D02*
X1025960Y257490D01*
X1025960Y250510D02*
X1018980Y250510D01*
X1018980Y257490D01*
X1025960Y257490D01*
X1025960Y255310D02*
X1018980Y255310D01*
X1043500Y257490D02*
X1043500Y250510D01*
X1036520Y250510D01*
X1036520Y257490D01*
X1043500Y257490D01*
X1043500Y255310D02*
X1036520Y255310D01*
D14*
X980440Y50800D03*
X1273810Y267970D03*
D15*
X1259840Y292100D03*
X1259840Y25400D03*
X993140Y25400D03*
X993140Y292100D03*
D16*
X1126460Y177100D03*
X1126460Y169100D03*
X1126460Y161100D03*
X1126460Y153100D03*
X1139220Y153100D03*
X1139220Y161100D03*
X1139220Y169100D03*
X1139220Y177100D03*
D17*
X1110340Y111350D03*
X1110340Y104850D03*
X1110340Y98350D03*
X1110340Y91850D03*
X1155340Y91850D03*
X1155340Y98350D03*
X1155340Y104850D03*
X1155340Y111350D03*
D10*
X1154040Y127000D03*
X1137040Y127000D03*
X1128640Y76200D03*
X1111640Y76200D03*
X1230240Y254000D03*
X1213240Y254000D03*
X1230240Y228600D03*
X1213240Y228600D03*
D18*
X1123340Y240999D03*
X1132840Y240999D03*
X1142340Y240999D03*
X1142340Y267001D03*
X1123340Y267001D03*
D19*
X1158240Y245500D03*
X1158240Y262500D03*
X1107440Y262500D03*
X1107440Y245500D03*
D20*
X1082040Y202500D03*
D21*
X1082040Y182230D03*
D13*
X1180150Y185220D02*
X1187130Y185220D01*
X1187130Y178240D01*
X1180150Y178240D01*
X1180150Y185220D01*
X1180150Y183040D02*
X1187130Y183040D01*
X1187130Y202760D02*
X1180150Y202760D01*
X1187130Y202760D02*
X1187130Y195780D01*
X1180150Y195780D01*
X1180150Y202760D01*
X1180150Y200580D02*
X1187130Y200580D01*
D22*
X1082040Y127000D03*
X1082040Y152400D03*
X1183640Y127000D03*
X1183640Y152400D03*
D23*
X1059840Y91600D03*
X1078840Y91600D03*
X1069340Y112600D03*
X1186840Y91600D03*
X1205840Y91600D03*
X1196340Y112600D03*
X1021740Y218600D03*
X1040740Y218600D03*
X1031240Y239600D03*
D19*
X1170940Y169300D03*
X1170940Y186300D03*
D10*
X1124340Y203200D03*
X1141340Y203200D03*
D24*
X1069340Y12700D03*
X1094740Y12700D03*
X1120140Y12700D03*
X1145540Y12700D03*
X1170940Y12700D03*
X1196340Y12700D03*
D19*
X1069340Y275200D03*
X1069340Y258200D03*
D10*
X72000Y589280D03*
X55000Y589280D03*
D11*
X14050Y515680D03*
X14050Y459680D03*
D12*
X50800Y502680D03*
X50800Y492680D03*
X50800Y482680D03*
X50800Y472680D03*
D11*
X303450Y459680D03*
X303450Y515680D03*
D12*
X266700Y472680D03*
X266700Y482680D03*
X266700Y492680D03*
X266700Y502680D03*
D13*
X58220Y573090D02*
X58220Y580070D01*
X58220Y573090D02*
X51240Y573090D01*
X51240Y580070D01*
X58220Y580070D01*
X58220Y577890D02*
X51240Y577890D01*
X75760Y580070D02*
X75760Y573090D01*
X68780Y573090D01*
X68780Y580070D01*
X75760Y580070D01*
X75760Y577890D02*
X68780Y577890D01*
D14*
X12700Y373380D03*
X306070Y590550D03*
D15*
X292100Y614680D03*
X292100Y347980D03*
X25400Y347980D03*
X25400Y614680D03*
D16*
X158720Y499680D03*
X158720Y491680D03*
X158720Y483680D03*
X158720Y475680D03*
X171480Y475680D03*
X171480Y483680D03*
X171480Y491680D03*
X171480Y499680D03*
D17*
X142600Y433930D03*
X142600Y427430D03*
X142600Y420930D03*
X142600Y414430D03*
X187600Y414430D03*
X187600Y420930D03*
X187600Y427430D03*
X187600Y433930D03*
D10*
X186300Y449580D03*
X169300Y449580D03*
X160900Y398780D03*
X143900Y398780D03*
X262500Y576580D03*
X245500Y576580D03*
X262500Y551180D03*
X245500Y551180D03*
D18*
X155600Y563579D03*
X165100Y563579D03*
X174600Y563579D03*
X174600Y589581D03*
X155600Y589581D03*
D19*
X190500Y568080D03*
X190500Y585080D03*
X139700Y585080D03*
X139700Y568080D03*
D20*
X114300Y525080D03*
D21*
X114300Y504810D03*
D13*
X212410Y507800D02*
X219390Y507800D01*
X219390Y500820D01*
X212410Y500820D01*
X212410Y507800D01*
X212410Y505620D02*
X219390Y505620D01*
X219390Y525340D02*
X212410Y525340D01*
X219390Y525340D02*
X219390Y518360D01*
X212410Y518360D01*
X212410Y525340D01*
X212410Y523160D02*
X219390Y523160D01*
D22*
X114300Y449580D03*
X114300Y474980D03*
X215900Y449580D03*
X215900Y474980D03*
D23*
X92100Y414180D03*
X111100Y414180D03*
X101600Y435180D03*
X219100Y414180D03*
X238100Y414180D03*
X228600Y435180D03*
X54000Y541180D03*
X73000Y541180D03*
X63500Y562180D03*
D19*
X203200Y491880D03*
X203200Y508880D03*
D10*
X156600Y525780D03*
X173600Y525780D03*
D24*
X101600Y335280D03*
X127000Y335280D03*
X152400Y335280D03*
X177800Y335280D03*
X203200Y335280D03*
X228600Y335280D03*
D19*
X101600Y597780D03*
X101600Y580780D03*
D10*
X394580Y589280D03*
X377580Y589280D03*
D11*
X336630Y515680D03*
X336630Y459680D03*
D12*
X373380Y502680D03*
X373380Y492680D03*
X373380Y482680D03*
X373380Y472680D03*
D11*
X626030Y459680D03*
X626030Y515680D03*
D12*
X589280Y472680D03*
X589280Y482680D03*
X589280Y492680D03*
X589280Y502680D03*
D13*
X380800Y573090D02*
X380800Y580070D01*
X380800Y573090D02*
X373820Y573090D01*
X373820Y580070D01*
X380800Y580070D01*
X380800Y577890D02*
X373820Y577890D01*
X398340Y580070D02*
X398340Y573090D01*
X391360Y573090D01*
X391360Y580070D01*
X398340Y580070D01*
X398340Y577890D02*
X391360Y577890D01*
D14*
X335280Y373380D03*
X628650Y590550D03*
D15*
X614680Y614680D03*
X614680Y347980D03*
X347980Y347980D03*
X347980Y614680D03*
D16*
X481300Y499680D03*
X481300Y491680D03*
X481300Y483680D03*
X481300Y475680D03*
X494060Y475680D03*
X494060Y483680D03*
X494060Y491680D03*
X494060Y499680D03*
D17*
X465180Y433930D03*
X465180Y427430D03*
X465180Y420930D03*
X465180Y414430D03*
X510180Y414430D03*
X510180Y420930D03*
X510180Y427430D03*
X510180Y433930D03*
D10*
X508880Y449580D03*
X491880Y449580D03*
X483480Y398780D03*
X466480Y398780D03*
X585080Y576580D03*
X568080Y576580D03*
X585080Y551180D03*
X568080Y551180D03*
D18*
X478180Y563579D03*
X487680Y563579D03*
X497180Y563579D03*
X497180Y589581D03*
X478180Y589581D03*
D19*
X513080Y568080D03*
X513080Y585080D03*
X462280Y585080D03*
X462280Y568080D03*
D20*
X436880Y525080D03*
D21*
X436880Y504810D03*
D13*
X534990Y507800D02*
X541970Y507800D01*
X541970Y500820D01*
X534990Y500820D01*
X534990Y507800D01*
X534990Y505620D02*
X541970Y505620D01*
X541970Y525340D02*
X534990Y525340D01*
X541970Y525340D02*
X541970Y518360D01*
X534990Y518360D01*
X534990Y525340D01*
X534990Y523160D02*
X541970Y523160D01*
D22*
X436880Y449580D03*
X436880Y474980D03*
X538480Y449580D03*
X538480Y474980D03*
D23*
X414680Y414180D03*
X433680Y414180D03*
X424180Y435180D03*
X541680Y414180D03*
X560680Y414180D03*
X551180Y435180D03*
X376580Y541180D03*
X395580Y541180D03*
X386080Y562180D03*
D19*
X525780Y491880D03*
X525780Y508880D03*
D10*
X479180Y525780D03*
X496180Y525780D03*
D24*
X424180Y335280D03*
X449580Y335280D03*
X474980Y335280D03*
X500380Y335280D03*
X525780Y335280D03*
X551180Y335280D03*
D19*
X424180Y597780D03*
X424180Y580780D03*
D10*
X717160Y589280D03*
X700160Y589280D03*
D11*
X659210Y515680D03*
X659210Y459680D03*
D12*
X695960Y502680D03*
X695960Y492680D03*
X695960Y482680D03*
X695960Y472680D03*
D11*
X948610Y459680D03*
X948610Y515680D03*
D12*
X911860Y472680D03*
X911860Y482680D03*
X911860Y492680D03*
X911860Y502680D03*
D13*
X703380Y573090D02*
X703380Y580070D01*
X703380Y573090D02*
X696400Y573090D01*
X696400Y580070D01*
X703380Y580070D01*
X703380Y577890D02*
X696400Y577890D01*
X720920Y580070D02*
X720920Y573090D01*
X713940Y573090D01*
X713940Y580070D01*
X720920Y580070D01*
X720920Y577890D02*
X713940Y577890D01*
D14*
X657860Y373380D03*
X951230Y590550D03*
D15*
X937260Y614680D03*
X937260Y347980D03*
X670560Y347980D03*
X670560Y614680D03*
D16*
X803880Y499680D03*
X803880Y491680D03*
X803880Y483680D03*
X803880Y475680D03*
X816640Y475680D03*
X816640Y483680D03*
X816640Y491680D03*
X816640Y499680D03*
D17*
X787760Y433930D03*
X787760Y427430D03*
X787760Y420930D03*
X787760Y414430D03*
X832760Y414430D03*
X832760Y420930D03*
X832760Y427430D03*
X832760Y433930D03*
D10*
X831460Y449580D03*
X814460Y449580D03*
X806060Y398780D03*
X789060Y398780D03*
X907660Y576580D03*
X890660Y576580D03*
X907660Y551180D03*
X890660Y551180D03*
D18*
X800760Y563579D03*
X810260Y563579D03*
X819760Y563579D03*
X819760Y589581D03*
X800760Y589581D03*
D19*
X835660Y568080D03*
X835660Y585080D03*
X784860Y585080D03*
X784860Y568080D03*
D20*
X759460Y525080D03*
D21*
X759460Y504810D03*
D13*
X857570Y507800D02*
X864550Y507800D01*
X864550Y500820D01*
X857570Y500820D01*
X857570Y507800D01*
X857570Y505620D02*
X864550Y505620D01*
X864550Y525340D02*
X857570Y525340D01*
X864550Y525340D02*
X864550Y518360D01*
X857570Y518360D01*
X857570Y525340D01*
X857570Y523160D02*
X864550Y523160D01*
D22*
X759460Y449580D03*
X759460Y474980D03*
X861060Y449580D03*
X861060Y474980D03*
D23*
X737260Y414180D03*
X756260Y414180D03*
X746760Y435180D03*
X864260Y414180D03*
X883260Y414180D03*
X873760Y435180D03*
X699160Y541180D03*
X718160Y541180D03*
X708660Y562180D03*
D19*
X848360Y491880D03*
X848360Y508880D03*
D10*
X801760Y525780D03*
X818760Y525780D03*
D24*
X746760Y335280D03*
X772160Y335280D03*
X797560Y335280D03*
X822960Y335280D03*
X848360Y335280D03*
X873760Y335280D03*
D19*
X746760Y597780D03*
X746760Y580780D03*
D10*
X1039740Y589280D03*
X1022740Y589280D03*
D11*
X981790Y515680D03*
X981790Y459680D03*
D12*
X1018540Y502680D03*
X1018540Y492680D03*
X1018540Y482680D03*
X1018540Y472680D03*
D11*
X1271190Y459680D03*
X1271190Y515680D03*
D12*
X1234440Y472680D03*
X1234440Y482680D03*
X1234440Y492680D03*
X1234440Y502680D03*
D13*
X1025960Y573090D02*
X1025960Y580070D01*
X1025960Y573090D02*
X1018980Y573090D01*
X1018980Y580070D01*
X1025960Y580070D01*
X1025960Y577890D02*
X1018980Y577890D01*
X1043500Y580070D02*
X1043500Y573090D01*
X1036520Y573090D01*
X1036520Y580070D01*
X1043500Y580070D01*
X1043500Y577890D02*
X1036520Y577890D01*
D14*
X980440Y373380D03*
X1273810Y590550D03*
D15*
X1259840Y614680D03*
X1259840Y347980D03*
X993140Y347980D03*
X993140Y614680D03*
D16*
X1126460Y499680D03*
X1126460Y491680D03*
X1126460Y483680D03*
X1126460Y475680D03*
X1139220Y475680D03*
X1139220Y483680D03*
X1139220Y491680D03*
X1139220Y499680D03*
D17*
X1110340Y433930D03*
X1110340Y427430D03*
X1110340Y420930D03*
X1110340Y414430D03*
X1155340Y414430D03*
X1155340Y420930D03*
X1155340Y427430D03*
X1155340Y433930D03*
D10*
X1154040Y449580D03*
X1137040Y449580D03*
X1128640Y398780D03*
X1111640Y398780D03*
X1230240Y576580D03*
X1213240Y576580D03*
X1230240Y551180D03*
X1213240Y551180D03*
D18*
X1123340Y563579D03*
X1132840Y563579D03*
X1142340Y563579D03*
X1142340Y589581D03*
X1123340Y589581D03*
D19*
X1158240Y568080D03*
X1158240Y585080D03*
X1107440Y585080D03*
X1107440Y568080D03*
D20*
X1082040Y525080D03*
D21*
X1082040Y504810D03*
D13*
X1180150Y507800D02*
X1187130Y507800D01*
X1187130Y500820D01*
X1180150Y500820D01*
X1180150Y507800D01*
X1180150Y505620D02*
X1187130Y505620D01*
X1187130Y525340D02*
X1180150Y525340D01*
X1187130Y525340D02*
X1187130Y518360D01*
X1180150Y518360D01*
X1180150Y525340D01*
X1180150Y523160D02*
X1187130Y523160D01*
D22*
X1082040Y449580D03*
X1082040Y474980D03*
X1183640Y449580D03*
X1183640Y474980D03*
D23*
X1059840Y414180D03*
X1078840Y414180D03*
X1069340Y435180D03*
X1186840Y414180D03*
X1205840Y414180D03*
X1196340Y435180D03*
X1021740Y541180D03*
X1040740Y541180D03*
X1031240Y562180D03*
D19*
X1170940Y491880D03*
X1170940Y508880D03*
D10*
X1124340Y525780D03*
X1141340Y525780D03*
D24*
X1069340Y335280D03*
X1094740Y335280D03*
X1120140Y335280D03*
X1145540Y335280D03*
X1170940Y335280D03*
X1196340Y335280D03*
D19*
X1069340Y597780D03*
X1069340Y580780D03*
D10*
X72000Y911860D03*
X55000Y911860D03*
D11*
X14050Y838260D03*
X14050Y782260D03*
D12*
X50800Y825260D03*
X50800Y815260D03*
X50800Y805260D03*
X50800Y795260D03*
D11*
X303450Y782260D03*
X303450Y838260D03*
D12*
X266700Y795260D03*
X266700Y805260D03*
X266700Y815260D03*
X266700Y825260D03*
D13*
X58220Y895670D02*
X58220Y902650D01*
X58220Y895670D02*
X51240Y895670D01*
X51240Y902650D01*
X58220Y902650D01*
X58220Y900470D02*
X51240Y900470D01*
X75760Y902650D02*
X75760Y895670D01*
X68780Y895670D01*
X68780Y902650D01*
X75760Y902650D01*
X75760Y900470D02*
X68780Y900470D01*
D14*
X12700Y695960D03*
X306070Y913130D03*
D15*
X292100Y937260D03*
X292100Y670560D03*
X25400Y670560D03*
X25400Y937260D03*
D16*
X158720Y822260D03*
X158720Y814260D03*
X158720Y806260D03*
X158720Y798260D03*
X171480Y798260D03*
X171480Y806260D03*
X171480Y814260D03*
X171480Y822260D03*
D17*
X142600Y756510D03*
X142600Y750010D03*
X142600Y743510D03*
X142600Y737010D03*
X187600Y737010D03*
X187600Y743510D03*
X187600Y750010D03*
X187600Y756510D03*
D10*
X186300Y772160D03*
X169300Y772160D03*
X160900Y721360D03*
X143900Y721360D03*
X262500Y899160D03*
X245500Y899160D03*
X262500Y873760D03*
X245500Y873760D03*
D18*
X155600Y886159D03*
X165100Y886159D03*
X174600Y886159D03*
X174600Y912161D03*
X155600Y912161D03*
D19*
X190500Y890660D03*
X190500Y907660D03*
X139700Y907660D03*
X139700Y890660D03*
D20*
X114300Y847660D03*
D21*
X114300Y827390D03*
D13*
X212410Y830380D02*
X219390Y830380D01*
X219390Y823400D01*
X212410Y823400D01*
X212410Y830380D01*
X212410Y828200D02*
X219390Y828200D01*
X219390Y847920D02*
X212410Y847920D01*
X219390Y847920D02*
X219390Y840940D01*
X212410Y840940D01*
X212410Y847920D01*
X212410Y845740D02*
X219390Y845740D01*
D22*
X114300Y772160D03*
X114300Y797560D03*
X215900Y772160D03*
X215900Y797560D03*
D23*
X92100Y736760D03*
X111100Y736760D03*
X101600Y757760D03*
X219100Y736760D03*
X238100Y736760D03*
X228600Y757760D03*
X54000Y863760D03*
X73000Y863760D03*
X63500Y884760D03*
D19*
X203200Y814460D03*
X203200Y831460D03*
D10*
X156600Y848360D03*
X173600Y848360D03*
D24*
X101600Y657860D03*
X127000Y657860D03*
X152400Y657860D03*
X177800Y657860D03*
X203200Y657860D03*
X228600Y657860D03*
D19*
X101600Y920360D03*
X101600Y903360D03*
D10*
X394580Y911860D03*
X377580Y911860D03*
D11*
X336630Y838260D03*
X336630Y782260D03*
D12*
X373380Y825260D03*
X373380Y815260D03*
X373380Y805260D03*
X373380Y795260D03*
D11*
X626030Y782260D03*
X626030Y838260D03*
D12*
X589280Y795260D03*
X589280Y805260D03*
X589280Y815260D03*
X589280Y825260D03*
D13*
X380800Y895670D02*
X380800Y902650D01*
X380800Y895670D02*
X373820Y895670D01*
X373820Y902650D01*
X380800Y902650D01*
X380800Y900470D02*
X373820Y900470D01*
X398340Y902650D02*
X398340Y895670D01*
X391360Y895670D01*
X391360Y902650D01*
X398340Y902650D01*
X398340Y900470D02*
X391360Y900470D01*
D14*
X335280Y695960D03*
X628650Y913130D03*
D15*
X614680Y937260D03*
X614680Y670560D03*
X347980Y670560D03*
X347980Y937260D03*
D16*
X481300Y822260D03*
X481300Y814260D03*
X481300Y806260D03*
X481300Y798260D03*
X494060Y798260D03*
X494060Y806260D03*
X494060Y814260D03*
X494060Y822260D03*
D17*
X465180Y756510D03*
X465180Y750010D03*
X465180Y743510D03*
X465180Y737010D03*
X510180Y737010D03*
X510180Y743510D03*
X510180Y750010D03*
X510180Y756510D03*
D10*
X508880Y772160D03*
X491880Y772160D03*
X483480Y721360D03*
X466480Y721360D03*
X585080Y899160D03*
X568080Y899160D03*
X585080Y873760D03*
X568080Y873760D03*
D18*
X478180Y886159D03*
X487680Y886159D03*
X497180Y886159D03*
X497180Y912161D03*
X478180Y912161D03*
D19*
X513080Y890660D03*
X513080Y907660D03*
X462280Y907660D03*
X462280Y890660D03*
D20*
X436880Y847660D03*
D21*
X436880Y827390D03*
D13*
X534990Y830380D02*
X541970Y830380D01*
X541970Y823400D01*
X534990Y823400D01*
X534990Y830380D01*
X534990Y828200D02*
X541970Y828200D01*
X541970Y847920D02*
X534990Y847920D01*
X541970Y847920D02*
X541970Y840940D01*
X534990Y840940D01*
X534990Y847920D01*
X534990Y845740D02*
X541970Y845740D01*
D22*
X436880Y772160D03*
X436880Y797560D03*
X538480Y772160D03*
X538480Y797560D03*
D23*
X414680Y736760D03*
X433680Y736760D03*
X424180Y757760D03*
X541680Y736760D03*
X560680Y736760D03*
X551180Y757760D03*
X376580Y863760D03*
X395580Y863760D03*
X386080Y884760D03*
D19*
X525780Y814460D03*
X525780Y831460D03*
D10*
X479180Y848360D03*
X496180Y848360D03*
D24*
X424180Y657860D03*
X449580Y657860D03*
X474980Y657860D03*
X500380Y657860D03*
X525780Y657860D03*
X551180Y657860D03*
D19*
X424180Y920360D03*
X424180Y903360D03*
D10*
X717160Y911860D03*
X700160Y911860D03*
D11*
X659210Y838260D03*
X659210Y782260D03*
D12*
X695960Y825260D03*
X695960Y815260D03*
X695960Y805260D03*
X695960Y795260D03*
D11*
X948610Y782260D03*
X948610Y838260D03*
D12*
X911860Y795260D03*
X911860Y805260D03*
X911860Y815260D03*
X911860Y825260D03*
D13*
X703380Y895670D02*
X703380Y902650D01*
X703380Y895670D02*
X696400Y895670D01*
X696400Y902650D01*
X703380Y902650D01*
X703380Y900470D02*
X696400Y900470D01*
X720920Y902650D02*
X720920Y895670D01*
X713940Y895670D01*
X713940Y902650D01*
X720920Y902650D01*
X720920Y900470D02*
X713940Y900470D01*
D14*
X657860Y695960D03*
X951230Y913130D03*
D15*
X937260Y937260D03*
X937260Y670560D03*
X670560Y670560D03*
X670560Y937260D03*
D16*
X803880Y822260D03*
X803880Y814260D03*
X803880Y806260D03*
X803880Y798260D03*
X816640Y798260D03*
X816640Y806260D03*
X816640Y814260D03*
X816640Y822260D03*
D17*
X787760Y756510D03*
X787760Y750010D03*
X787760Y743510D03*
X787760Y737010D03*
X832760Y737010D03*
X832760Y743510D03*
X832760Y750010D03*
X832760Y756510D03*
D10*
X831460Y772160D03*
X814460Y772160D03*
X806060Y721360D03*
X789060Y721360D03*
X907660Y899160D03*
X890660Y899160D03*
X907660Y873760D03*
X890660Y873760D03*
D18*
X800760Y886159D03*
X810260Y886159D03*
X819760Y886159D03*
X819760Y912161D03*
X800760Y912161D03*
D19*
X835660Y890660D03*
X835660Y907660D03*
X784860Y907660D03*
X784860Y890660D03*
D20*
X759460Y847660D03*
D21*
X759460Y827390D03*
D13*
X857570Y830380D02*
X864550Y830380D01*
X864550Y823400D01*
X857570Y823400D01*
X857570Y830380D01*
X857570Y828200D02*
X864550Y828200D01*
X864550Y847920D02*
X857570Y847920D01*
X864550Y847920D02*
X864550Y840940D01*
X857570Y840940D01*
X857570Y847920D01*
X857570Y845740D02*
X864550Y845740D01*
D22*
X759460Y772160D03*
X759460Y797560D03*
X861060Y772160D03*
X861060Y797560D03*
D23*
X737260Y736760D03*
X756260Y736760D03*
X746760Y757760D03*
X864260Y736760D03*
X883260Y736760D03*
X873760Y757760D03*
X699160Y863760D03*
X718160Y863760D03*
X708660Y884760D03*
D19*
X848360Y814460D03*
X848360Y831460D03*
D10*
X801760Y848360D03*
X818760Y848360D03*
D24*
X746760Y657860D03*
X772160Y657860D03*
X797560Y657860D03*
X822960Y657860D03*
X848360Y657860D03*
X873760Y657860D03*
D19*
X746760Y920360D03*
X746760Y903360D03*
D10*
X1039740Y911860D03*
X1022740Y911860D03*
D11*
X981790Y838260D03*
X981790Y782260D03*
D12*
X1018540Y825260D03*
X1018540Y815260D03*
X1018540Y805260D03*
X1018540Y795260D03*
D11*
X1271190Y782260D03*
X1271190Y838260D03*
D12*
X1234440Y795260D03*
X1234440Y805260D03*
X1234440Y815260D03*
X1234440Y825260D03*
D13*
X1025960Y895670D02*
X1025960Y902650D01*
X1025960Y895670D02*
X1018980Y895670D01*
X1018980Y902650D01*
X1025960Y902650D01*
X1025960Y900470D02*
X1018980Y900470D01*
X1043500Y902650D02*
X1043500Y895670D01*
X1036520Y895670D01*
X1036520Y902650D01*
X1043500Y902650D01*
X1043500Y900470D02*
X1036520Y900470D01*
D14*
X980440Y695960D03*
X1273810Y913130D03*
D15*
X1259840Y937260D03*
X1259840Y670560D03*
X993140Y670560D03*
X993140Y937260D03*
D16*
X1126460Y822260D03*
X1126460Y814260D03*
X1126460Y806260D03*
X1126460Y798260D03*
X1139220Y798260D03*
X1139220Y806260D03*
X1139220Y814260D03*
X1139220Y822260D03*
D17*
X1110340Y756510D03*
X1110340Y750010D03*
X1110340Y743510D03*
X1110340Y737010D03*
X1155340Y737010D03*
X1155340Y743510D03*
X1155340Y750010D03*
X1155340Y756510D03*
D10*
X1154040Y772160D03*
X1137040Y772160D03*
X1128640Y721360D03*
X1111640Y721360D03*
X1230240Y899160D03*
X1213240Y899160D03*
X1230240Y873760D03*
X1213240Y873760D03*
D18*
X1123340Y886159D03*
X1132840Y886159D03*
X1142340Y886159D03*
X1142340Y912161D03*
X1123340Y912161D03*
D19*
X1158240Y890660D03*
X1158240Y907660D03*
X1107440Y907660D03*
X1107440Y890660D03*
D20*
X1082040Y847660D03*
D21*
X1082040Y827390D03*
D13*
X1180150Y830380D02*
X1187130Y830380D01*
X1187130Y823400D01*
X1180150Y823400D01*
X1180150Y830380D01*
X1180150Y828200D02*
X1187130Y828200D01*
X1187130Y847920D02*
X1180150Y847920D01*
X1187130Y847920D02*
X1187130Y840940D01*
X1180150Y840940D01*
X1180150Y847920D01*
X1180150Y845740D02*
X1187130Y845740D01*
D22*
X1082040Y772160D03*
X1082040Y797560D03*
X1183640Y772160D03*
X1183640Y797560D03*
D23*
X1059840Y736760D03*
X1078840Y736760D03*
X1069340Y757760D03*
X1186840Y736760D03*
X1205840Y736760D03*
X1196340Y757760D03*
X1021740Y863760D03*
X1040740Y863760D03*
X1031240Y884760D03*
D19*
X1170940Y814460D03*
X1170940Y831460D03*
D10*
X1124340Y848360D03*
X1141340Y848360D03*
D24*
X1069340Y657860D03*
X1094740Y657860D03*
X1120140Y657860D03*
X1145540Y657860D03*
X1170940Y657860D03*
X1196340Y657860D03*
D19*
X1069340Y920360D03*
X1069340Y903360D03*
D10*
X72000Y1234440D03*
X55000Y1234440D03*
D11*
X14050Y1160840D03*
X14050Y1104840D03*
D12*
X50800Y1147840D03*
X50800Y1137840D03*
X50800Y1127840D03*
X50800Y1117840D03*
D11*
X303450Y1104840D03*
X303450Y1160840D03*
D12*
X266700Y1117840D03*
X266700Y1127840D03*
X266700Y1137840D03*
X266700Y1147840D03*
D13*
X58220Y1218250D02*
X58220Y1225230D01*
X58220Y1218250D02*
X51240Y1218250D01*
X51240Y1225230D01*
X58220Y1225230D01*
X58220Y1223050D02*
X51240Y1223050D01*
X75760Y1225230D02*
X75760Y1218250D01*
X68780Y1218250D01*
X68780Y1225230D01*
X75760Y1225230D01*
X75760Y1223050D02*
X68780Y1223050D01*
D14*
X12700Y1018540D03*
X306070Y1235710D03*
D15*
X292100Y1259840D03*
X292100Y993140D03*
X25400Y993140D03*
X25400Y1259840D03*
D16*
X158720Y1144840D03*
X158720Y1136840D03*
X158720Y1128840D03*
X158720Y1120840D03*
X171480Y1120840D03*
X171480Y1128840D03*
X171480Y1136840D03*
X171480Y1144840D03*
D17*
X142600Y1079090D03*
X142600Y1072590D03*
X142600Y1066090D03*
X142600Y1059590D03*
X187600Y1059590D03*
X187600Y1066090D03*
X187600Y1072590D03*
X187600Y1079090D03*
D10*
X186300Y1094740D03*
X169300Y1094740D03*
X160900Y1043940D03*
X143900Y1043940D03*
X262500Y1221740D03*
X245500Y1221740D03*
X262500Y1196340D03*
X245500Y1196340D03*
D18*
X155600Y1208739D03*
X165100Y1208739D03*
X174600Y1208739D03*
X174600Y1234741D03*
X155600Y1234741D03*
D19*
X190500Y1213240D03*
X190500Y1230240D03*
X139700Y1230240D03*
X139700Y1213240D03*
D20*
X114300Y1170240D03*
D21*
X114300Y1149970D03*
D13*
X212410Y1152960D02*
X219390Y1152960D01*
X219390Y1145980D01*
X212410Y1145980D01*
X212410Y1152960D01*
X212410Y1150780D02*
X219390Y1150780D01*
X219390Y1170500D02*
X212410Y1170500D01*
X219390Y1170500D02*
X219390Y1163520D01*
X212410Y1163520D01*
X212410Y1170500D01*
X212410Y1168320D02*
X219390Y1168320D01*
D22*
X114300Y1094740D03*
X114300Y1120140D03*
X215900Y1094740D03*
X215900Y1120140D03*
D23*
X92100Y1059340D03*
X111100Y1059340D03*
X101600Y1080340D03*
X219100Y1059340D03*
X238100Y1059340D03*
X228600Y1080340D03*
X54000Y1186340D03*
X73000Y1186340D03*
X63500Y1207340D03*
D19*
X203200Y1137040D03*
X203200Y1154040D03*
D10*
X156600Y1170940D03*
X173600Y1170940D03*
D24*
X101600Y980440D03*
X127000Y980440D03*
X152400Y980440D03*
X177800Y980440D03*
X203200Y980440D03*
X228600Y980440D03*
D19*
X101600Y1242940D03*
X101600Y1225940D03*
D10*
X394580Y1234440D03*
X377580Y1234440D03*
D11*
X336630Y1160840D03*
X336630Y1104840D03*
D12*
X373380Y1147840D03*
X373380Y1137840D03*
X373380Y1127840D03*
X373380Y1117840D03*
D11*
X626030Y1104840D03*
X626030Y1160840D03*
D12*
X589280Y1117840D03*
X589280Y1127840D03*
X589280Y1137840D03*
X589280Y1147840D03*
D13*
X380800Y1218250D02*
X380800Y1225230D01*
X380800Y1218250D02*
X373820Y1218250D01*
X373820Y1225230D01*
X380800Y1225230D01*
X380800Y1223050D02*
X373820Y1223050D01*
X398340Y1225230D02*
X398340Y1218250D01*
X391360Y1218250D01*
X391360Y1225230D01*
X398340Y1225230D01*
X398340Y1223050D02*
X391360Y1223050D01*
D14*
X335280Y1018540D03*
X628650Y1235710D03*
D15*
X614680Y1259840D03*
X614680Y993140D03*
X347980Y993140D03*
X347980Y1259840D03*
D16*
X481300Y1144840D03*
X481300Y1136840D03*
X481300Y1128840D03*
X481300Y1120840D03*
X494060Y1120840D03*
X494060Y1128840D03*
X494060Y1136840D03*
X494060Y1144840D03*
D17*
X465180Y1079090D03*
X465180Y1072590D03*
X465180Y1066090D03*
X465180Y1059590D03*
X510180Y1059590D03*
X510180Y1066090D03*
X510180Y1072590D03*
X510180Y1079090D03*
D10*
X508880Y1094740D03*
X491880Y1094740D03*
X483480Y1043940D03*
X466480Y1043940D03*
X585080Y1221740D03*
X568080Y1221740D03*
X585080Y1196340D03*
X568080Y1196340D03*
D18*
X478180Y1208739D03*
X487680Y1208739D03*
X497180Y1208739D03*
X497180Y1234741D03*
X478180Y1234741D03*
D19*
X513080Y1213240D03*
X513080Y1230240D03*
X462280Y1230240D03*
X462280Y1213240D03*
D20*
X436880Y1170240D03*
D21*
X436880Y1149970D03*
D13*
X534990Y1152960D02*
X541970Y1152960D01*
X541970Y1145980D01*
X534990Y1145980D01*
X534990Y1152960D01*
X534990Y1150780D02*
X541970Y1150780D01*
X541970Y1170500D02*
X534990Y1170500D01*
X541970Y1170500D02*
X541970Y1163520D01*
X534990Y1163520D01*
X534990Y1170500D01*
X534990Y1168320D02*
X541970Y1168320D01*
D22*
X436880Y1094740D03*
X436880Y1120140D03*
X538480Y1094740D03*
X538480Y1120140D03*
D23*
X414680Y1059340D03*
X433680Y1059340D03*
X424180Y1080340D03*
X541680Y1059340D03*
X560680Y1059340D03*
X551180Y1080340D03*
X376580Y1186340D03*
X395580Y1186340D03*
X386080Y1207340D03*
D19*
X525780Y1137040D03*
X525780Y1154040D03*
D10*
X479180Y1170940D03*
X496180Y1170940D03*
D24*
X424180Y980440D03*
X449580Y980440D03*
X474980Y980440D03*
X500380Y980440D03*
X525780Y980440D03*
X551180Y980440D03*
D19*
X424180Y1242940D03*
X424180Y1225940D03*
D10*
X717160Y1234440D03*
X700160Y1234440D03*
D11*
X659210Y1160840D03*
X659210Y1104840D03*
D12*
X695960Y1147840D03*
X695960Y1137840D03*
X695960Y1127840D03*
X695960Y1117840D03*
D11*
X948610Y1104840D03*
X948610Y1160840D03*
D12*
X911860Y1117840D03*
X911860Y1127840D03*
X911860Y1137840D03*
X911860Y1147840D03*
D13*
X703380Y1218250D02*
X703380Y1225230D01*
X703380Y1218250D02*
X696400Y1218250D01*
X696400Y1225230D01*
X703380Y1225230D01*
X703380Y1223050D02*
X696400Y1223050D01*
X720920Y1225230D02*
X720920Y1218250D01*
X713940Y1218250D01*
X713940Y1225230D01*
X720920Y1225230D01*
X720920Y1223050D02*
X713940Y1223050D01*
D14*
X657860Y1018540D03*
X951230Y1235710D03*
D15*
X937260Y1259840D03*
X937260Y993140D03*
X670560Y993140D03*
X670560Y1259840D03*
D16*
X803880Y1144840D03*
X803880Y1136840D03*
X803880Y1128840D03*
X803880Y1120840D03*
X816640Y1120840D03*
X816640Y1128840D03*
X816640Y1136840D03*
X816640Y1144840D03*
D17*
X787760Y1079090D03*
X787760Y1072590D03*
X787760Y1066090D03*
X787760Y1059590D03*
X832760Y1059590D03*
X832760Y1066090D03*
X832760Y1072590D03*
X832760Y1079090D03*
D10*
X831460Y1094740D03*
X814460Y1094740D03*
X806060Y1043940D03*
X789060Y1043940D03*
X907660Y1221740D03*
X890660Y1221740D03*
X907660Y1196340D03*
X890660Y1196340D03*
D18*
X800760Y1208739D03*
X810260Y1208739D03*
X819760Y1208739D03*
X819760Y1234741D03*
X800760Y1234741D03*
D19*
X835660Y1213240D03*
X835660Y1230240D03*
X784860Y1230240D03*
X784860Y1213240D03*
D20*
X759460Y1170240D03*
D21*
X759460Y1149970D03*
D13*
X857570Y1152960D02*
X864550Y1152960D01*
X864550Y1145980D01*
X857570Y1145980D01*
X857570Y1152960D01*
X857570Y1150780D02*
X864550Y1150780D01*
X864550Y1170500D02*
X857570Y1170500D01*
X864550Y1170500D02*
X864550Y1163520D01*
X857570Y1163520D01*
X857570Y1170500D01*
X857570Y1168320D02*
X864550Y1168320D01*
D22*
X759460Y1094740D03*
X759460Y1120140D03*
X861060Y1094740D03*
X861060Y1120140D03*
D23*
X737260Y1059340D03*
X756260Y1059340D03*
X746760Y1080340D03*
X864260Y1059340D03*
X883260Y1059340D03*
X873760Y1080340D03*
X699160Y1186340D03*
X718160Y1186340D03*
X708660Y1207340D03*
D19*
X848360Y1137040D03*
X848360Y1154040D03*
D10*
X801760Y1170940D03*
X818760Y1170940D03*
D24*
X746760Y980440D03*
X772160Y980440D03*
X797560Y980440D03*
X822960Y980440D03*
X848360Y980440D03*
X873760Y980440D03*
D19*
X746760Y1242940D03*
X746760Y1225940D03*
D10*
X1039740Y1234440D03*
X1022740Y1234440D03*
D11*
X981790Y1160840D03*
X981790Y1104840D03*
D12*
X1018540Y1147840D03*
X1018540Y1137840D03*
X1018540Y1127840D03*
X1018540Y1117840D03*
D11*
X1271190Y1104840D03*
X1271190Y1160840D03*
D12*
X1234440Y1117840D03*
X1234440Y1127840D03*
X1234440Y1137840D03*
X1234440Y1147840D03*
D13*
X1025960Y1218250D02*
X1025960Y1225230D01*
X1025960Y1218250D02*
X1018980Y1218250D01*
X1018980Y1225230D01*
X1025960Y1225230D01*
X1025960Y1223050D02*
X1018980Y1223050D01*
X1043500Y1225230D02*
X1043500Y1218250D01*
X1036520Y1218250D01*
X1036520Y1225230D01*
X1043500Y1225230D01*
X1043500Y1223050D02*
X1036520Y1223050D01*
D14*
X980440Y1018540D03*
X1273810Y1235710D03*
D15*
X1259840Y1259840D03*
X1259840Y993140D03*
X993140Y993140D03*
X993140Y1259840D03*
D16*
X1126460Y1144840D03*
X1126460Y1136840D03*
X1126460Y1128840D03*
X1126460Y1120840D03*
X1139220Y1120840D03*
X1139220Y1128840D03*
X1139220Y1136840D03*
X1139220Y1144840D03*
D17*
X1110340Y1079090D03*
X1110340Y1072590D03*
X1110340Y1066090D03*
X1110340Y1059590D03*
X1155340Y1059590D03*
X1155340Y1066090D03*
X1155340Y1072590D03*
X1155340Y1079090D03*
D10*
X1154040Y1094740D03*
X1137040Y1094740D03*
X1128640Y1043940D03*
X1111640Y1043940D03*
X1230240Y1221740D03*
X1213240Y1221740D03*
X1230240Y1196340D03*
X1213240Y1196340D03*
D18*
X1123340Y1208739D03*
X1132840Y1208739D03*
X1142340Y1208739D03*
X1142340Y1234741D03*
X1123340Y1234741D03*
D19*
X1158240Y1213240D03*
X1158240Y1230240D03*
X1107440Y1230240D03*
X1107440Y1213240D03*
D20*
X1082040Y1170240D03*
D21*
X1082040Y1149970D03*
D13*
X1180150Y1152960D02*
X1187130Y1152960D01*
X1187130Y1145980D01*
X1180150Y1145980D01*
X1180150Y1152960D01*
X1180150Y1150780D02*
X1187130Y1150780D01*
X1187130Y1170500D02*
X1180150Y1170500D01*
X1187130Y1170500D02*
X1187130Y1163520D01*
X1180150Y1163520D01*
X1180150Y1170500D01*
X1180150Y1168320D02*
X1187130Y1168320D01*
D22*
X1082040Y1094740D03*
X1082040Y1120140D03*
X1183640Y1094740D03*
X1183640Y1120140D03*
D23*
X1059840Y1059340D03*
X1078840Y1059340D03*
X1069340Y1080340D03*
X1186840Y1059340D03*
X1205840Y1059340D03*
X1196340Y1080340D03*
X1021740Y1186340D03*
X1040740Y1186340D03*
X1031240Y1207340D03*
D19*
X1170940Y1137040D03*
X1170940Y1154040D03*
D10*
X1124340Y1170940D03*
X1141340Y1170940D03*
D24*
X1069340Y980440D03*
X1094740Y980440D03*
X1120140Y980440D03*
X1145540Y980440D03*
X1170940Y980440D03*
X1196340Y980440D03*
D19*
X1069340Y1242940D03*
X1069340Y1225940D03*
D14*
X-26238Y1258570D03*
X1311478Y1258570D03*
D25*
X-35293Y63500D02*
X-35290Y63722D01*
X-35282Y63944D01*
X-35268Y64166D01*
X-35249Y64388D01*
X-35225Y64608D01*
X-35195Y64829D01*
X-35160Y65048D01*
X-35119Y65267D01*
X-35073Y65484D01*
X-35022Y65700D01*
X-34965Y65915D01*
X-34903Y66129D01*
X-34836Y66340D01*
X-34764Y66551D01*
X-34686Y66759D01*
X-34604Y66965D01*
X-34516Y67169D01*
X-34424Y67372D01*
X-34326Y67571D01*
X-34224Y67768D01*
X-34117Y67963D01*
X-34005Y68155D01*
X-33888Y68344D01*
X-33767Y68531D01*
X-33641Y68714D01*
X-33511Y68894D01*
X-33376Y69071D01*
X-33238Y69244D01*
X-33095Y69414D01*
X-32947Y69581D01*
X-32796Y69744D01*
X-32641Y69903D01*
X-32482Y70058D01*
X-32319Y70209D01*
X-32152Y70357D01*
X-31982Y70500D01*
X-31809Y70638D01*
X-31632Y70773D01*
X-31452Y70903D01*
X-31269Y71029D01*
X-31082Y71150D01*
X-30893Y71267D01*
X-30701Y71379D01*
X-30506Y71486D01*
X-30309Y71588D01*
X-30110Y71686D01*
X-29907Y71778D01*
X-29703Y71866D01*
X-29497Y71948D01*
X-29289Y72026D01*
X-29078Y72098D01*
X-28867Y72165D01*
X-28653Y72227D01*
X-28438Y72284D01*
X-28222Y72335D01*
X-28005Y72381D01*
X-27786Y72422D01*
X-27567Y72457D01*
X-27346Y72487D01*
X-27126Y72511D01*
X-26904Y72530D01*
X-26682Y72544D01*
X-26460Y72552D01*
X-26238Y72555D01*
X-26016Y72552D01*
X-25794Y72544D01*
X-25572Y72530D01*
X-25350Y72511D01*
X-25130Y72487D01*
X-24909Y72457D01*
X-24690Y72422D01*
X-24471Y72381D01*
X-24254Y72335D01*
X-24038Y72284D01*
X-23823Y72227D01*
X-23609Y72165D01*
X-23398Y72098D01*
X-23187Y72026D01*
X-22979Y71948D01*
X-22773Y71866D01*
X-22569Y71778D01*
X-22366Y71686D01*
X-22167Y71588D01*
X-21970Y71486D01*
X-21775Y71379D01*
X-21583Y71267D01*
X-21394Y71150D01*
X-21207Y71029D01*
X-21024Y70903D01*
X-20844Y70773D01*
X-20667Y70638D01*
X-20494Y70500D01*
X-20324Y70357D01*
X-20157Y70209D01*
X-19994Y70058D01*
X-19835Y69903D01*
X-19680Y69744D01*
X-19529Y69581D01*
X-19381Y69414D01*
X-19238Y69244D01*
X-19100Y69071D01*
X-18965Y68894D01*
X-18835Y68714D01*
X-18709Y68531D01*
X-18588Y68344D01*
X-18471Y68155D01*
X-18359Y67963D01*
X-18252Y67768D01*
X-18150Y67571D01*
X-18052Y67372D01*
X-17960Y67169D01*
X-17872Y66965D01*
X-17790Y66759D01*
X-17712Y66551D01*
X-17640Y66340D01*
X-17573Y66129D01*
X-17511Y65915D01*
X-17454Y65700D01*
X-17403Y65484D01*
X-17357Y65267D01*
X-17316Y65048D01*
X-17281Y64829D01*
X-17251Y64608D01*
X-17227Y64388D01*
X-17208Y64166D01*
X-17194Y63944D01*
X-17186Y63722D01*
X-17183Y63500D01*
X-17186Y63278D01*
X-17194Y63056D01*
X-17208Y62834D01*
X-17227Y62612D01*
X-17251Y62392D01*
X-17281Y62171D01*
X-17316Y61952D01*
X-17357Y61733D01*
X-17403Y61516D01*
X-17454Y61300D01*
X-17511Y61085D01*
X-17573Y60871D01*
X-17640Y60660D01*
X-17712Y60449D01*
X-17790Y60241D01*
X-17872Y60035D01*
X-17960Y59831D01*
X-18052Y59628D01*
X-18150Y59429D01*
X-18252Y59232D01*
X-18359Y59037D01*
X-18471Y58845D01*
X-18588Y58656D01*
X-18709Y58469D01*
X-18835Y58286D01*
X-18965Y58106D01*
X-19100Y57929D01*
X-19238Y57756D01*
X-19381Y57586D01*
X-19529Y57419D01*
X-19680Y57256D01*
X-19835Y57097D01*
X-19994Y56942D01*
X-20157Y56791D01*
X-20324Y56643D01*
X-20494Y56500D01*
X-20667Y56362D01*
X-20844Y56227D01*
X-21024Y56097D01*
X-21207Y55971D01*
X-21394Y55850D01*
X-21583Y55733D01*
X-21775Y55621D01*
X-21970Y55514D01*
X-22167Y55412D01*
X-22366Y55314D01*
X-22569Y55222D01*
X-22773Y55134D01*
X-22979Y55052D01*
X-23187Y54974D01*
X-23398Y54902D01*
X-23609Y54835D01*
X-23823Y54773D01*
X-24038Y54716D01*
X-24254Y54665D01*
X-24471Y54619D01*
X-24690Y54578D01*
X-24909Y54543D01*
X-25130Y54513D01*
X-25350Y54489D01*
X-25572Y54470D01*
X-25794Y54456D01*
X-26016Y54448D01*
X-26238Y54445D01*
X-26460Y54448D01*
X-26682Y54456D01*
X-26904Y54470D01*
X-27126Y54489D01*
X-27346Y54513D01*
X-27567Y54543D01*
X-27786Y54578D01*
X-28005Y54619D01*
X-28222Y54665D01*
X-28438Y54716D01*
X-28653Y54773D01*
X-28867Y54835D01*
X-29078Y54902D01*
X-29289Y54974D01*
X-29497Y55052D01*
X-29703Y55134D01*
X-29907Y55222D01*
X-30110Y55314D01*
X-30309Y55412D01*
X-30506Y55514D01*
X-30701Y55621D01*
X-30893Y55733D01*
X-31082Y55850D01*
X-31269Y55971D01*
X-31452Y56097D01*
X-31632Y56227D01*
X-31809Y56362D01*
X-31982Y56500D01*
X-32152Y56643D01*
X-32319Y56791D01*
X-32482Y56942D01*
X-32641Y57097D01*
X-32796Y57256D01*
X-32947Y57419D01*
X-33095Y57586D01*
X-33238Y57756D01*
X-33376Y57929D01*
X-33511Y58106D01*
X-33641Y58286D01*
X-33767Y58469D01*
X-33888Y58656D01*
X-34005Y58845D01*
X-34117Y59037D01*
X-34224Y59232D01*
X-34326Y59429D01*
X-34424Y59628D01*
X-34516Y59831D01*
X-34604Y60035D01*
X-34686Y60241D01*
X-34764Y60449D01*
X-34836Y60660D01*
X-34903Y60871D01*
X-34965Y61085D01*
X-35022Y61300D01*
X-35073Y61516D01*
X-35119Y61733D01*
X-35160Y61952D01*
X-35195Y62171D01*
X-35225Y62392D01*
X-35249Y62612D01*
X-35268Y62834D01*
X-35282Y63056D01*
X-35290Y63278D01*
X-35293Y63500D01*
D26*
X-26238Y63500D03*
M02*
