G04 EAGLE Gerber RS-274X export*
G75*
%MOMM*%
%FSLAX34Y34*%
%LPD*%
%INSolderpaste Top*%
%IPPOS*%
%AMOC8*
5,1,8,0,0,1.08239X$1,22.5*%
G01*
%ADD10R,1.100000X1.000000*%
%ADD11R,2.000000X1.200000*%
%ADD12R,1.350000X0.600000*%
%ADD13C,0.300000*%
%ADD14R,0.575000X0.488000*%
%ADD15R,1.100000X0.400000*%
%ADD16R,0.550000X1.200000*%
%ADD17R,1.000000X1.100000*%
%ADD18R,0.600000X0.600000*%
%ADD19R,0.800000X0.900000*%


D10*
X72000Y266700D03*
X55000Y266700D03*
D11*
X14050Y193100D03*
X14050Y137100D03*
D12*
X50800Y180100D03*
X50800Y170100D03*
X50800Y160100D03*
X50800Y150100D03*
D11*
X303450Y137100D03*
X303450Y193100D03*
D12*
X266700Y150100D03*
X266700Y160100D03*
X266700Y170100D03*
X266700Y180100D03*
D13*
X58230Y250500D02*
X58230Y257500D01*
X58230Y250500D02*
X51230Y250500D01*
X51230Y257500D01*
X58230Y257500D01*
X58230Y253350D02*
X51230Y253350D01*
X51230Y256200D02*
X58230Y256200D01*
X75770Y257500D02*
X75770Y250500D01*
X68770Y250500D01*
X68770Y257500D01*
X75770Y257500D01*
X75770Y253350D02*
X68770Y253350D01*
X68770Y256200D02*
X75770Y256200D01*
D14*
X158720Y177100D03*
X158720Y169100D03*
X158720Y161100D03*
X158720Y153100D03*
X171480Y153100D03*
X171480Y161100D03*
X171480Y169100D03*
X171480Y177100D03*
D15*
X142600Y111350D03*
X142600Y104850D03*
X142600Y98350D03*
X142600Y91850D03*
X187600Y91850D03*
X187600Y98350D03*
X187600Y104850D03*
X187600Y111350D03*
D10*
X186300Y127000D03*
X169300Y127000D03*
X160900Y76200D03*
X143900Y76200D03*
X262500Y254000D03*
X245500Y254000D03*
X262500Y228600D03*
X245500Y228600D03*
D16*
X155600Y240999D03*
X165100Y240999D03*
X174600Y240999D03*
X174600Y267001D03*
X155600Y267001D03*
D17*
X190500Y245500D03*
X190500Y262500D03*
X139700Y262500D03*
X139700Y245500D03*
D18*
X114300Y202500D03*
X114300Y187500D03*
X114300Y177500D03*
D13*
X212400Y185230D02*
X219400Y185230D01*
X219400Y178230D01*
X212400Y178230D01*
X212400Y185230D01*
X212400Y181080D02*
X219400Y181080D01*
X219400Y183930D02*
X212400Y183930D01*
X212400Y202770D02*
X219400Y202770D01*
X219400Y195770D01*
X212400Y195770D01*
X212400Y202770D01*
X212400Y198620D02*
X219400Y198620D01*
X219400Y201470D02*
X212400Y201470D01*
D19*
X92100Y91600D03*
X111100Y91600D03*
X101600Y112600D03*
X219100Y91600D03*
X238100Y91600D03*
X228600Y112600D03*
X54000Y218600D03*
X73000Y218600D03*
X63500Y239600D03*
D17*
X203200Y169300D03*
X203200Y186300D03*
D10*
X156600Y203200D03*
X173600Y203200D03*
D17*
X101600Y275200D03*
X101600Y258200D03*
D10*
X394580Y266700D03*
X377580Y266700D03*
D11*
X336630Y193100D03*
X336630Y137100D03*
D12*
X373380Y180100D03*
X373380Y170100D03*
X373380Y160100D03*
X373380Y150100D03*
D11*
X626030Y137100D03*
X626030Y193100D03*
D12*
X589280Y150100D03*
X589280Y160100D03*
X589280Y170100D03*
X589280Y180100D03*
D13*
X380810Y250500D02*
X380810Y257500D01*
X380810Y250500D02*
X373810Y250500D01*
X373810Y257500D01*
X380810Y257500D01*
X380810Y253350D02*
X373810Y253350D01*
X373810Y256200D02*
X380810Y256200D01*
X398350Y257500D02*
X398350Y250500D01*
X391350Y250500D01*
X391350Y257500D01*
X398350Y257500D01*
X398350Y253350D02*
X391350Y253350D01*
X391350Y256200D02*
X398350Y256200D01*
D14*
X481300Y177100D03*
X481300Y169100D03*
X481300Y161100D03*
X481300Y153100D03*
X494060Y153100D03*
X494060Y161100D03*
X494060Y169100D03*
X494060Y177100D03*
D15*
X465180Y111350D03*
X465180Y104850D03*
X465180Y98350D03*
X465180Y91850D03*
X510180Y91850D03*
X510180Y98350D03*
X510180Y104850D03*
X510180Y111350D03*
D10*
X508880Y127000D03*
X491880Y127000D03*
X483480Y76200D03*
X466480Y76200D03*
X585080Y254000D03*
X568080Y254000D03*
X585080Y228600D03*
X568080Y228600D03*
D16*
X478180Y240999D03*
X487680Y240999D03*
X497180Y240999D03*
X497180Y267001D03*
X478180Y267001D03*
D17*
X513080Y245500D03*
X513080Y262500D03*
X462280Y262500D03*
X462280Y245500D03*
D18*
X436880Y202500D03*
X436880Y187500D03*
X436880Y177500D03*
D13*
X534980Y185230D02*
X541980Y185230D01*
X541980Y178230D01*
X534980Y178230D01*
X534980Y185230D01*
X534980Y181080D02*
X541980Y181080D01*
X541980Y183930D02*
X534980Y183930D01*
X534980Y202770D02*
X541980Y202770D01*
X541980Y195770D01*
X534980Y195770D01*
X534980Y202770D01*
X534980Y198620D02*
X541980Y198620D01*
X541980Y201470D02*
X534980Y201470D01*
D19*
X414680Y91600D03*
X433680Y91600D03*
X424180Y112600D03*
X541680Y91600D03*
X560680Y91600D03*
X551180Y112600D03*
X376580Y218600D03*
X395580Y218600D03*
X386080Y239600D03*
D17*
X525780Y169300D03*
X525780Y186300D03*
D10*
X479180Y203200D03*
X496180Y203200D03*
D17*
X424180Y275200D03*
X424180Y258200D03*
D10*
X717160Y266700D03*
X700160Y266700D03*
D11*
X659210Y193100D03*
X659210Y137100D03*
D12*
X695960Y180100D03*
X695960Y170100D03*
X695960Y160100D03*
X695960Y150100D03*
D11*
X948610Y137100D03*
X948610Y193100D03*
D12*
X911860Y150100D03*
X911860Y160100D03*
X911860Y170100D03*
X911860Y180100D03*
D13*
X703390Y250500D02*
X703390Y257500D01*
X703390Y250500D02*
X696390Y250500D01*
X696390Y257500D01*
X703390Y257500D01*
X703390Y253350D02*
X696390Y253350D01*
X696390Y256200D02*
X703390Y256200D01*
X720930Y257500D02*
X720930Y250500D01*
X713930Y250500D01*
X713930Y257500D01*
X720930Y257500D01*
X720930Y253350D02*
X713930Y253350D01*
X713930Y256200D02*
X720930Y256200D01*
D14*
X803880Y177100D03*
X803880Y169100D03*
X803880Y161100D03*
X803880Y153100D03*
X816640Y153100D03*
X816640Y161100D03*
X816640Y169100D03*
X816640Y177100D03*
D15*
X787760Y111350D03*
X787760Y104850D03*
X787760Y98350D03*
X787760Y91850D03*
X832760Y91850D03*
X832760Y98350D03*
X832760Y104850D03*
X832760Y111350D03*
D10*
X831460Y127000D03*
X814460Y127000D03*
X806060Y76200D03*
X789060Y76200D03*
X907660Y254000D03*
X890660Y254000D03*
X907660Y228600D03*
X890660Y228600D03*
D16*
X800760Y240999D03*
X810260Y240999D03*
X819760Y240999D03*
X819760Y267001D03*
X800760Y267001D03*
D17*
X835660Y245500D03*
X835660Y262500D03*
X784860Y262500D03*
X784860Y245500D03*
D18*
X759460Y202500D03*
X759460Y187500D03*
X759460Y177500D03*
D13*
X857560Y185230D02*
X864560Y185230D01*
X864560Y178230D01*
X857560Y178230D01*
X857560Y185230D01*
X857560Y181080D02*
X864560Y181080D01*
X864560Y183930D02*
X857560Y183930D01*
X857560Y202770D02*
X864560Y202770D01*
X864560Y195770D01*
X857560Y195770D01*
X857560Y202770D01*
X857560Y198620D02*
X864560Y198620D01*
X864560Y201470D02*
X857560Y201470D01*
D19*
X737260Y91600D03*
X756260Y91600D03*
X746760Y112600D03*
X864260Y91600D03*
X883260Y91600D03*
X873760Y112600D03*
X699160Y218600D03*
X718160Y218600D03*
X708660Y239600D03*
D17*
X848360Y169300D03*
X848360Y186300D03*
D10*
X801760Y203200D03*
X818760Y203200D03*
D17*
X746760Y275200D03*
X746760Y258200D03*
D10*
X1039740Y266700D03*
X1022740Y266700D03*
D11*
X981790Y193100D03*
X981790Y137100D03*
D12*
X1018540Y180100D03*
X1018540Y170100D03*
X1018540Y160100D03*
X1018540Y150100D03*
D11*
X1271190Y137100D03*
X1271190Y193100D03*
D12*
X1234440Y150100D03*
X1234440Y160100D03*
X1234440Y170100D03*
X1234440Y180100D03*
D13*
X1025970Y250500D02*
X1025970Y257500D01*
X1025970Y250500D02*
X1018970Y250500D01*
X1018970Y257500D01*
X1025970Y257500D01*
X1025970Y253350D02*
X1018970Y253350D01*
X1018970Y256200D02*
X1025970Y256200D01*
X1043510Y257500D02*
X1043510Y250500D01*
X1036510Y250500D01*
X1036510Y257500D01*
X1043510Y257500D01*
X1043510Y253350D02*
X1036510Y253350D01*
X1036510Y256200D02*
X1043510Y256200D01*
D14*
X1126460Y177100D03*
X1126460Y169100D03*
X1126460Y161100D03*
X1126460Y153100D03*
X1139220Y153100D03*
X1139220Y161100D03*
X1139220Y169100D03*
X1139220Y177100D03*
D15*
X1110340Y111350D03*
X1110340Y104850D03*
X1110340Y98350D03*
X1110340Y91850D03*
X1155340Y91850D03*
X1155340Y98350D03*
X1155340Y104850D03*
X1155340Y111350D03*
D10*
X1154040Y127000D03*
X1137040Y127000D03*
X1128640Y76200D03*
X1111640Y76200D03*
X1230240Y254000D03*
X1213240Y254000D03*
X1230240Y228600D03*
X1213240Y228600D03*
D16*
X1123340Y240999D03*
X1132840Y240999D03*
X1142340Y240999D03*
X1142340Y267001D03*
X1123340Y267001D03*
D17*
X1158240Y245500D03*
X1158240Y262500D03*
X1107440Y262500D03*
X1107440Y245500D03*
D18*
X1082040Y202500D03*
X1082040Y187500D03*
X1082040Y177500D03*
D13*
X1180140Y185230D02*
X1187140Y185230D01*
X1187140Y178230D01*
X1180140Y178230D01*
X1180140Y185230D01*
X1180140Y181080D02*
X1187140Y181080D01*
X1187140Y183930D02*
X1180140Y183930D01*
X1180140Y202770D02*
X1187140Y202770D01*
X1187140Y195770D01*
X1180140Y195770D01*
X1180140Y202770D01*
X1180140Y198620D02*
X1187140Y198620D01*
X1187140Y201470D02*
X1180140Y201470D01*
D19*
X1059840Y91600D03*
X1078840Y91600D03*
X1069340Y112600D03*
X1186840Y91600D03*
X1205840Y91600D03*
X1196340Y112600D03*
X1021740Y218600D03*
X1040740Y218600D03*
X1031240Y239600D03*
D17*
X1170940Y169300D03*
X1170940Y186300D03*
D10*
X1124340Y203200D03*
X1141340Y203200D03*
D17*
X1069340Y275200D03*
X1069340Y258200D03*
D10*
X72000Y589280D03*
X55000Y589280D03*
D11*
X14050Y515680D03*
X14050Y459680D03*
D12*
X50800Y502680D03*
X50800Y492680D03*
X50800Y482680D03*
X50800Y472680D03*
D11*
X303450Y459680D03*
X303450Y515680D03*
D12*
X266700Y472680D03*
X266700Y482680D03*
X266700Y492680D03*
X266700Y502680D03*
D13*
X58230Y573080D02*
X58230Y580080D01*
X58230Y573080D02*
X51230Y573080D01*
X51230Y580080D01*
X58230Y580080D01*
X58230Y575930D02*
X51230Y575930D01*
X51230Y578780D02*
X58230Y578780D01*
X75770Y580080D02*
X75770Y573080D01*
X68770Y573080D01*
X68770Y580080D01*
X75770Y580080D01*
X75770Y575930D02*
X68770Y575930D01*
X68770Y578780D02*
X75770Y578780D01*
D14*
X158720Y499680D03*
X158720Y491680D03*
X158720Y483680D03*
X158720Y475680D03*
X171480Y475680D03*
X171480Y483680D03*
X171480Y491680D03*
X171480Y499680D03*
D15*
X142600Y433930D03*
X142600Y427430D03*
X142600Y420930D03*
X142600Y414430D03*
X187600Y414430D03*
X187600Y420930D03*
X187600Y427430D03*
X187600Y433930D03*
D10*
X186300Y449580D03*
X169300Y449580D03*
X160900Y398780D03*
X143900Y398780D03*
X262500Y576580D03*
X245500Y576580D03*
X262500Y551180D03*
X245500Y551180D03*
D16*
X155600Y563579D03*
X165100Y563579D03*
X174600Y563579D03*
X174600Y589581D03*
X155600Y589581D03*
D17*
X190500Y568080D03*
X190500Y585080D03*
X139700Y585080D03*
X139700Y568080D03*
D18*
X114300Y525080D03*
X114300Y510080D03*
X114300Y500080D03*
D13*
X212400Y507810D02*
X219400Y507810D01*
X219400Y500810D01*
X212400Y500810D01*
X212400Y507810D01*
X212400Y503660D02*
X219400Y503660D01*
X219400Y506510D02*
X212400Y506510D01*
X212400Y525350D02*
X219400Y525350D01*
X219400Y518350D01*
X212400Y518350D01*
X212400Y525350D01*
X212400Y521200D02*
X219400Y521200D01*
X219400Y524050D02*
X212400Y524050D01*
D19*
X92100Y414180D03*
X111100Y414180D03*
X101600Y435180D03*
X219100Y414180D03*
X238100Y414180D03*
X228600Y435180D03*
X54000Y541180D03*
X73000Y541180D03*
X63500Y562180D03*
D17*
X203200Y491880D03*
X203200Y508880D03*
D10*
X156600Y525780D03*
X173600Y525780D03*
D17*
X101600Y597780D03*
X101600Y580780D03*
D10*
X394580Y589280D03*
X377580Y589280D03*
D11*
X336630Y515680D03*
X336630Y459680D03*
D12*
X373380Y502680D03*
X373380Y492680D03*
X373380Y482680D03*
X373380Y472680D03*
D11*
X626030Y459680D03*
X626030Y515680D03*
D12*
X589280Y472680D03*
X589280Y482680D03*
X589280Y492680D03*
X589280Y502680D03*
D13*
X380810Y573080D02*
X380810Y580080D01*
X380810Y573080D02*
X373810Y573080D01*
X373810Y580080D01*
X380810Y580080D01*
X380810Y575930D02*
X373810Y575930D01*
X373810Y578780D02*
X380810Y578780D01*
X398350Y580080D02*
X398350Y573080D01*
X391350Y573080D01*
X391350Y580080D01*
X398350Y580080D01*
X398350Y575930D02*
X391350Y575930D01*
X391350Y578780D02*
X398350Y578780D01*
D14*
X481300Y499680D03*
X481300Y491680D03*
X481300Y483680D03*
X481300Y475680D03*
X494060Y475680D03*
X494060Y483680D03*
X494060Y491680D03*
X494060Y499680D03*
D15*
X465180Y433930D03*
X465180Y427430D03*
X465180Y420930D03*
X465180Y414430D03*
X510180Y414430D03*
X510180Y420930D03*
X510180Y427430D03*
X510180Y433930D03*
D10*
X508880Y449580D03*
X491880Y449580D03*
X483480Y398780D03*
X466480Y398780D03*
X585080Y576580D03*
X568080Y576580D03*
X585080Y551180D03*
X568080Y551180D03*
D16*
X478180Y563579D03*
X487680Y563579D03*
X497180Y563579D03*
X497180Y589581D03*
X478180Y589581D03*
D17*
X513080Y568080D03*
X513080Y585080D03*
X462280Y585080D03*
X462280Y568080D03*
D18*
X436880Y525080D03*
X436880Y510080D03*
X436880Y500080D03*
D13*
X534980Y507810D02*
X541980Y507810D01*
X541980Y500810D01*
X534980Y500810D01*
X534980Y507810D01*
X534980Y503660D02*
X541980Y503660D01*
X541980Y506510D02*
X534980Y506510D01*
X534980Y525350D02*
X541980Y525350D01*
X541980Y518350D01*
X534980Y518350D01*
X534980Y525350D01*
X534980Y521200D02*
X541980Y521200D01*
X541980Y524050D02*
X534980Y524050D01*
D19*
X414680Y414180D03*
X433680Y414180D03*
X424180Y435180D03*
X541680Y414180D03*
X560680Y414180D03*
X551180Y435180D03*
X376580Y541180D03*
X395580Y541180D03*
X386080Y562180D03*
D17*
X525780Y491880D03*
X525780Y508880D03*
D10*
X479180Y525780D03*
X496180Y525780D03*
D17*
X424180Y597780D03*
X424180Y580780D03*
D10*
X717160Y589280D03*
X700160Y589280D03*
D11*
X659210Y515680D03*
X659210Y459680D03*
D12*
X695960Y502680D03*
X695960Y492680D03*
X695960Y482680D03*
X695960Y472680D03*
D11*
X948610Y459680D03*
X948610Y515680D03*
D12*
X911860Y472680D03*
X911860Y482680D03*
X911860Y492680D03*
X911860Y502680D03*
D13*
X703390Y573080D02*
X703390Y580080D01*
X703390Y573080D02*
X696390Y573080D01*
X696390Y580080D01*
X703390Y580080D01*
X703390Y575930D02*
X696390Y575930D01*
X696390Y578780D02*
X703390Y578780D01*
X720930Y580080D02*
X720930Y573080D01*
X713930Y573080D01*
X713930Y580080D01*
X720930Y580080D01*
X720930Y575930D02*
X713930Y575930D01*
X713930Y578780D02*
X720930Y578780D01*
D14*
X803880Y499680D03*
X803880Y491680D03*
X803880Y483680D03*
X803880Y475680D03*
X816640Y475680D03*
X816640Y483680D03*
X816640Y491680D03*
X816640Y499680D03*
D15*
X787760Y433930D03*
X787760Y427430D03*
X787760Y420930D03*
X787760Y414430D03*
X832760Y414430D03*
X832760Y420930D03*
X832760Y427430D03*
X832760Y433930D03*
D10*
X831460Y449580D03*
X814460Y449580D03*
X806060Y398780D03*
X789060Y398780D03*
X907660Y576580D03*
X890660Y576580D03*
X907660Y551180D03*
X890660Y551180D03*
D16*
X800760Y563579D03*
X810260Y563579D03*
X819760Y563579D03*
X819760Y589581D03*
X800760Y589581D03*
D17*
X835660Y568080D03*
X835660Y585080D03*
X784860Y585080D03*
X784860Y568080D03*
D18*
X759460Y525080D03*
X759460Y510080D03*
X759460Y500080D03*
D13*
X857560Y507810D02*
X864560Y507810D01*
X864560Y500810D01*
X857560Y500810D01*
X857560Y507810D01*
X857560Y503660D02*
X864560Y503660D01*
X864560Y506510D02*
X857560Y506510D01*
X857560Y525350D02*
X864560Y525350D01*
X864560Y518350D01*
X857560Y518350D01*
X857560Y525350D01*
X857560Y521200D02*
X864560Y521200D01*
X864560Y524050D02*
X857560Y524050D01*
D19*
X737260Y414180D03*
X756260Y414180D03*
X746760Y435180D03*
X864260Y414180D03*
X883260Y414180D03*
X873760Y435180D03*
X699160Y541180D03*
X718160Y541180D03*
X708660Y562180D03*
D17*
X848360Y491880D03*
X848360Y508880D03*
D10*
X801760Y525780D03*
X818760Y525780D03*
D17*
X746760Y597780D03*
X746760Y580780D03*
D10*
X1039740Y589280D03*
X1022740Y589280D03*
D11*
X981790Y515680D03*
X981790Y459680D03*
D12*
X1018540Y502680D03*
X1018540Y492680D03*
X1018540Y482680D03*
X1018540Y472680D03*
D11*
X1271190Y459680D03*
X1271190Y515680D03*
D12*
X1234440Y472680D03*
X1234440Y482680D03*
X1234440Y492680D03*
X1234440Y502680D03*
D13*
X1025970Y573080D02*
X1025970Y580080D01*
X1025970Y573080D02*
X1018970Y573080D01*
X1018970Y580080D01*
X1025970Y580080D01*
X1025970Y575930D02*
X1018970Y575930D01*
X1018970Y578780D02*
X1025970Y578780D01*
X1043510Y580080D02*
X1043510Y573080D01*
X1036510Y573080D01*
X1036510Y580080D01*
X1043510Y580080D01*
X1043510Y575930D02*
X1036510Y575930D01*
X1036510Y578780D02*
X1043510Y578780D01*
D14*
X1126460Y499680D03*
X1126460Y491680D03*
X1126460Y483680D03*
X1126460Y475680D03*
X1139220Y475680D03*
X1139220Y483680D03*
X1139220Y491680D03*
X1139220Y499680D03*
D15*
X1110340Y433930D03*
X1110340Y427430D03*
X1110340Y420930D03*
X1110340Y414430D03*
X1155340Y414430D03*
X1155340Y420930D03*
X1155340Y427430D03*
X1155340Y433930D03*
D10*
X1154040Y449580D03*
X1137040Y449580D03*
X1128640Y398780D03*
X1111640Y398780D03*
X1230240Y576580D03*
X1213240Y576580D03*
X1230240Y551180D03*
X1213240Y551180D03*
D16*
X1123340Y563579D03*
X1132840Y563579D03*
X1142340Y563579D03*
X1142340Y589581D03*
X1123340Y589581D03*
D17*
X1158240Y568080D03*
X1158240Y585080D03*
X1107440Y585080D03*
X1107440Y568080D03*
D18*
X1082040Y525080D03*
X1082040Y510080D03*
X1082040Y500080D03*
D13*
X1180140Y507810D02*
X1187140Y507810D01*
X1187140Y500810D01*
X1180140Y500810D01*
X1180140Y507810D01*
X1180140Y503660D02*
X1187140Y503660D01*
X1187140Y506510D02*
X1180140Y506510D01*
X1180140Y525350D02*
X1187140Y525350D01*
X1187140Y518350D01*
X1180140Y518350D01*
X1180140Y525350D01*
X1180140Y521200D02*
X1187140Y521200D01*
X1187140Y524050D02*
X1180140Y524050D01*
D19*
X1059840Y414180D03*
X1078840Y414180D03*
X1069340Y435180D03*
X1186840Y414180D03*
X1205840Y414180D03*
X1196340Y435180D03*
X1021740Y541180D03*
X1040740Y541180D03*
X1031240Y562180D03*
D17*
X1170940Y491880D03*
X1170940Y508880D03*
D10*
X1124340Y525780D03*
X1141340Y525780D03*
D17*
X1069340Y597780D03*
X1069340Y580780D03*
D10*
X72000Y911860D03*
X55000Y911860D03*
D11*
X14050Y838260D03*
X14050Y782260D03*
D12*
X50800Y825260D03*
X50800Y815260D03*
X50800Y805260D03*
X50800Y795260D03*
D11*
X303450Y782260D03*
X303450Y838260D03*
D12*
X266700Y795260D03*
X266700Y805260D03*
X266700Y815260D03*
X266700Y825260D03*
D13*
X58230Y895660D02*
X58230Y902660D01*
X58230Y895660D02*
X51230Y895660D01*
X51230Y902660D01*
X58230Y902660D01*
X58230Y898510D02*
X51230Y898510D01*
X51230Y901360D02*
X58230Y901360D01*
X75770Y902660D02*
X75770Y895660D01*
X68770Y895660D01*
X68770Y902660D01*
X75770Y902660D01*
X75770Y898510D02*
X68770Y898510D01*
X68770Y901360D02*
X75770Y901360D01*
D14*
X158720Y822260D03*
X158720Y814260D03*
X158720Y806260D03*
X158720Y798260D03*
X171480Y798260D03*
X171480Y806260D03*
X171480Y814260D03*
X171480Y822260D03*
D15*
X142600Y756510D03*
X142600Y750010D03*
X142600Y743510D03*
X142600Y737010D03*
X187600Y737010D03*
X187600Y743510D03*
X187600Y750010D03*
X187600Y756510D03*
D10*
X186300Y772160D03*
X169300Y772160D03*
X160900Y721360D03*
X143900Y721360D03*
X262500Y899160D03*
X245500Y899160D03*
X262500Y873760D03*
X245500Y873760D03*
D16*
X155600Y886159D03*
X165100Y886159D03*
X174600Y886159D03*
X174600Y912161D03*
X155600Y912161D03*
D17*
X190500Y890660D03*
X190500Y907660D03*
X139700Y907660D03*
X139700Y890660D03*
D18*
X114300Y847660D03*
X114300Y832660D03*
X114300Y822660D03*
D13*
X212400Y830390D02*
X219400Y830390D01*
X219400Y823390D01*
X212400Y823390D01*
X212400Y830390D01*
X212400Y826240D02*
X219400Y826240D01*
X219400Y829090D02*
X212400Y829090D01*
X212400Y847930D02*
X219400Y847930D01*
X219400Y840930D01*
X212400Y840930D01*
X212400Y847930D01*
X212400Y843780D02*
X219400Y843780D01*
X219400Y846630D02*
X212400Y846630D01*
D19*
X92100Y736760D03*
X111100Y736760D03*
X101600Y757760D03*
X219100Y736760D03*
X238100Y736760D03*
X228600Y757760D03*
X54000Y863760D03*
X73000Y863760D03*
X63500Y884760D03*
D17*
X203200Y814460D03*
X203200Y831460D03*
D10*
X156600Y848360D03*
X173600Y848360D03*
D17*
X101600Y920360D03*
X101600Y903360D03*
D10*
X394580Y911860D03*
X377580Y911860D03*
D11*
X336630Y838260D03*
X336630Y782260D03*
D12*
X373380Y825260D03*
X373380Y815260D03*
X373380Y805260D03*
X373380Y795260D03*
D11*
X626030Y782260D03*
X626030Y838260D03*
D12*
X589280Y795260D03*
X589280Y805260D03*
X589280Y815260D03*
X589280Y825260D03*
D13*
X380810Y895660D02*
X380810Y902660D01*
X380810Y895660D02*
X373810Y895660D01*
X373810Y902660D01*
X380810Y902660D01*
X380810Y898510D02*
X373810Y898510D01*
X373810Y901360D02*
X380810Y901360D01*
X398350Y902660D02*
X398350Y895660D01*
X391350Y895660D01*
X391350Y902660D01*
X398350Y902660D01*
X398350Y898510D02*
X391350Y898510D01*
X391350Y901360D02*
X398350Y901360D01*
D14*
X481300Y822260D03*
X481300Y814260D03*
X481300Y806260D03*
X481300Y798260D03*
X494060Y798260D03*
X494060Y806260D03*
X494060Y814260D03*
X494060Y822260D03*
D15*
X465180Y756510D03*
X465180Y750010D03*
X465180Y743510D03*
X465180Y737010D03*
X510180Y737010D03*
X510180Y743510D03*
X510180Y750010D03*
X510180Y756510D03*
D10*
X508880Y772160D03*
X491880Y772160D03*
X483480Y721360D03*
X466480Y721360D03*
X585080Y899160D03*
X568080Y899160D03*
X585080Y873760D03*
X568080Y873760D03*
D16*
X478180Y886159D03*
X487680Y886159D03*
X497180Y886159D03*
X497180Y912161D03*
X478180Y912161D03*
D17*
X513080Y890660D03*
X513080Y907660D03*
X462280Y907660D03*
X462280Y890660D03*
D18*
X436880Y847660D03*
X436880Y832660D03*
X436880Y822660D03*
D13*
X534980Y830390D02*
X541980Y830390D01*
X541980Y823390D01*
X534980Y823390D01*
X534980Y830390D01*
X534980Y826240D02*
X541980Y826240D01*
X541980Y829090D02*
X534980Y829090D01*
X534980Y847930D02*
X541980Y847930D01*
X541980Y840930D01*
X534980Y840930D01*
X534980Y847930D01*
X534980Y843780D02*
X541980Y843780D01*
X541980Y846630D02*
X534980Y846630D01*
D19*
X414680Y736760D03*
X433680Y736760D03*
X424180Y757760D03*
X541680Y736760D03*
X560680Y736760D03*
X551180Y757760D03*
X376580Y863760D03*
X395580Y863760D03*
X386080Y884760D03*
D17*
X525780Y814460D03*
X525780Y831460D03*
D10*
X479180Y848360D03*
X496180Y848360D03*
D17*
X424180Y920360D03*
X424180Y903360D03*
D10*
X717160Y911860D03*
X700160Y911860D03*
D11*
X659210Y838260D03*
X659210Y782260D03*
D12*
X695960Y825260D03*
X695960Y815260D03*
X695960Y805260D03*
X695960Y795260D03*
D11*
X948610Y782260D03*
X948610Y838260D03*
D12*
X911860Y795260D03*
X911860Y805260D03*
X911860Y815260D03*
X911860Y825260D03*
D13*
X703390Y895660D02*
X703390Y902660D01*
X703390Y895660D02*
X696390Y895660D01*
X696390Y902660D01*
X703390Y902660D01*
X703390Y898510D02*
X696390Y898510D01*
X696390Y901360D02*
X703390Y901360D01*
X720930Y902660D02*
X720930Y895660D01*
X713930Y895660D01*
X713930Y902660D01*
X720930Y902660D01*
X720930Y898510D02*
X713930Y898510D01*
X713930Y901360D02*
X720930Y901360D01*
D14*
X803880Y822260D03*
X803880Y814260D03*
X803880Y806260D03*
X803880Y798260D03*
X816640Y798260D03*
X816640Y806260D03*
X816640Y814260D03*
X816640Y822260D03*
D15*
X787760Y756510D03*
X787760Y750010D03*
X787760Y743510D03*
X787760Y737010D03*
X832760Y737010D03*
X832760Y743510D03*
X832760Y750010D03*
X832760Y756510D03*
D10*
X831460Y772160D03*
X814460Y772160D03*
X806060Y721360D03*
X789060Y721360D03*
X907660Y899160D03*
X890660Y899160D03*
X907660Y873760D03*
X890660Y873760D03*
D16*
X800760Y886159D03*
X810260Y886159D03*
X819760Y886159D03*
X819760Y912161D03*
X800760Y912161D03*
D17*
X835660Y890660D03*
X835660Y907660D03*
X784860Y907660D03*
X784860Y890660D03*
D18*
X759460Y847660D03*
X759460Y832660D03*
X759460Y822660D03*
D13*
X857560Y830390D02*
X864560Y830390D01*
X864560Y823390D01*
X857560Y823390D01*
X857560Y830390D01*
X857560Y826240D02*
X864560Y826240D01*
X864560Y829090D02*
X857560Y829090D01*
X857560Y847930D02*
X864560Y847930D01*
X864560Y840930D01*
X857560Y840930D01*
X857560Y847930D01*
X857560Y843780D02*
X864560Y843780D01*
X864560Y846630D02*
X857560Y846630D01*
D19*
X737260Y736760D03*
X756260Y736760D03*
X746760Y757760D03*
X864260Y736760D03*
X883260Y736760D03*
X873760Y757760D03*
X699160Y863760D03*
X718160Y863760D03*
X708660Y884760D03*
D17*
X848360Y814460D03*
X848360Y831460D03*
D10*
X801760Y848360D03*
X818760Y848360D03*
D17*
X746760Y920360D03*
X746760Y903360D03*
D10*
X1039740Y911860D03*
X1022740Y911860D03*
D11*
X981790Y838260D03*
X981790Y782260D03*
D12*
X1018540Y825260D03*
X1018540Y815260D03*
X1018540Y805260D03*
X1018540Y795260D03*
D11*
X1271190Y782260D03*
X1271190Y838260D03*
D12*
X1234440Y795260D03*
X1234440Y805260D03*
X1234440Y815260D03*
X1234440Y825260D03*
D13*
X1025970Y895660D02*
X1025970Y902660D01*
X1025970Y895660D02*
X1018970Y895660D01*
X1018970Y902660D01*
X1025970Y902660D01*
X1025970Y898510D02*
X1018970Y898510D01*
X1018970Y901360D02*
X1025970Y901360D01*
X1043510Y902660D02*
X1043510Y895660D01*
X1036510Y895660D01*
X1036510Y902660D01*
X1043510Y902660D01*
X1043510Y898510D02*
X1036510Y898510D01*
X1036510Y901360D02*
X1043510Y901360D01*
D14*
X1126460Y822260D03*
X1126460Y814260D03*
X1126460Y806260D03*
X1126460Y798260D03*
X1139220Y798260D03*
X1139220Y806260D03*
X1139220Y814260D03*
X1139220Y822260D03*
D15*
X1110340Y756510D03*
X1110340Y750010D03*
X1110340Y743510D03*
X1110340Y737010D03*
X1155340Y737010D03*
X1155340Y743510D03*
X1155340Y750010D03*
X1155340Y756510D03*
D10*
X1154040Y772160D03*
X1137040Y772160D03*
X1128640Y721360D03*
X1111640Y721360D03*
X1230240Y899160D03*
X1213240Y899160D03*
X1230240Y873760D03*
X1213240Y873760D03*
D16*
X1123340Y886159D03*
X1132840Y886159D03*
X1142340Y886159D03*
X1142340Y912161D03*
X1123340Y912161D03*
D17*
X1158240Y890660D03*
X1158240Y907660D03*
X1107440Y907660D03*
X1107440Y890660D03*
D18*
X1082040Y847660D03*
X1082040Y832660D03*
X1082040Y822660D03*
D13*
X1180140Y830390D02*
X1187140Y830390D01*
X1187140Y823390D01*
X1180140Y823390D01*
X1180140Y830390D01*
X1180140Y826240D02*
X1187140Y826240D01*
X1187140Y829090D02*
X1180140Y829090D01*
X1180140Y847930D02*
X1187140Y847930D01*
X1187140Y840930D01*
X1180140Y840930D01*
X1180140Y847930D01*
X1180140Y843780D02*
X1187140Y843780D01*
X1187140Y846630D02*
X1180140Y846630D01*
D19*
X1059840Y736760D03*
X1078840Y736760D03*
X1069340Y757760D03*
X1186840Y736760D03*
X1205840Y736760D03*
X1196340Y757760D03*
X1021740Y863760D03*
X1040740Y863760D03*
X1031240Y884760D03*
D17*
X1170940Y814460D03*
X1170940Y831460D03*
D10*
X1124340Y848360D03*
X1141340Y848360D03*
D17*
X1069340Y920360D03*
X1069340Y903360D03*
D10*
X72000Y1234440D03*
X55000Y1234440D03*
D11*
X14050Y1160840D03*
X14050Y1104840D03*
D12*
X50800Y1147840D03*
X50800Y1137840D03*
X50800Y1127840D03*
X50800Y1117840D03*
D11*
X303450Y1104840D03*
X303450Y1160840D03*
D12*
X266700Y1117840D03*
X266700Y1127840D03*
X266700Y1137840D03*
X266700Y1147840D03*
D13*
X58230Y1218240D02*
X58230Y1225240D01*
X58230Y1218240D02*
X51230Y1218240D01*
X51230Y1225240D01*
X58230Y1225240D01*
X58230Y1221090D02*
X51230Y1221090D01*
X51230Y1223940D02*
X58230Y1223940D01*
X75770Y1225240D02*
X75770Y1218240D01*
X68770Y1218240D01*
X68770Y1225240D01*
X75770Y1225240D01*
X75770Y1221090D02*
X68770Y1221090D01*
X68770Y1223940D02*
X75770Y1223940D01*
D14*
X158720Y1144840D03*
X158720Y1136840D03*
X158720Y1128840D03*
X158720Y1120840D03*
X171480Y1120840D03*
X171480Y1128840D03*
X171480Y1136840D03*
X171480Y1144840D03*
D15*
X142600Y1079090D03*
X142600Y1072590D03*
X142600Y1066090D03*
X142600Y1059590D03*
X187600Y1059590D03*
X187600Y1066090D03*
X187600Y1072590D03*
X187600Y1079090D03*
D10*
X186300Y1094740D03*
X169300Y1094740D03*
X160900Y1043940D03*
X143900Y1043940D03*
X262500Y1221740D03*
X245500Y1221740D03*
X262500Y1196340D03*
X245500Y1196340D03*
D16*
X155600Y1208739D03*
X165100Y1208739D03*
X174600Y1208739D03*
X174600Y1234741D03*
X155600Y1234741D03*
D17*
X190500Y1213240D03*
X190500Y1230240D03*
X139700Y1230240D03*
X139700Y1213240D03*
D18*
X114300Y1170240D03*
X114300Y1155240D03*
X114300Y1145240D03*
D13*
X212400Y1152970D02*
X219400Y1152970D01*
X219400Y1145970D01*
X212400Y1145970D01*
X212400Y1152970D01*
X212400Y1148820D02*
X219400Y1148820D01*
X219400Y1151670D02*
X212400Y1151670D01*
X212400Y1170510D02*
X219400Y1170510D01*
X219400Y1163510D01*
X212400Y1163510D01*
X212400Y1170510D01*
X212400Y1166360D02*
X219400Y1166360D01*
X219400Y1169210D02*
X212400Y1169210D01*
D19*
X92100Y1059340D03*
X111100Y1059340D03*
X101600Y1080340D03*
X219100Y1059340D03*
X238100Y1059340D03*
X228600Y1080340D03*
X54000Y1186340D03*
X73000Y1186340D03*
X63500Y1207340D03*
D17*
X203200Y1137040D03*
X203200Y1154040D03*
D10*
X156600Y1170940D03*
X173600Y1170940D03*
D17*
X101600Y1242940D03*
X101600Y1225940D03*
D10*
X394580Y1234440D03*
X377580Y1234440D03*
D11*
X336630Y1160840D03*
X336630Y1104840D03*
D12*
X373380Y1147840D03*
X373380Y1137840D03*
X373380Y1127840D03*
X373380Y1117840D03*
D11*
X626030Y1104840D03*
X626030Y1160840D03*
D12*
X589280Y1117840D03*
X589280Y1127840D03*
X589280Y1137840D03*
X589280Y1147840D03*
D13*
X380810Y1218240D02*
X380810Y1225240D01*
X380810Y1218240D02*
X373810Y1218240D01*
X373810Y1225240D01*
X380810Y1225240D01*
X380810Y1221090D02*
X373810Y1221090D01*
X373810Y1223940D02*
X380810Y1223940D01*
X398350Y1225240D02*
X398350Y1218240D01*
X391350Y1218240D01*
X391350Y1225240D01*
X398350Y1225240D01*
X398350Y1221090D02*
X391350Y1221090D01*
X391350Y1223940D02*
X398350Y1223940D01*
D14*
X481300Y1144840D03*
X481300Y1136840D03*
X481300Y1128840D03*
X481300Y1120840D03*
X494060Y1120840D03*
X494060Y1128840D03*
X494060Y1136840D03*
X494060Y1144840D03*
D15*
X465180Y1079090D03*
X465180Y1072590D03*
X465180Y1066090D03*
X465180Y1059590D03*
X510180Y1059590D03*
X510180Y1066090D03*
X510180Y1072590D03*
X510180Y1079090D03*
D10*
X508880Y1094740D03*
X491880Y1094740D03*
X483480Y1043940D03*
X466480Y1043940D03*
X585080Y1221740D03*
X568080Y1221740D03*
X585080Y1196340D03*
X568080Y1196340D03*
D16*
X478180Y1208739D03*
X487680Y1208739D03*
X497180Y1208739D03*
X497180Y1234741D03*
X478180Y1234741D03*
D17*
X513080Y1213240D03*
X513080Y1230240D03*
X462280Y1230240D03*
X462280Y1213240D03*
D18*
X436880Y1170240D03*
X436880Y1155240D03*
X436880Y1145240D03*
D13*
X534980Y1152970D02*
X541980Y1152970D01*
X541980Y1145970D01*
X534980Y1145970D01*
X534980Y1152970D01*
X534980Y1148820D02*
X541980Y1148820D01*
X541980Y1151670D02*
X534980Y1151670D01*
X534980Y1170510D02*
X541980Y1170510D01*
X541980Y1163510D01*
X534980Y1163510D01*
X534980Y1170510D01*
X534980Y1166360D02*
X541980Y1166360D01*
X541980Y1169210D02*
X534980Y1169210D01*
D19*
X414680Y1059340D03*
X433680Y1059340D03*
X424180Y1080340D03*
X541680Y1059340D03*
X560680Y1059340D03*
X551180Y1080340D03*
X376580Y1186340D03*
X395580Y1186340D03*
X386080Y1207340D03*
D17*
X525780Y1137040D03*
X525780Y1154040D03*
D10*
X479180Y1170940D03*
X496180Y1170940D03*
D17*
X424180Y1242940D03*
X424180Y1225940D03*
D10*
X717160Y1234440D03*
X700160Y1234440D03*
D11*
X659210Y1160840D03*
X659210Y1104840D03*
D12*
X695960Y1147840D03*
X695960Y1137840D03*
X695960Y1127840D03*
X695960Y1117840D03*
D11*
X948610Y1104840D03*
X948610Y1160840D03*
D12*
X911860Y1117840D03*
X911860Y1127840D03*
X911860Y1137840D03*
X911860Y1147840D03*
D13*
X703390Y1218240D02*
X703390Y1225240D01*
X703390Y1218240D02*
X696390Y1218240D01*
X696390Y1225240D01*
X703390Y1225240D01*
X703390Y1221090D02*
X696390Y1221090D01*
X696390Y1223940D02*
X703390Y1223940D01*
X720930Y1225240D02*
X720930Y1218240D01*
X713930Y1218240D01*
X713930Y1225240D01*
X720930Y1225240D01*
X720930Y1221090D02*
X713930Y1221090D01*
X713930Y1223940D02*
X720930Y1223940D01*
D14*
X803880Y1144840D03*
X803880Y1136840D03*
X803880Y1128840D03*
X803880Y1120840D03*
X816640Y1120840D03*
X816640Y1128840D03*
X816640Y1136840D03*
X816640Y1144840D03*
D15*
X787760Y1079090D03*
X787760Y1072590D03*
X787760Y1066090D03*
X787760Y1059590D03*
X832760Y1059590D03*
X832760Y1066090D03*
X832760Y1072590D03*
X832760Y1079090D03*
D10*
X831460Y1094740D03*
X814460Y1094740D03*
X806060Y1043940D03*
X789060Y1043940D03*
X907660Y1221740D03*
X890660Y1221740D03*
X907660Y1196340D03*
X890660Y1196340D03*
D16*
X800760Y1208739D03*
X810260Y1208739D03*
X819760Y1208739D03*
X819760Y1234741D03*
X800760Y1234741D03*
D17*
X835660Y1213240D03*
X835660Y1230240D03*
X784860Y1230240D03*
X784860Y1213240D03*
D18*
X759460Y1170240D03*
X759460Y1155240D03*
X759460Y1145240D03*
D13*
X857560Y1152970D02*
X864560Y1152970D01*
X864560Y1145970D01*
X857560Y1145970D01*
X857560Y1152970D01*
X857560Y1148820D02*
X864560Y1148820D01*
X864560Y1151670D02*
X857560Y1151670D01*
X857560Y1170510D02*
X864560Y1170510D01*
X864560Y1163510D01*
X857560Y1163510D01*
X857560Y1170510D01*
X857560Y1166360D02*
X864560Y1166360D01*
X864560Y1169210D02*
X857560Y1169210D01*
D19*
X737260Y1059340D03*
X756260Y1059340D03*
X746760Y1080340D03*
X864260Y1059340D03*
X883260Y1059340D03*
X873760Y1080340D03*
X699160Y1186340D03*
X718160Y1186340D03*
X708660Y1207340D03*
D17*
X848360Y1137040D03*
X848360Y1154040D03*
D10*
X801760Y1170940D03*
X818760Y1170940D03*
D17*
X746760Y1242940D03*
X746760Y1225940D03*
D10*
X1039740Y1234440D03*
X1022740Y1234440D03*
D11*
X981790Y1160840D03*
X981790Y1104840D03*
D12*
X1018540Y1147840D03*
X1018540Y1137840D03*
X1018540Y1127840D03*
X1018540Y1117840D03*
D11*
X1271190Y1104840D03*
X1271190Y1160840D03*
D12*
X1234440Y1117840D03*
X1234440Y1127840D03*
X1234440Y1137840D03*
X1234440Y1147840D03*
D13*
X1025970Y1218240D02*
X1025970Y1225240D01*
X1025970Y1218240D02*
X1018970Y1218240D01*
X1018970Y1225240D01*
X1025970Y1225240D01*
X1025970Y1221090D02*
X1018970Y1221090D01*
X1018970Y1223940D02*
X1025970Y1223940D01*
X1043510Y1225240D02*
X1043510Y1218240D01*
X1036510Y1218240D01*
X1036510Y1225240D01*
X1043510Y1225240D01*
X1043510Y1221090D02*
X1036510Y1221090D01*
X1036510Y1223940D02*
X1043510Y1223940D01*
D14*
X1126460Y1144840D03*
X1126460Y1136840D03*
X1126460Y1128840D03*
X1126460Y1120840D03*
X1139220Y1120840D03*
X1139220Y1128840D03*
X1139220Y1136840D03*
X1139220Y1144840D03*
D15*
X1110340Y1079090D03*
X1110340Y1072590D03*
X1110340Y1066090D03*
X1110340Y1059590D03*
X1155340Y1059590D03*
X1155340Y1066090D03*
X1155340Y1072590D03*
X1155340Y1079090D03*
D10*
X1154040Y1094740D03*
X1137040Y1094740D03*
X1128640Y1043940D03*
X1111640Y1043940D03*
X1230240Y1221740D03*
X1213240Y1221740D03*
X1230240Y1196340D03*
X1213240Y1196340D03*
D16*
X1123340Y1208739D03*
X1132840Y1208739D03*
X1142340Y1208739D03*
X1142340Y1234741D03*
X1123340Y1234741D03*
D17*
X1158240Y1213240D03*
X1158240Y1230240D03*
X1107440Y1230240D03*
X1107440Y1213240D03*
D18*
X1082040Y1170240D03*
X1082040Y1155240D03*
X1082040Y1145240D03*
D13*
X1180140Y1152970D02*
X1187140Y1152970D01*
X1187140Y1145970D01*
X1180140Y1145970D01*
X1180140Y1152970D01*
X1180140Y1148820D02*
X1187140Y1148820D01*
X1187140Y1151670D02*
X1180140Y1151670D01*
X1180140Y1170510D02*
X1187140Y1170510D01*
X1187140Y1163510D01*
X1180140Y1163510D01*
X1180140Y1170510D01*
X1180140Y1166360D02*
X1187140Y1166360D01*
X1187140Y1169210D02*
X1180140Y1169210D01*
D19*
X1059840Y1059340D03*
X1078840Y1059340D03*
X1069340Y1080340D03*
X1186840Y1059340D03*
X1205840Y1059340D03*
X1196340Y1080340D03*
X1021740Y1186340D03*
X1040740Y1186340D03*
X1031240Y1207340D03*
D17*
X1170940Y1137040D03*
X1170940Y1154040D03*
D10*
X1124340Y1170940D03*
X1141340Y1170940D03*
D17*
X1069340Y1242940D03*
X1069340Y1225940D03*
M02*
